<?xml version="1.0" encoding="UTF-8"?>
<svg id="Layer_1" xmlns="http://www.w3.org/2000/svg" viewBox="0 0 939.61 939.61">
  <defs>
    <style>
      .cls-1 {
        fill: #6a9953;
        font-family: PTMono-Bold, 'PT Mono';
        font-size: 47px;
        font-weight: 700;
      }
    </style>
  </defs>
  <text class="cls-1" transform="translate(527.01 37.48) rotate(9.32)"><tspan x="0" y="0">C</tspan></text>
  <text class="cls-1" transform="translate(554.34 41.95) rotate(12.98)"><tspan x="0" y="0">O</tspan></text>
  <text class="cls-1" transform="translate(581.32 48.15) rotate(16.64)"><tspan x="0" y="0">N</tspan></text>
  <text class="cls-1" transform="translate(607.87 56.07) rotate(20.31)"><tspan x="0" y="0">T</tspan></text>
  <text class="cls-1" transform="translate(633.86 65.68) rotate(23.98)"><tspan x="0" y="0">E</tspan></text>
  <text class="cls-1" transform="translate(659.18 76.92) rotate(27.64)"><tspan x="0" y="0">N</tspan></text>
  <text class="cls-1" transform="translate(683.72 89.75) rotate(31.28)"><tspan x="0" y="0">T</tspan></text>
  <text class="cls-1" transform="translate(707.42 104.13) rotate(34.92)"><tspan x="0" y="0"> </tspan></text>
  <text class="cls-1" transform="translate(730.12 119.96) rotate(38.54)"><tspan x="0" y="0">M</tspan></text>
  <text class="cls-1" transform="translate(751.81 137.22) rotate(42.17)"><tspan x="0" y="0">A</tspan></text>
  <text class="cls-1" transform="translate(772.36 155.81) rotate(45.78)"><tspan x="0" y="0">N</tspan></text>
  <text class="cls-1" transform="translate(791.69 175.66) rotate(49.4)"><tspan x="0" y="0">A</tspan></text>
  <text class="cls-1" transform="translate(809.72 196.67) rotate(53.03)"><tspan x="0" y="0">G</tspan></text>
  <text class="cls-1" transform="translate(826.39 218.79) rotate(56.66)"><tspan x="0" y="0">E</tspan></text>
  <text class="cls-1" transform="translate(841.63 241.91) rotate(60.3)"><tspan x="0" y="0">M</tspan></text>
  <text class="cls-1" transform="translate(855.37 265.97) rotate(63.95)"><tspan x="0" y="0">E</tspan></text>
  <text class="cls-1" transform="translate(867.55 290.84) rotate(67.61)"><tspan x="0" y="0">N</tspan></text>
  <text class="cls-1" transform="translate(878.12 316.46) rotate(71.27)"><tspan x="0" y="0">T</tspan></text>
  <text class="cls-1" transform="translate(887.02 342.67) rotate(74.94)"><tspan x="0" y="0"> </tspan></text>
  <text class="cls-1" transform="translate(894.24 369.44) rotate(78.61)"><tspan x="0" y="0">&amp;</tspan></text>
  <text class="cls-1" transform="translate(899.73 396.58) rotate(82.26)"><tspan x="0" y="0"> </tspan></text>
  <text class="cls-1" transform="translate(903.47 424.03) rotate(85.89)"><tspan x="0" y="0">W</tspan></text>
  <text class="cls-1" transform="translate(905.37 451.72) rotate(89.07)"><tspan x="0" y="0">E</tspan></text>
  <text class="cls-1" transform="translate(905.74 479.37) rotate(93.06)"><tspan x="0" y="0">B</tspan></text>
  <text class="cls-1" transform="translate(904.28 507.04) rotate(96.68)"><tspan x="0" y="0"> </tspan></text>
  <text class="cls-1" transform="translate(901.07 534.55) rotate(100.32)"><tspan x="0" y="0">A</tspan></text>
  <text class="cls-1" transform="translate(896.12 561.81) rotate(103.99)"><tspan x="0" y="0">U</tspan></text>
  <text class="cls-1" transform="translate(889.45 588.68) rotate(107.65)"><tspan x="0" y="0">D</tspan></text>
  <text class="cls-1" transform="translate(881.06 615.08) rotate(111.32)"><tspan x="0" y="0">I</tspan></text>
  <text class="cls-1" transform="translate(871 640.89) rotate(114.98)"><tspan x="0" y="0">T</tspan></text>
  <text class="cls-1" transform="translate(859.32 666) rotate(118.64)"><tspan x="0" y="0"> </tspan></text>
  <text class="cls-1" transform="translate(846.05 690.33) rotate(122.28)"><tspan x="0" y="0">|</tspan></text>
  <text class="cls-1" transform="translate(831.27 713.75) rotate(125.91)"><tspan x="0" y="0"> </tspan></text>
  <text class="cls-1" transform="translate(815.04 736.2) rotate(129.54)"><tspan x="0" y="0">C</tspan></text>
  <text class="cls-1" transform="translate(797.42 757.56) rotate(133.16)"><tspan x="0" y="0">O</tspan></text>
  <text class="cls-1" transform="translate(778.48 777.78) rotate(136.78)"><tspan x="0" y="0">N</tspan></text>
  <text class="cls-1" transform="translate(758.3 796.77) rotate(140.4)"><tspan x="0" y="0">T</tspan></text>
  <text class="cls-1" transform="translate(736.96 814.45) rotate(144.02)"><tspan x="0" y="0">E</tspan></text>
  <text class="cls-1" transform="translate(714.56 830.73) rotate(147.66)"><tspan x="0" y="0">N</tspan></text>
  <text class="cls-1" transform="translate(691.17 845.56) rotate(151.3)"><tspan x="0" y="0">T</tspan></text>
  <text class="cls-1" transform="translate(666.87 858.88) rotate(154.95)"><tspan x="0" y="0"> </tspan></text>
  <text class="cls-1" transform="translate(641.79 870.62) rotate(158.61)"><tspan x="0" y="0">M</tspan></text>
  <text class="cls-1" transform="translate(615.99 880.74) rotate(162.28)"><tspan x="0" y="0">A</tspan></text>
  <text class="cls-1" transform="translate(589.62 889.18) rotate(165.95)"><tspan x="0" y="0">N</tspan></text>
  <text class="cls-1" transform="translate(562.75 895.92) rotate(169.61)"><tspan x="0" y="0">A</tspan></text>
  <text class="cls-1" transform="translate(535.52 900.93) rotate(173.26)"><tspan x="0" y="0">G</tspan></text>
  <text class="cls-1" transform="translate(508.01 904.2) rotate(176.88)"><tspan x="0" y="0">E</tspan></text>
  <text class="cls-1" transform="translate(480.4 905.83) rotate(-179.07)"><tspan x="0" y="0">M</tspan></text>
  <text class="cls-1" transform="translate(452.63 905.51) rotate(-175.95)"><tspan x="0" y="0">E</tspan></text>
  <text class="cls-1" transform="translate(424.99 903.57) rotate(-172.32)"><tspan x="0" y="0">N</tspan></text>
  <text class="cls-1" transform="translate(397.54 899.89) rotate(-168.67)"><tspan x="0" y="0">T</tspan></text>
  <text class="cls-1" transform="translate(370.37 894.46) rotate(-165.01)"><tspan x="0" y="0"> </tspan></text>
  <text class="cls-1" transform="translate(343.62 887.31) rotate(-161.34)"><tspan x="0" y="0">&amp;</tspan></text>
  <text class="cls-1" transform="translate(317.38 878.47) rotate(-157.67)"><tspan x="0" y="0"> </tspan></text>
  <text class="cls-1" transform="translate(291.75 867.96) rotate(-154.01)"><tspan x="0" y="0">W</tspan></text>
  <text class="cls-1" transform="translate(266.84 855.83) rotate(-150.36)"><tspan x="0" y="0">E</tspan></text>
  <text class="cls-1" transform="translate(242.75 842.14) rotate(-146.72)"><tspan x="0" y="0">B</tspan></text>
  <text class="cls-1" transform="translate(219.59 826.95) rotate(-143.09)"><tspan x="0" y="0"> </tspan></text>
  <text class="cls-1" transform="translate(197.42 810.32) rotate(-139.46)"><tspan x="0" y="0">A</tspan></text>
  <text class="cls-1" transform="translate(176.36 792.34) rotate(-135.85)"><tspan x="0" y="0">U</tspan></text>
  <text class="cls-1" transform="translate(156.48 773.05) rotate(-132.23)"><tspan x="0" y="0">D</tspan></text>
  <text class="cls-1" transform="translate(137.85 752.55) rotate(-128.61)"><tspan x="0" y="0">I</tspan></text>
  <text class="cls-1" transform="translate(120.54 730.9) rotate(-124.98)"><tspan x="0" y="0">T</tspan></text>
  <text class="cls-1" transform="translate(104.65 708.22) rotate(-121.34)"><tspan x="0" y="0"> </tspan></text>
  <text class="cls-1" transform="translate(90.23 684.57) rotate(-117.7)"><tspan x="0" y="0">|</tspan></text>
  <text class="cls-1" transform="translate(77.34 660.05) rotate(-114.04)"><tspan x="0" y="0"> </tspan></text>
  <text class="cls-1" transform="translate(66.04 634.76) rotate(-110.38)"><tspan x="0" y="0">C</tspan></text>
  <text class="cls-1" transform="translate(56.38 608.8) rotate(-106.71)"><tspan x="0" y="0">O</tspan></text>
  <text class="cls-1" transform="translate(48.41 582.29) rotate(-103.04)"><tspan x="0" y="0">N</tspan></text>
  <text class="cls-1" transform="translate(42.14 555.3) rotate(-99.38)"><tspan x="0" y="0">T</tspan></text>
  <text class="cls-1" transform="translate(37.61 527.96) rotate(-95.74)"><tspan x="0" y="0">E</tspan></text>
  <text class="cls-1" transform="translate(34.82 500.39) rotate(-92.13)"><tspan x="0" y="0">N</tspan></text>
  <text class="cls-1" transform="translate(33.77 472.72) rotate(-88.56)"><tspan x="0" y="0">T</tspan></text>
  <text class="cls-1" transform="translate(34.46 445.01) rotate(-84.95)"><tspan x="0" y="0"> </tspan></text>
  <text class="cls-1" transform="translate(36.88 417.42) rotate(-81.32)"><tspan x="0" y="0">M</tspan></text>
  <text class="cls-1" transform="translate(41.04 390.03) rotate(-77.66)"><tspan x="0" y="0">A</tspan></text>
  <text class="cls-1" transform="translate(46.94 362.98) rotate(-74)"><tspan x="0" y="0">N</tspan></text>
  <text class="cls-1" transform="translate(54.56 336.35) rotate(-70.33)"><tspan x="0" y="0">A</tspan></text>
  <text class="cls-1" transform="translate(63.87 310.25) rotate(-66.66)"><tspan x="0" y="0">G</tspan></text>
  <text class="cls-1" transform="translate(74.83 284.83) rotate(-63.01)"><tspan x="0" y="0">E</tspan></text>
  <text class="cls-1" transform="translate(87.38 260.14) rotate(-59.36)"><tspan x="0" y="0">M</tspan></text>
  <text class="cls-1" transform="translate(101.49 236.3) rotate(-55.72)"><tspan x="0" y="0">E</tspan></text>
  <text class="cls-1" transform="translate(117.08 213.39) rotate(-52.09)"><tspan x="0" y="0">N</tspan></text>
  <text class="cls-1" transform="translate(134.09 191.53) rotate(-48.47)"><tspan x="0" y="0">T</tspan></text>
  <text class="cls-1" transform="translate(152.45 170.77) rotate(-44.85)"><tspan x="0" y="0"> </tspan></text>
  <text class="cls-1" transform="translate(172.08 151.22) rotate(-41.23)"><tspan x="0" y="0">&amp;</tspan></text>
  <text class="cls-1" transform="translate(192.89 132.96) rotate(-37.61)"><tspan x="0" y="0"> </tspan></text>
  <text class="cls-1" transform="translate(214.83 116.04) rotate(-33.98)"><tspan x="0" y="0">W</tspan></text>
  <text class="cls-1" transform="translate(237.79 100.55) rotate(-30.34)"><tspan x="0" y="0">E</tspan></text>
  <text class="cls-1" transform="translate(261.69 86.54) rotate(-26.69)"><tspan x="0" y="0">B</tspan></text>
  <text class="cls-1" transform="translate(286.43 74.08) rotate(-23.04)"><tspan x="0" y="0"> </tspan></text>
  <text class="cls-1" transform="translate(311.91 63.23) rotate(-19.37)"><tspan x="0" y="0">A</tspan></text>
  <text class="cls-1" transform="translate(338.05 54.02) rotate(-15.7)"><tspan x="0" y="0">U</tspan></text>
  <text class="cls-1" transform="translate(364.7 46.51) rotate(-12.04)"><tspan x="0" y="0">D</tspan></text>
  <text class="cls-1" transform="translate(391.79 40.72) rotate(-8.38)"><tspan x="0" y="0">I</tspan></text>
  <text class="cls-1" transform="translate(419.2 36.67) rotate(-4.75)"><tspan x="0" y="0">T</tspan></text>
  <text class="cls-1" transform="translate(446.8 34.36) rotate(-1.15)"><tspan x="0" y="0"> </tspan></text>
  <text class="cls-1" transform="translate(474.51 33.79) rotate(2.43)"><tspan x="0" y="0">|</tspan></text>
  <text class="cls-1" transform="translate(502.19 34.95) rotate(6.04)"><tspan x="0" y="0"> </tspan></text>
</svg>