<?xml version="1.0" encoding="UTF-8"?>
<svg id="Layer_1" xmlns="http://www.w3.org/2000/svg" viewBox="0 0 902.22 902.22">
  <defs>
    <style>
      .cls-1 {
        fill: #6a9953;
        font-family: PTMono-Bold, 'PT Mono';
        font-size: 18px;
        font-weight: 700;
      }
    </style>
  </defs>
  <text class="cls-1" transform="translate(508.5 19.01) rotate(8.2)"><tspan x="0" y="0"> </tspan></text>
  <text class="cls-1" transform="translate(519.11 20.54) rotate(9.62)"><tspan x="0" y="0">&lt;</tspan></text>
  <text class="cls-1" transform="translate(529.69 22.33) rotate(11.03)"><tspan x="0" y="0">h</tspan></text>
  <text class="cls-1" transform="translate(540.22 24.38) rotate(12.45)"><tspan x="0" y="0">e</tspan></text>
  <text class="cls-1" transform="translate(550.7 26.69) rotate(13.87)"><tspan x="0" y="0">a</tspan></text>
  <text class="cls-1" transform="translate(561.11 29.26) rotate(15.29)"><tspan x="0" y="0">d</tspan></text>
  <text class="cls-1" transform="translate(571.45 32.09) rotate(16.71)"><tspan x="0" y="0">e</tspan></text>
  <text class="cls-1" transform="translate(581.72 35.17) rotate(18.13)"><tspan x="0" y="0">r</tspan></text>
  <text class="cls-1" transform="translate(591.91 38.51) rotate(19.55)"><tspan x="0" y="0">&gt;</tspan></text>
  <text class="cls-1" transform="translate(602.04 42.1) rotate(20.98)"><tspan x="0" y="0">&lt;</tspan></text>
  <text class="cls-1" transform="translate(612.05 45.94) rotate(22.39)"><tspan x="0" y="0">n</tspan></text>
  <text class="cls-1" transform="translate(621.97 50.03) rotate(23.81)"><tspan x="0" y="0">a</tspan></text>
  <text class="cls-1" transform="translate(631.78 54.35) rotate(25.23)"><tspan x="0" y="0">v</tspan></text>
  <text class="cls-1" transform="translate(641.49 58.93) rotate(26.65)"><tspan x="0" y="0"> </tspan></text>
  <text class="cls-1" transform="translate(651.07 63.74) rotate(28.06)"><tspan x="0" y="0">i</tspan></text>
  <text class="cls-1" transform="translate(660.52 68.77) rotate(29.47)"><tspan x="0" y="0">d</tspan></text>
  <text class="cls-1" transform="translate(669.86 74.05) rotate(30.88)"><tspan x="0" y="0">=</tspan></text>
  <text class="cls-1" transform="translate(679.08 79.56) rotate(32.3)"><tspan x="0" y="0">&quot;</tspan></text>
  <text class="cls-1" transform="translate(688.14 85.29) rotate(33.7)"><tspan x="0" y="0">n</tspan></text>
  <text class="cls-1" transform="translate(697.08 91.25) rotate(35.11)"><tspan x="0" y="0">a</tspan></text>
  <text class="cls-1" transform="translate(705.85 97.42) rotate(36.52)"><tspan x="0" y="0">v</tspan></text>
  <text class="cls-1" transform="translate(714.47 103.8) rotate(37.92)"><tspan x="0" y="0">b</tspan></text>
  <text class="cls-1" transform="translate(722.92 110.38) rotate(39.32)"><tspan x="0" y="0">a</tspan></text>
  <text class="cls-1" transform="translate(731.22 117.18) rotate(40.73)"><tspan x="0" y="0">r</tspan></text>
  <text class="cls-1" transform="translate(739.35 124.18) rotate(42.13)"><tspan x="0" y="0">&quot;</tspan></text>
  <text class="cls-1" transform="translate(747.32 131.39) rotate(43.53)"><tspan x="0" y="0"> </tspan></text>
  <text class="cls-1" transform="translate(755.08 138.76) rotate(44.93)"><tspan x="0" y="0">a</tspan></text>
  <text class="cls-1" transform="translate(762.69 146.34) rotate(46.33)"><tspan x="0" y="0">r</tspan></text>
  <text class="cls-1" transform="translate(770.09 154.1) rotate(47.74)"><tspan x="0" y="0">i</tspan></text>
  <text class="cls-1" transform="translate(777.31 162.04) rotate(49.14)"><tspan x="0" y="0">a</tspan></text>
  <text class="cls-1" transform="translate(784.31 170.14) rotate(50.54)"><tspan x="0" y="0">-</tspan></text>
  <text class="cls-1" transform="translate(791.15 178.44) rotate(51.94)"><tspan x="0" y="0">l</tspan></text>
  <text class="cls-1" transform="translate(797.76 186.88) rotate(53.35)"><tspan x="0" y="0">a</tspan></text>
  <text class="cls-1" transform="translate(804.16 195.48) rotate(54.75)"><tspan x="0" y="0">b</tspan></text>
  <text class="cls-1" transform="translate(810.35 204.23) rotate(56.16)"><tspan x="0" y="0">e</tspan></text>
  <text class="cls-1" transform="translate(816.32 213.14) rotate(57.57)"><tspan x="0" y="0">l</tspan></text>
  <text class="cls-1" transform="translate(822.07 222.19) rotate(58.98)"><tspan x="0" y="0">=</tspan></text>
  <text class="cls-1" transform="translate(827.6 231.38) rotate(60.39)"><tspan x="0" y="0">&quot;</tspan></text>
  <text class="cls-1" transform="translate(832.91 240.72) rotate(61.8)"><tspan x="0" y="0">P</tspan></text>
  <text class="cls-1" transform="translate(837.98 250.17) rotate(63.22)"><tspan x="0" y="0">r</tspan></text>
  <text class="cls-1" transform="translate(842.81 259.75) rotate(64.63)"><tspan x="0" y="0">i</tspan></text>
  <text class="cls-1" transform="translate(847.4 269.43) rotate(66.05)"><tspan x="0" y="0">m</tspan></text>
  <text class="cls-1" transform="translate(851.76 279.24) rotate(67.47)"><tspan x="0" y="0">a</tspan></text>
  <text class="cls-1" transform="translate(855.87 289.14) rotate(68.89)"><tspan x="0" y="0">r</tspan></text>
  <text class="cls-1" transform="translate(859.74 299.16) rotate(70.31)"><tspan x="0" y="0">y</tspan></text>
  <text class="cls-1" transform="translate(863.36 309.26) rotate(71.73)"><tspan x="0" y="0"> </tspan></text>
  <text class="cls-1" transform="translate(866.71 319.43) rotate(73.15)"><tspan x="0" y="0">N</tspan></text>
  <text class="cls-1" transform="translate(869.82 329.69) rotate(74.57)"><tspan x="0" y="0">a</tspan></text>
  <text class="cls-1" transform="translate(872.68 340.02) rotate(75.99)"><tspan x="0" y="0">v</tspan></text>
  <text class="cls-1" transform="translate(875.27 350.43) rotate(77.41)"><tspan x="0" y="0">i</tspan></text>
  <text class="cls-1" transform="translate(877.61 360.9) rotate(78.83)"><tspan x="0" y="0">g</tspan></text>
  <text class="cls-1" transform="translate(879.69 371.44) rotate(80.25)"><tspan x="0" y="0">a</tspan></text>
  <text class="cls-1" transform="translate(881.51 382) rotate(81.66)"><tspan x="0" y="0">t</tspan></text>
  <text class="cls-1" transform="translate(883.07 392.61) rotate(83.07)"><tspan x="0" y="0">i</tspan></text>
  <text class="cls-1" transform="translate(884.36 403.26) rotate(84.48)"><tspan x="0" y="0">o</tspan></text>
  <text class="cls-1" transform="translate(885.4 413.95) rotate(85.88)"><tspan x="0" y="0">n</tspan></text>
  <text class="cls-1" transform="translate(886.17 424.64) rotate(87.27)"><tspan x="0" y="0">&quot;</tspan></text>
  <text class="cls-1" transform="translate(886.68 435.34) rotate(88.66)"><tspan x="0" y="0"> </tspan></text>
  <text class="cls-1" transform="translate(887.01 446.02) rotate(90.93)"><tspan x="0" y="0">c</tspan></text>
  <text class="cls-1" transform="translate(886.92 456.81) rotate(91.43)"><tspan x="0" y="0">l</tspan></text>
  <text class="cls-1" transform="translate(886.66 467.54) rotate(92.82)"><tspan x="0" y="0">a</tspan></text>
  <text class="cls-1" transform="translate(886.13 478.24) rotate(94.22)"><tspan x="0" y="0">s</tspan></text>
  <text class="cls-1" transform="translate(885.34 488.95) rotate(95.62)"><tspan x="0" y="0">s</tspan></text>
  <text class="cls-1" transform="translate(884.29 499.62) rotate(97.03)"><tspan x="0" y="0">=</tspan></text>
  <text class="cls-1" transform="translate(882.98 510.28) rotate(98.44)"><tspan x="0" y="0">&quot;</tspan></text>
  <text class="cls-1" transform="translate(881.41 520.88) rotate(99.85)"><tspan x="0" y="0">n</tspan></text>
  <text class="cls-1" transform="translate(879.57 531.44) rotate(101.27)"><tspan x="0" y="0">a</tspan></text>
  <text class="cls-1" transform="translate(877.48 541.96) rotate(102.69)"><tspan x="0" y="0">v</tspan></text>
  <text class="cls-1" transform="translate(875.12 552.42) rotate(104.1)"><tspan x="0" y="0">-</tspan></text>
  <text class="cls-1" transform="translate(872.51 562.83) rotate(105.53)"><tspan x="0" y="0">c</tspan></text>
  <text class="cls-1" transform="translate(869.64 573.16) rotate(106.95)"><tspan x="0" y="0">o</tspan></text>
  <text class="cls-1" transform="translate(866.51 583.43) rotate(108.37)"><tspan x="0" y="0">n</tspan></text>
  <text class="cls-1" transform="translate(863.13 593.61) rotate(109.79)"><tspan x="0" y="0">t</tspan></text>
  <text class="cls-1" transform="translate(859.5 603.71) rotate(111.21)"><tspan x="0" y="0">a</tspan></text>
  <text class="cls-1" transform="translate(855.62 613.7) rotate(112.63)"><tspan x="0" y="0">i</tspan></text>
  <text class="cls-1" transform="translate(851.49 623.61) rotate(114.05)"><tspan x="0" y="0">n</tspan></text>
  <text class="cls-1" transform="translate(847.13 633.39) rotate(115.47)"><tspan x="0" y="0">e</tspan></text>
  <text class="cls-1" transform="translate(842.51 643.08) rotate(116.88)"><tspan x="0" y="0">r</tspan></text>
  <text class="cls-1" transform="translate(837.67 652.64) rotate(118.3)"><tspan x="0" y="0">&quot;</tspan></text>
  <text class="cls-1" transform="translate(832.58 662.1) rotate(119.71)"><tspan x="0" y="0">&gt;</tspan></text>
  <text class="cls-1" transform="translate(827.26 671.42) rotate(121.12)"><tspan x="0" y="0">&lt;</tspan></text>
  <text class="cls-1" transform="translate(821.72 680.59) rotate(122.53)"><tspan x="0" y="0">/</tspan></text>
  <text class="cls-1" transform="translate(815.96 689.64) rotate(123.94)"><tspan x="0" y="0">n</tspan></text>
  <text class="cls-1" transform="translate(809.98 698.53) rotate(125.34)"><tspan x="0" y="0">a</tspan></text>
  <text class="cls-1" transform="translate(803.77 707.28) rotate(126.75)"><tspan x="0" y="0">v</tspan></text>
  <text class="cls-1" transform="translate(797.35 715.88) rotate(128.15)"><tspan x="0" y="0">&gt;</tspan></text>
  <text class="cls-1" transform="translate(790.72 724.33) rotate(129.56)"><tspan x="0" y="0"> </tspan></text>
  <text class="cls-1" transform="translate(783.9 732.58) rotate(130.96)"><tspan x="0" y="0">&lt;</tspan></text>
  <text class="cls-1" transform="translate(776.85 740.7) rotate(132.36)"><tspan x="0" y="0">/</tspan></text>
  <text class="cls-1" transform="translate(769.64 748.61) rotate(133.76)"><tspan x="0" y="0">h</tspan></text>
  <text class="cls-1" transform="translate(762.21 756.37) rotate(135.17)"><tspan x="0" y="0">e</tspan></text>
  <text class="cls-1" transform="translate(754.61 763.93) rotate(136.57)"><tspan x="0" y="0">a</tspan></text>
  <text class="cls-1" transform="translate(746.82 771.3) rotate(137.97)"><tspan x="0" y="0">d</tspan></text>
  <text class="cls-1" transform="translate(738.84 778.5) rotate(139.37)"><tspan x="0" y="0">e</tspan></text>
  <text class="cls-1" transform="translate(730.71 785.47) rotate(140.77)"><tspan x="0" y="0">r</tspan></text>
  <text class="cls-1" transform="translate(722.41 792.25) rotate(142.17)"><tspan x="0" y="0">&gt;</tspan></text>
  <text class="cls-1" transform="translate(713.93 798.84) rotate(143.58)"><tspan x="0" y="0">&lt;</tspan></text>
  <text class="cls-1" transform="translate(705.3 805.21) rotate(144.99)"><tspan x="0" y="0">m</tspan></text>
  <text class="cls-1" transform="translate(696.52 811.36) rotate(146.39)"><tspan x="0" y="0">a</tspan></text>
  <text class="cls-1" transform="translate(687.57 817.31) rotate(147.8)"><tspan x="0" y="0">i</tspan></text>
  <text class="cls-1" transform="translate(678.5 823.02) rotate(149.21)"><tspan x="0" y="0">n</tspan></text>
  <text class="cls-1" transform="translate(669.28 828.51) rotate(150.63)"><tspan x="0" y="0">&gt;</tspan></text>
  <text class="cls-1" transform="translate(659.95 833.76) rotate(152.04)"><tspan x="0" y="0">&lt;</tspan></text>
  <text class="cls-1" transform="translate(650.46 838.8) rotate(153.45)"><tspan x="0" y="0">s</tspan></text>
  <text class="cls-1" transform="translate(640.88 843.59) rotate(154.87)"><tspan x="0" y="0">e</tspan></text>
  <text class="cls-1" transform="translate(631.17 848.14) rotate(156.28)"><tspan x="0" y="0">c</tspan></text>
  <text class="cls-1" transform="translate(621.34 852.46) rotate(157.7)"><tspan x="0" y="0">t</tspan></text>
  <text class="cls-1" transform="translate(611.42 856.53) rotate(159.12)"><tspan x="0" y="0">i</tspan></text>
  <text class="cls-1" transform="translate(601.38 860.36) rotate(160.55)"><tspan x="0" y="0">o</tspan></text>
  <text class="cls-1" transform="translate(591.29 863.93) rotate(161.97)"><tspan x="0" y="0">n</tspan></text>
  <text class="cls-1" transform="translate(581.08 867.25) rotate(163.39)"><tspan x="0" y="0">&gt;</tspan></text>
  <text class="cls-1" transform="translate(570.82 870.32) rotate(164.81)"><tspan x="0" y="0">&lt;</tspan></text>
  <text class="cls-1" transform="translate(560.45 873.13) rotate(166.23)"><tspan x="0" y="0">h</tspan></text>
  <text class="cls-1" transform="translate(550.02 875.69) rotate(167.65)"><tspan x="0" y="0">1</tspan></text>
  <text class="cls-1" transform="translate(539.56 877.98) rotate(169.07)"><tspan x="0" y="0"> </tspan></text>
  <text class="cls-1" transform="translate(529.03 880.02) rotate(170.48)"><tspan x="0" y="0">c</tspan></text>
  <text class="cls-1" transform="translate(518.45 881.79) rotate(171.9)"><tspan x="0" y="0">l</tspan></text>
  <text class="cls-1" transform="translate(507.84 883.3) rotate(173.3)"><tspan x="0" y="0">a</tspan></text>
  <text class="cls-1" transform="translate(497.18 884.55) rotate(174.71)"><tspan x="0" y="0">s</tspan></text>
  <text class="cls-1" transform="translate(486.48 885.54) rotate(176.11)"><tspan x="0" y="0">s</tspan></text>
  <text class="cls-1" transform="translate(475.8 886.27) rotate(177.51)"><tspan x="0" y="0">=</tspan></text>
  <text class="cls-1" transform="translate(465.09 886.74) rotate(178.89)"><tspan x="0" y="0">&quot;</tspan></text>
  <text class="cls-1" transform="translate(454.4 887.01) rotate(-179.07)"><tspan x="0" y="0">v</tspan></text>
  <text class="cls-1" transform="translate(443.62 886.9) rotate(-178.34)"><tspan x="0" y="0">i</tspan></text>
  <text class="cls-1" transform="translate(432.9 886.59) rotate(-176.95)"><tspan x="0" y="0">s</tspan></text>
  <text class="cls-1" transform="translate(422.19 886.02) rotate(-175.55)"><tspan x="0" y="0">u</tspan></text>
  <text class="cls-1" transform="translate(411.5 885.18) rotate(-174.14)"><tspan x="0" y="0">a</tspan></text>
  <text class="cls-1" transform="translate(400.83 884.09) rotate(-172.74)"><tspan x="0" y="0">l</tspan></text>
  <text class="cls-1" transform="translate(390.19 882.74) rotate(-171.33)"><tspan x="0" y="0">l</tspan></text>
  <text class="cls-1" transform="translate(379.58 881.12) rotate(-169.91)"><tspan x="0" y="0">y</tspan></text>
  <text class="cls-1" transform="translate(369.03 879.24) rotate(-168.5)"><tspan x="0" y="0">-</tspan></text>
  <text class="cls-1" transform="translate(358.51 877.1) rotate(-167.08)"><tspan x="0" y="0">h</tspan></text>
  <text class="cls-1" transform="translate(348.06 874.71) rotate(-165.66)"><tspan x="0" y="0">i</tspan></text>
  <text class="cls-1" transform="translate(337.67 872.05) rotate(-164.24)"><tspan x="0" y="0">d</tspan></text>
  <text class="cls-1" transform="translate(327.35 869.14) rotate(-162.82)"><tspan x="0" y="0">d</tspan></text>
  <text class="cls-1" transform="translate(317.09 865.96) rotate(-161.39)"><tspan x="0" y="0">e</tspan></text>
  <text class="cls-1" transform="translate(306.93 862.55) rotate(-159.97)"><tspan x="0" y="0">n</tspan></text>
  <text class="cls-1" transform="translate(296.84 858.87) rotate(-158.55)"><tspan x="0" y="0">&quot;</tspan></text>
  <text class="cls-1" transform="translate(286.87 854.95) rotate(-157.13)"><tspan x="0" y="0">&gt;</tspan></text>
  <text class="cls-1" transform="translate(276.98 850.79) rotate(-155.71)"><tspan x="0" y="0">G</tspan></text>
  <text class="cls-1" transform="translate(267.2 846.37) rotate(-154.3)"><tspan x="0" y="0">L</tspan></text>
  <text class="cls-1" transform="translate(257.55 841.73) rotate(-152.88)"><tspan x="0" y="0">A</tspan></text>
  <text class="cls-1" transform="translate(248 836.84) rotate(-151.47)"><tspan x="0" y="0">S</tspan></text>
  <text class="cls-1" transform="translate(238.58 831.72) rotate(-150.06)"><tspan x="0" y="0">S</tspan></text>
  <text class="cls-1" transform="translate(229.28 826.36) rotate(-148.65)"><tspan x="0" y="0"> </tspan></text>
  <text class="cls-1" transform="translate(220.11 820.78) rotate(-147.24)"><tspan x="0" y="0">E</tspan></text>
  <text class="cls-1" transform="translate(211.1 814.98) rotate(-145.83)"><tspan x="0" y="0">P</tspan></text>
  <text class="cls-1" transform="translate(202.22 808.95) rotate(-144.42)"><tspan x="0" y="0">&lt;</tspan></text>
  <text class="cls-1" transform="translate(193.49 802.71) rotate(-143.02)"><tspan x="0" y="0">/</tspan></text>
  <text class="cls-1" transform="translate(184.93 796.26) rotate(-141.61)"><tspan x="0" y="0">h</tspan></text>
  <text class="cls-1" transform="translate(176.52 789.6) rotate(-140.21)"><tspan x="0" y="0">1</tspan></text>
  <text class="cls-1" transform="translate(168.27 782.73) rotate(-138.81)"><tspan x="0" y="0">&gt;</tspan></text>
  <text class="cls-1" transform="translate(160.19 775.66) rotate(-137.4)"><tspan x="0" y="0">&lt;</tspan></text>
  <text class="cls-1" transform="translate(152.31 768.41) rotate(-136)"><tspan x="0" y="0">h</tspan></text>
  <text class="cls-1" transform="translate(144.58 760.95) rotate(-134.6)"><tspan x="0" y="0">2</tspan></text>
  <text class="cls-1" transform="translate(137.05 753.32) rotate(-133.2)"><tspan x="0" y="0"> </tspan></text>
  <text class="cls-1" transform="translate(129.71 745.5) rotate(-131.8)"><tspan x="0" y="0">c</tspan></text>
  <text class="cls-1" transform="translate(122.56 737.5) rotate(-130.4)"><tspan x="0" y="0">l</tspan></text>
  <text class="cls-1" transform="translate(115.6 729.33) rotate(-128.99)"><tspan x="0" y="0">a</tspan></text>
  <text class="cls-1" transform="translate(108.86 721) rotate(-127.59)"><tspan x="0" y="0">s</tspan></text>
  <text class="cls-1" transform="translate(102.32 712.51) rotate(-126.19)"><tspan x="0" y="0">s</tspan></text>
  <text class="cls-1" transform="translate(95.98 703.85) rotate(-124.78)"><tspan x="0" y="0">=</tspan></text>
  <text class="cls-1" transform="translate(89.85 695.03) rotate(-123.37)"><tspan x="0" y="0">&quot;</tspan></text>
  <text class="cls-1" transform="translate(83.96 686.08) rotate(-121.96)"><tspan x="0" y="0">v</tspan></text>
  <text class="cls-1" transform="translate(78.28 676.97) rotate(-120.55)"><tspan x="0" y="0">i</tspan></text>
  <text class="cls-1" transform="translate(72.83 667.75) rotate(-119.14)"><tspan x="0" y="0">s</tspan></text>
  <text class="cls-1" transform="translate(67.6 658.36) rotate(-117.72)"><tspan x="0" y="0">u</tspan></text>
  <text class="cls-1" transform="translate(62.61 648.87) rotate(-116.31)"><tspan x="0" y="0">a</tspan></text>
  <text class="cls-1" transform="translate(57.85 639.26) rotate(-114.89)"><tspan x="0" y="0">l</tspan></text>
  <text class="cls-1" transform="translate(53.34 629.53) rotate(-113.48)"><tspan x="0" y="0">l</tspan></text>
  <text class="cls-1" transform="translate(49.07 619.7) rotate(-112.06)"><tspan x="0" y="0">y</tspan></text>
  <text class="cls-1" transform="translate(45.04 609.76) rotate(-110.64)"><tspan x="0" y="0">-</tspan></text>
  <text class="cls-1" transform="translate(41.25 599.7) rotate(-109.22)"><tspan x="0" y="0">h</tspan></text>
  <text class="cls-1" transform="translate(37.72 589.58) rotate(-107.8)"><tspan x="0" y="0">i</tspan></text>
  <text class="cls-1" transform="translate(34.44 579.37) rotate(-106.37)"><tspan x="0" y="0">d</tspan></text>
  <text class="cls-1" transform="translate(31.42 569.07) rotate(-104.95)"><tspan x="0" y="0">d</tspan></text>
  <text class="cls-1" transform="translate(28.65 558.73) rotate(-103.54)"><tspan x="0" y="0">e</tspan></text>
  <text class="cls-1" transform="translate(26.14 548.29) rotate(-102.11)"><tspan x="0" y="0">n</tspan></text>
  <text class="cls-1" transform="translate(23.88 537.79) rotate(-100.69)"><tspan x="0" y="0">&quot;</tspan></text>
  <text class="cls-1" transform="translate(21.89 527.26) rotate(-99.28)"><tspan x="0" y="0">&gt;</tspan></text>
  <text class="cls-1" transform="translate(20.16 516.69) rotate(-97.87)"><tspan x="0" y="0">S</tspan></text>
  <text class="cls-1" transform="translate(18.69 506.05) rotate(-96.46)"><tspan x="0" y="0">L</tspan></text>
  <text class="cls-1" transform="translate(17.49 495.4) rotate(-95.06)"><tspan x="0" y="0">E</tspan></text>
  <text class="cls-1" transform="translate(16.54 484.71) rotate(-93.66)"><tspan x="0" y="0">E</tspan></text>
  <text class="cls-1" transform="translate(15.86 474.01) rotate(-92.26)"><tspan x="0" y="0">P</tspan></text>
  <text class="cls-1" transform="translate(15.44 463.29) rotate(-90.93)"><tspan x="0" y="0">H</tspan></text>
  <text class="cls-1" transform="translate(15.23 452.57) rotate(-89.07)"><tspan x="0" y="0">A</tspan></text>
  <text class="cls-1" transform="translate(15.36 441.83) rotate(-88.1)"><tspan x="0" y="0">W</tspan></text>
  <text class="cls-1" transform="translate(15.72 431.12) rotate(-86.71)"><tspan x="0" y="0">K</tspan></text>
  <text class="cls-1" transform="translate(16.33 420.39) rotate(-85.31)"><tspan x="0" y="0">&lt;</tspan></text>
  <text class="cls-1" transform="translate(17.21 409.69) rotate(-83.91)"><tspan x="0" y="0">/</tspan></text>
  <text class="cls-1" transform="translate(18.34 399.04) rotate(-82.5)"><tspan x="0" y="0">h</tspan></text>
  <text class="cls-1" transform="translate(19.74 388.41) rotate(-81.09)"><tspan x="0" y="0">2</tspan></text>
  <text class="cls-1" transform="translate(21.4 377.81) rotate(-79.68)"><tspan x="0" y="0">&gt;</tspan></text>
  <text class="cls-1" transform="translate(23.32 367.26) rotate(-78.26)"><tspan x="0" y="0">&lt;</tspan></text>
  <text class="cls-1" transform="translate(25.51 356.75) rotate(-76.84)"><tspan x="0" y="0">d</tspan></text>
  <text class="cls-1" transform="translate(27.94 346.32) rotate(-75.42)"><tspan x="0" y="0">i</tspan></text>
  <text class="cls-1" transform="translate(30.64 335.94) rotate(-74)"><tspan x="0" y="0">v</tspan></text>
  <text class="cls-1" transform="translate(33.6 325.63) rotate(-72.58)"><tspan x="0" y="0"> </tspan></text>
  <text class="cls-1" transform="translate(36.82 315.38) rotate(-71.15)"><tspan x="0" y="0">c</tspan></text>
  <text class="cls-1" transform="translate(40.28 305.24) rotate(-69.74)"><tspan x="0" y="0">l</tspan></text>
  <text class="cls-1" transform="translate(43.99 295.17) rotate(-68.31)"><tspan x="0" y="0">a</tspan></text>
  <text class="cls-1" transform="translate(47.95 285.22) rotate(-66.9)"><tspan x="0" y="0">s</tspan></text>
  <text class="cls-1" transform="translate(52.15 275.35) rotate(-65.48)"><tspan x="0" y="0">s</tspan></text>
  <text class="cls-1" transform="translate(56.61 265.58) rotate(-64.06)"><tspan x="0" y="0">=</tspan></text>
  <text class="cls-1" transform="translate(61.31 255.93) rotate(-62.64)"><tspan x="0" y="0">&quot;</tspan></text>
  <text class="cls-1" transform="translate(66.23 246.41) rotate(-61.23)"><tspan x="0" y="0">g</tspan></text>
  <text class="cls-1" transform="translate(71.39 237) rotate(-59.82)"><tspan x="0" y="0">-</tspan></text>
  <text class="cls-1" transform="translate(76.78 227.73) rotate(-58.41)"><tspan x="0" y="0">d</tspan></text>
  <text class="cls-1" transform="translate(82.39 218.6) rotate(-57)"><tspan x="0" y="0">-</tspan></text>
  <text class="cls-1" transform="translate(88.24 209.6) rotate(-55.59)"><tspan x="0" y="0">m</tspan></text>
  <text class="cls-1" transform="translate(94.31 200.74) rotate(-54.18)"><tspan x="0" y="0">a</tspan></text>
  <text class="cls-1" transform="translate(100.58 192.04) rotate(-52.78)"><tspan x="0" y="0">i</tspan></text>
  <text class="cls-1" transform="translate(107.06 183.51) rotate(-51.38)"><tspan x="0" y="0">n</tspan></text>
  <text class="cls-1" transform="translate(113.76 175.12) rotate(-49.97)"><tspan x="0" y="0">-</tspan></text>
  <text class="cls-1" transform="translate(120.66 166.91) rotate(-48.57)"><tspan x="0" y="0">c</tspan></text>
  <text class="cls-1" transform="translate(127.76 158.87) rotate(-47.17)"><tspan x="0" y="0">o</tspan></text>
  <text class="cls-1" transform="translate(135.05 151) rotate(-45.77)"><tspan x="0" y="0">n</tspan></text>
  <text class="cls-1" transform="translate(142.54 143.3) rotate(-44.37)"><tspan x="0" y="0">t</tspan></text>
  <text class="cls-1" transform="translate(150.19 135.82) rotate(-42.97)"><tspan x="0" y="0">a</tspan></text>
  <text class="cls-1" transform="translate(158.05 128.49) rotate(-41.56)"><tspan x="0" y="0">i</tspan></text>
  <text class="cls-1" transform="translate(166.06 121.39) rotate(-40.16)"><tspan x="0" y="0">n</tspan></text>
  <text class="cls-1" transform="translate(174.27 114.47) rotate(-38.76)"><tspan x="0" y="0">e</tspan></text>
  <text class="cls-1" transform="translate(182.64 107.75) rotate(-37.35)"><tspan x="0" y="0">r</tspan></text>
  <text class="cls-1" transform="translate(191.16 101.24) rotate(-35.95)"><tspan x="0" y="0">-</tspan></text>
  <text class="cls-1" transform="translate(199.85 94.94) rotate(-34.54)"><tspan x="0" y="0">s</tspan></text>
  <text class="cls-1" transform="translate(208.68 88.86) rotate(-33.14)"><tspan x="0" y="0">u</tspan></text>
  <text class="cls-1" transform="translate(217.66 82.99) rotate(-31.73)"><tspan x="0" y="0">b</tspan></text>
  <text class="cls-1" transform="translate(226.78 77.35) rotate(-30.32)"><tspan x="0" y="0">&quot;</tspan></text>
  <text class="cls-1" transform="translate(236.05 71.93) rotate(-28.9)"><tspan x="0" y="0">&gt;</tspan></text>
  <text class="cls-1" transform="translate(245.43 66.75) rotate(-27.49)"><tspan x="0" y="0">&lt;</tspan></text>
  <text class="cls-1" transform="translate(254.94 61.8) rotate(-26.08)"><tspan x="0" y="0">b</tspan></text>
  <text class="cls-1" transform="translate(264.59 57.08) rotate(-24.66)"><tspan x="0" y="0">u</tspan></text>
  <text class="cls-1" transform="translate(274.34 52.6) rotate(-23.24)"><tspan x="0" y="0">t</tspan></text>
  <text class="cls-1" transform="translate(284.17 48.38) rotate(-21.82)"><tspan x="0" y="0">t</tspan></text>
  <text class="cls-1" transform="translate(294.13 44.39) rotate(-20.4)"><tspan x="0" y="0">o</tspan></text>
  <text class="cls-1" transform="translate(304.19 40.65) rotate(-18.98)"><tspan x="0" y="0">n</tspan></text>
  <text class="cls-1" transform="translate(314.33 37.16) rotate(-17.56)"><tspan x="0" y="0"> </tspan></text>
  <text class="cls-1" transform="translate(324.56 33.92) rotate(-16.14)"><tspan x="0" y="0">a</tspan></text>
  <text class="cls-1" transform="translate(334.85 30.94) rotate(-14.72)"><tspan x="0" y="0">r</tspan></text>
  <text class="cls-1" transform="translate(345.23 28.21) rotate(-13.3)"><tspan x="0" y="0">i</tspan></text>
  <text class="cls-1" transform="translate(355.67 25.75) rotate(-11.88)"><tspan x="0" y="0">a</tspan></text>
  <text class="cls-1" transform="translate(366.16 23.54) rotate(-10.46)"><tspan x="0" y="0">-</tspan></text>
  <text class="cls-1" transform="translate(376.71 21.59) rotate(-9.05)"><tspan x="0" y="0">l</tspan></text>
  <text class="cls-1" transform="translate(387.32 19.9) rotate(-7.63)"><tspan x="0" y="0">a</tspan></text>
  <text class="cls-1" transform="translate(397.93 18.48) rotate(-6.23)"><tspan x="0" y="0">b</tspan></text>
  <text class="cls-1" transform="translate(408.62 17.31) rotate(-4.82)"><tspan x="0" y="0">e</tspan></text>
  <text class="cls-1" transform="translate(419.3 16.41) rotate(-3.42)"><tspan x="0" y="0">l</tspan></text>
  <text class="cls-1" transform="translate(430.01 15.77) rotate(-2.03)"><tspan x="0" y="0">=</tspan></text>
  <text class="cls-1" transform="translate(440.74 15.41) rotate(-.93)"><tspan x="0" y="0">&quot;</tspan></text>
  <text class="cls-1" transform="translate(451.43 15.25) rotate(.93)"><tspan x="0" y="0">G</tspan></text>
  <text class="cls-1" transform="translate(462.17 15.4) rotate(2.13)"><tspan x="0" y="0">o</tspan></text>
  <text class="cls-1" transform="translate(472.89 15.8) rotate(3.52)"><tspan x="0" y="0"> </tspan></text>
</svg>