<?xml version="1.0" encoding="UTF-8"?>
<svg id="Layer_1" xmlns="http://www.w3.org/2000/svg" viewBox="0 0 741.86 741.87">
  <defs>
    <style>
      .cls-1 {
        fill: #6a9953;
        font-family: PTMono-Bold, 'PT Mono';
        font-size: 14.58px;
        font-weight: 700;
      }
    </style>
  </defs>
  <text class="cls-1" transform="translate(337.42 727.96) rotate(-174.01)"><tspan x="0" y="0"> </tspan></text>
  <text class="cls-1" transform="translate(328.76 727.05) rotate(-172.62)"><tspan x="0" y="0">&lt;</tspan></text>
  <text class="cls-1" transform="translate(320.15 725.94) rotate(-171.23)"><tspan x="0" y="0">h</tspan></text>
  <text class="cls-1" transform="translate(311.56 724.61) rotate(-169.84)"><tspan x="0" y="0">e</tspan></text>
  <text class="cls-1" transform="translate(302.99 723.08) rotate(-168.44)"><tspan x="0" y="0">a</tspan></text>
  <text class="cls-1" transform="translate(294.49 721.34) rotate(-167.05)"><tspan x="0" y="0">d</tspan></text>
  <text class="cls-1" transform="translate(286 719.39) rotate(-165.64)"><tspan x="0" y="0">e</tspan></text>
  <text class="cls-1" transform="translate(277.58 717.23) rotate(-164.25)"><tspan x="0" y="0">r</tspan></text>
  <text class="cls-1" transform="translate(269.23 714.88) rotate(-162.85)"><tspan x="0" y="0">&gt;</tspan></text>
  <text class="cls-1" transform="translate(260.93 712.32) rotate(-161.45)"><tspan x="0" y="0">&lt;</tspan></text>
  <text class="cls-1" transform="translate(252.7 709.55) rotate(-160.05)"><tspan x="0" y="0">n</tspan></text>
  <text class="cls-1" transform="translate(244.52 706.59) rotate(-158.65)"><tspan x="0" y="0">a</tspan></text>
  <text class="cls-1" transform="translate(236.41 703.42) rotate(-157.25)"><tspan x="0" y="0">v</tspan></text>
  <text class="cls-1" transform="translate(228.39 700.06) rotate(-155.85)"><tspan x="0" y="0"> </tspan></text>
  <text class="cls-1" transform="translate(220.48 696.51) rotate(-154.46)"><tspan x="0" y="0">i</tspan></text>
  <text class="cls-1" transform="translate(212.63 692.76) rotate(-153.06)"><tspan x="0" y="0">d</tspan></text>
  <text class="cls-1" transform="translate(204.89 688.83) rotate(-151.67)"><tspan x="0" y="0">=</tspan></text>
  <text class="cls-1" transform="translate(197.23 684.7) rotate(-150.28)"><tspan x="0" y="0">&quot;</tspan></text>
  <text class="cls-1" transform="translate(189.68 680.39) rotate(-148.89)"><tspan x="0" y="0">n</tspan></text>
  <text class="cls-1" transform="translate(182.25 675.91) rotate(-147.5)"><tspan x="0" y="0">a</tspan></text>
  <text class="cls-1" transform="translate(174.91 671.23) rotate(-146.11)"><tspan x="0" y="0">v</tspan></text>
  <text class="cls-1" transform="translate(167.69 666.38) rotate(-144.73)"><tspan x="0" y="0">b</tspan></text>
  <text class="cls-1" transform="translate(160.59 661.36) rotate(-143.34)"><tspan x="0" y="0">a</tspan></text>
  <text class="cls-1" transform="translate(153.63 656.18) rotate(-141.96)"><tspan x="0" y="0">r</tspan></text>
  <text class="cls-1" transform="translate(146.79 650.83) rotate(-140.58)"><tspan x="0" y="0">&quot;</tspan></text>
  <text class="cls-1" transform="translate(140.06 645.3) rotate(-139.2)"><tspan x="0" y="0"> </tspan></text>
  <text class="cls-1" transform="translate(133.5 639.63) rotate(-137.82)"><tspan x="0" y="0">a</tspan></text>
  <text class="cls-1" transform="translate(127.04 633.79) rotate(-136.44)"><tspan x="0" y="0">r</tspan></text>
  <text class="cls-1" transform="translate(120.74 627.79) rotate(-135.05)"><tspan x="0" y="0">i</tspan></text>
  <text class="cls-1" transform="translate(114.6 621.67) rotate(-133.68)"><tspan x="0" y="0">a</tspan></text>
  <text class="cls-1" transform="translate(108.59 615.37) rotate(-132.29)"><tspan x="0" y="0">-</tspan></text>
  <text class="cls-1" transform="translate(102.75 608.96) rotate(-130.92)"><tspan x="0" y="0">l</tspan></text>
  <text class="cls-1" transform="translate(97.05 602.38) rotate(-129.53)"><tspan x="0" y="0">a</tspan></text>
  <text class="cls-1" transform="translate(91.52 595.68) rotate(-128.15)"><tspan x="0" y="0">b</tspan></text>
  <text class="cls-1" transform="translate(86.16 588.85) rotate(-126.77)"><tspan x="0" y="0">e</tspan></text>
  <text class="cls-1" transform="translate(80.94 581.88) rotate(-125.38)"><tspan x="0" y="0">l</tspan></text>
  <text class="cls-1" transform="translate(75.92 574.8) rotate(-124)"><tspan x="0" y="0">=</tspan></text>
  <text class="cls-1" transform="translate(71.05 567.59) rotate(-122.61)"><tspan x="0" y="0">&quot;</tspan></text>
  <text class="cls-1" transform="translate(66.37 560.28) rotate(-121.22)"><tspan x="0" y="0">P</tspan></text>
  <text class="cls-1" transform="translate(61.87 552.84) rotate(-119.83)"><tspan x="0" y="0">r</tspan></text>
  <text class="cls-1" transform="translate(57.54 545.3) rotate(-118.44)"><tspan x="0" y="0">i</tspan></text>
  <text class="cls-1" transform="translate(53.4 537.67) rotate(-117.05)"><tspan x="0" y="0">m</tspan></text>
  <text class="cls-1" transform="translate(49.45 529.92) rotate(-115.66)"><tspan x="0" y="0">a</tspan></text>
  <text class="cls-1" transform="translate(45.68 522.07) rotate(-114.26)"><tspan x="0" y="0">r</tspan></text>
  <text class="cls-1" transform="translate(42.1 514.15) rotate(-112.86)"><tspan x="0" y="0">y</tspan></text>
  <text class="cls-1" transform="translate(38.73 506.16) rotate(-111.47)"><tspan x="0" y="0"> </tspan></text>
  <text class="cls-1" transform="translate(35.55 498.07) rotate(-110.07)"><tspan x="0" y="0">N</tspan></text>
  <text class="cls-1" transform="translate(32.57 489.9) rotate(-108.67)"><tspan x="0" y="0">a</tspan></text>
  <text class="cls-1" transform="translate(29.79 481.67) rotate(-107.27)"><tspan x="0" y="0">v</tspan></text>
  <text class="cls-1" transform="translate(27.21 473.36) rotate(-105.87)"><tspan x="0" y="0">i</tspan></text>
  <text class="cls-1" transform="translate(24.83 465.01) rotate(-104.47)"><tspan x="0" y="0">g</tspan></text>
  <text class="cls-1" transform="translate(22.65 456.58) rotate(-103.07)"><tspan x="0" y="0">a</tspan></text>
  <text class="cls-1" transform="translate(20.69 448.13) rotate(-101.67)"><tspan x="0" y="0">t</tspan></text>
  <text class="cls-1" transform="translate(18.93 439.6) rotate(-100.27)"><tspan x="0" y="0">i</tspan></text>
  <text class="cls-1" transform="translate(17.38 431.06) rotate(-98.88)"><tspan x="0" y="0">o</tspan></text>
  <text class="cls-1" transform="translate(16.04 422.48) rotate(-97.49)"><tspan x="0" y="0">n</tspan></text>
  <text class="cls-1" transform="translate(14.9 413.85) rotate(-96.1)"><tspan x="0" y="0">&quot;</tspan></text>
  <text class="cls-1" transform="translate(13.98 405.23) rotate(-94.72)"><tspan x="0" y="0"> </tspan></text>
  <text class="cls-1" transform="translate(13.26 396.54) rotate(-93.34)"><tspan x="0" y="0">c</tspan></text>
  <text class="cls-1" transform="translate(12.75 387.87) rotate(-91.97)"><tspan x="0" y="0">l</tspan></text>
  <text class="cls-1" transform="translate(12.48 379.18) rotate(-90.93)"><tspan x="0" y="0">a</tspan></text>
  <text class="cls-1" transform="translate(12.35 370.49) rotate(-89.07)"><tspan x="0" y="0">s</tspan></text>
  <text class="cls-1" transform="translate(12.48 361.81) rotate(-87.88)"><tspan x="0" y="0">s</tspan></text>
  <text class="cls-1" transform="translate(12.8 353.11) rotate(-86.51)"><tspan x="0" y="0">=</tspan></text>
  <text class="cls-1" transform="translate(13.33 344.44) rotate(-85.13)"><tspan x="0" y="0">&quot;</tspan></text>
  <text class="cls-1" transform="translate(14.06 335.77) rotate(-83.74)"><tspan x="0" y="0">n</tspan></text>
  <text class="cls-1" transform="translate(15.01 327.16) rotate(-82.36)"><tspan x="0" y="0">a</tspan></text>
  <text class="cls-1" transform="translate(16.16 318.53) rotate(-80.97)"><tspan x="0" y="0">v</tspan></text>
  <text class="cls-1" transform="translate(17.53 309.94) rotate(-79.57)"><tspan x="0" y="0">-</tspan></text>
  <text class="cls-1" transform="translate(19.1 301.39) rotate(-78.18)"><tspan x="0" y="0">c</tspan></text>
  <text class="cls-1" transform="translate(20.88 292.9) rotate(-76.78)"><tspan x="0" y="0">o</tspan></text>
  <text class="cls-1" transform="translate(22.87 284.42) rotate(-75.38)"><tspan x="0" y="0">n</tspan></text>
  <text class="cls-1" transform="translate(25.06 276.02) rotate(-73.98)"><tspan x="0" y="0">t</tspan></text>
  <text class="cls-1" transform="translate(27.46 267.67) rotate(-72.58)"><tspan x="0" y="0">a</tspan></text>
  <text class="cls-1" transform="translate(30.06 259.37) rotate(-71.18)"><tspan x="0" y="0">i</tspan></text>
  <text class="cls-1" transform="translate(32.86 251.15) rotate(-69.79)"><tspan x="0" y="0">n</tspan></text>
  <text class="cls-1" transform="translate(35.86 242.99) rotate(-68.39)"><tspan x="0" y="0">e</tspan></text>
  <text class="cls-1" transform="translate(39.07 234.9) rotate(-66.99)"><tspan x="0" y="0">r</tspan></text>
  <text class="cls-1" transform="translate(42.46 226.9) rotate(-65.59)"><tspan x="0" y="0">&quot;</tspan></text>
  <text class="cls-1" transform="translate(46.05 219) rotate(-64.2)"><tspan x="0" y="0">&gt;</tspan></text>
  <text class="cls-1" transform="translate(49.83 211.18) rotate(-62.8)"><tspan x="0" y="0">&lt;</tspan></text>
  <text class="cls-1" transform="translate(53.81 203.43) rotate(-61.41)"><tspan x="0" y="0">/</tspan></text>
  <text class="cls-1" transform="translate(57.97 195.8) rotate(-60.02)"><tspan x="0" y="0">n</tspan></text>
  <text class="cls-1" transform="translate(62.32 188.26) rotate(-58.62)"><tspan x="0" y="0">a</tspan></text>
  <text class="cls-1" transform="translate(66.83 180.85) rotate(-57.24)"><tspan x="0" y="0">v</tspan></text>
  <text class="cls-1" transform="translate(71.54 173.53) rotate(-55.85)"><tspan x="0" y="0">&gt;</tspan></text>
  <text class="cls-1" transform="translate(76.42 166.35) rotate(-54.47)"><tspan x="0" y="0"> </tspan></text>
  <text class="cls-1" transform="translate(81.47 159.26) rotate(-53.08)"><tspan x="0" y="0">&lt;</tspan></text>
  <text class="cls-1" transform="translate(86.69 152.32) rotate(-51.7)"><tspan x="0" y="0">/</tspan></text>
  <text class="cls-1" transform="translate(92.07 145.51) rotate(-50.32)"><tspan x="0" y="0">h</tspan></text>
  <text class="cls-1" transform="translate(97.63 138.81) rotate(-48.93)"><tspan x="0" y="0">e</tspan></text>
  <text class="cls-1" transform="translate(103.33 132.27) rotate(-47.56)"><tspan x="0" y="0">a</tspan></text>
  <text class="cls-1" transform="translate(109.2 125.84) rotate(-46.17)"><tspan x="0" y="0">d</tspan></text>
  <text class="cls-1" transform="translate(115.2 119.59) rotate(-44.8)"><tspan x="0" y="0">e</tspan></text>
  <text class="cls-1" transform="translate(121.38 113.46) rotate(-43.42)"><tspan x="0" y="0">r</tspan></text>
  <text class="cls-1" transform="translate(127.7 107.47) rotate(-42.03)"><tspan x="0" y="0">&gt;</tspan></text>
  <text class="cls-1" transform="translate(134.14 101.66) rotate(-40.65)"><tspan x="0" y="0">&lt;</tspan></text>
  <text class="cls-1" transform="translate(140.75 95.99) rotate(-39.27)"><tspan x="0" y="0">m</tspan></text>
  <text class="cls-1" transform="translate(147.47 90.5) rotate(-37.89)"><tspan x="0" y="0">a</tspan></text>
  <text class="cls-1" transform="translate(154.32 85.16) rotate(-36.51)"><tspan x="0" y="0">i</tspan></text>
  <text class="cls-1" transform="translate(161.31 79.99) rotate(-35.12)"><tspan x="0" y="0">n</tspan></text>
  <text class="cls-1" transform="translate(168.42 74.98) rotate(-33.74)"><tspan x="0" y="0">&gt;</tspan></text>
  <text class="cls-1" transform="translate(175.66 70.15) rotate(-32.35)"><tspan x="0" y="0">&lt;</tspan></text>
  <text class="cls-1" transform="translate(183 65.5) rotate(-30.96)"><tspan x="0" y="0">s</tspan></text>
  <text class="cls-1" transform="translate(190.45 61.03) rotate(-29.57)"><tspan x="0" y="0">e</tspan></text>
  <text class="cls-1" transform="translate(198.02 56.74) rotate(-28.18)"><tspan x="0" y="0">c</tspan></text>
  <text class="cls-1" transform="translate(205.67 52.64) rotate(-26.78)"><tspan x="0" y="0">t</tspan></text>
  <text class="cls-1" transform="translate(213.44 48.72) rotate(-25.39)"><tspan x="0" y="0">i</tspan></text>
  <text class="cls-1" transform="translate(221.28 44.99) rotate(-24)"><tspan x="0" y="0">o</tspan></text>
  <text class="cls-1" transform="translate(229.22 41.46) rotate(-22.6)"><tspan x="0" y="0">n</tspan></text>
  <text class="cls-1" transform="translate(237.23 38.12) rotate(-21.2)"><tspan x="0" y="0">&gt;</tspan></text>
  <text class="cls-1" transform="translate(245.34 34.98) rotate(-19.8)"><tspan x="0" y="0">&lt;</tspan></text>
  <text class="cls-1" transform="translate(253.51 32.03) rotate(-18.4)"><tspan x="0" y="0">h</tspan></text>
  <text class="cls-1" transform="translate(261.77 29.28) rotate(-17)"><tspan x="0" y="0">1</tspan></text>
  <text class="cls-1" transform="translate(270.09 26.74) rotate(-15.6)"><tspan x="0" y="0"> </tspan></text>
  <text class="cls-1" transform="translate(278.46 24.4) rotate(-14.2)"><tspan x="0" y="0">c</tspan></text>
  <text class="cls-1" transform="translate(286.88 22.27) rotate(-12.8)"><tspan x="0" y="0">l</tspan></text>
  <text class="cls-1" transform="translate(295.34 20.35) rotate(-11.41)"><tspan x="0" y="0">a</tspan></text>
  <text class="cls-1" transform="translate(303.88 18.62) rotate(-10.01)"><tspan x="0" y="0">s</tspan></text>
  <text class="cls-1" transform="translate(312.42 17.12) rotate(-8.62)"><tspan x="0" y="0">s</tspan></text>
  <text class="cls-1" transform="translate(321.03 15.81) rotate(-7.23)"><tspan x="0" y="0">=</tspan></text>
  <text class="cls-1" transform="translate(329.64 14.72) rotate(-5.84)"><tspan x="0" y="0">&quot;</tspan></text>
  <text class="cls-1" transform="translate(338.29 13.83) rotate(-4.46)"><tspan x="0" y="0">v</tspan></text>
  <text class="cls-1" transform="translate(346.97 13.15) rotate(-3.08)"><tspan x="0" y="0">i</tspan></text>
  <text class="cls-1" transform="translate(355.65 12.69) rotate(-1.71)"><tspan x="0" y="0">s</tspan></text>
  <text class="cls-1" transform="translate(364.35 12.47) rotate(-.93)"><tspan x="0" y="0">u</tspan></text>
  <text class="cls-1" transform="translate(373.02 12.37) rotate(1.01)"><tspan x="0" y="0">a</tspan></text>
  <text class="cls-1" transform="translate(381.71 12.53) rotate(2.38)"><tspan x="0" y="0">l</tspan></text>
  <text class="cls-1" transform="translate(390.39 12.89) rotate(3.75)"><tspan x="0" y="0">l</tspan></text>
  <text class="cls-1" transform="translate(399.06 13.45) rotate(5.13)"><tspan x="0" y="0">y</tspan></text>
  <text class="cls-1" transform="translate(407.72 14.23) rotate(6.52)"><tspan x="0" y="0">-</tspan></text>
  <text class="cls-1" transform="translate(416.36 15.22) rotate(7.9)"><tspan x="0" y="0">h</tspan></text>
  <text class="cls-1" transform="translate(424.96 16.41) rotate(9.3)"><tspan x="0" y="0">i</tspan></text>
  <text class="cls-1" transform="translate(433.54 17.81) rotate(10.69)"><tspan x="0" y="0">d</tspan></text>
  <text class="cls-1" transform="translate(442.09 19.43) rotate(12.09)"><tspan x="0" y="0">d</tspan></text>
  <text class="cls-1" transform="translate(450.59 21.25) rotate(13.48)"><tspan x="0" y="0">e</tspan></text>
  <text class="cls-1" transform="translate(459.02 23.27) rotate(14.88)"><tspan x="0" y="0">n</tspan></text>
  <text class="cls-1" transform="translate(467.44 25.5) rotate(16.28)"><tspan x="0" y="0">&quot;</tspan></text>
  <text class="cls-1" transform="translate(475.78 27.94) rotate(17.68)"><tspan x="0" y="0">&gt;</tspan></text>
  <text class="cls-1" transform="translate(484.07 30.58) rotate(19.08)"><tspan x="0" y="0">G</tspan></text>
  <text class="cls-1" transform="translate(492.26 33.42) rotate(20.48)"><tspan x="0" y="0">L</tspan></text>
  <text class="cls-1" transform="translate(500.4 36.45) rotate(21.88)"><tspan x="0" y="0">A</tspan></text>
  <text class="cls-1" transform="translate(508.48 39.7) rotate(23.28)"><tspan x="0" y="0">S</tspan></text>
  <text class="cls-1" transform="translate(516.46 43.13) rotate(24.67)"><tspan x="0" y="0">S</tspan></text>
  <text class="cls-1" transform="translate(524.37 46.76) rotate(26.07)"><tspan x="0" y="0"> </tspan></text>
  <text class="cls-1" transform="translate(532.18 50.58) rotate(27.46)"><tspan x="0" y="0">E</tspan></text>
  <text class="cls-1" transform="translate(539.87 54.58) rotate(28.85)"><tspan x="0" y="0">P</tspan></text>
  <text class="cls-1" transform="translate(547.49 58.78) rotate(30.25)"><tspan x="0" y="0">&lt;</tspan></text>
  <text class="cls-1" transform="translate(555 63.15) rotate(31.63)"><tspan x="0" y="0">/</tspan></text>
  <text class="cls-1" transform="translate(562.41 67.72) rotate(33.03)"><tspan x="0" y="0">h</tspan></text>
  <text class="cls-1" transform="translate(569.68 72.44) rotate(34.41)"><tspan x="0" y="0">1</tspan></text>
  <text class="cls-1" transform="translate(576.85 77.36) rotate(35.79)"><tspan x="0" y="0">&gt;</tspan></text>
  <text class="cls-1" transform="translate(583.9 82.44) rotate(37.18)"><tspan x="0" y="0">&lt;</tspan></text>
  <text class="cls-1" transform="translate(590.85 87.7) rotate(38.56)"><tspan x="0" y="0">h</tspan></text>
  <text class="cls-1" transform="translate(597.63 93.11) rotate(39.94)"><tspan x="0" y="0">2</tspan></text>
  <text class="cls-1" transform="translate(604.31 98.7) rotate(41.33)"><tspan x="0" y="0"> </tspan></text>
  <text class="cls-1" transform="translate(610.82 104.43) rotate(42.71)"><tspan x="0" y="0">c</tspan></text>
  <text class="cls-1" transform="translate(617.22 110.33) rotate(44.09)"><tspan x="0" y="0">l</tspan></text>
  <text class="cls-1" transform="translate(623.45 116.37) rotate(45.46)"><tspan x="0" y="0">a</tspan></text>
  <text class="cls-1" transform="translate(629.55 122.57) rotate(46.85)"><tspan x="0" y="0">s</tspan></text>
  <text class="cls-1" transform="translate(635.51 128.92) rotate(48.23)"><tspan x="0" y="0">s</tspan></text>
  <text class="cls-1" transform="translate(641.29 135.39) rotate(49.61)"><tspan x="0" y="0">=</tspan></text>
  <text class="cls-1" transform="translate(646.93 142.02) rotate(50.99)"><tspan x="0" y="0">&quot;</tspan></text>
  <text class="cls-1" transform="translate(652.4 148.77) rotate(52.37)"><tspan x="0" y="0">v</tspan></text>
  <text class="cls-1" transform="translate(657.7 155.65) rotate(53.76)"><tspan x="0" y="0">i</tspan></text>
  <text class="cls-1" transform="translate(662.84 162.66) rotate(55.14)"><tspan x="0" y="0">s</tspan></text>
  <text class="cls-1" transform="translate(667.81 169.79) rotate(56.53)"><tspan x="0" y="0">u</tspan></text>
  <text class="cls-1" transform="translate(672.6 177.03) rotate(57.91)"><tspan x="0" y="0">a</tspan></text>
  <text class="cls-1" transform="translate(677.22 184.4) rotate(59.3)"><tspan x="0" y="0">l</tspan></text>
  <text class="cls-1" transform="translate(681.65 191.86) rotate(60.69)"><tspan x="0" y="0">l</tspan></text>
  <text class="cls-1" transform="translate(685.91 199.45) rotate(62.08)"><tspan x="0" y="0">y</tspan></text>
  <text class="cls-1" transform="translate(689.98 207.12) rotate(63.48)"><tspan x="0" y="0">-</tspan></text>
  <text class="cls-1" transform="translate(693.86 214.91) rotate(64.87)"><tspan x="0" y="0">h</tspan></text>
  <text class="cls-1" transform="translate(697.55 222.77) rotate(66.27)"><tspan x="0" y="0">i</tspan></text>
  <text class="cls-1" transform="translate(701.05 230.73) rotate(67.67)"><tspan x="0" y="0">d</tspan></text>
  <text class="cls-1" transform="translate(704.35 238.76) rotate(69.06)"><tspan x="0" y="0">d</tspan></text>
  <text class="cls-1" transform="translate(707.46 246.89) rotate(70.46)"><tspan x="0" y="0">e</tspan></text>
  <text class="cls-1" transform="translate(710.37 255.08) rotate(71.86)"><tspan x="0" y="0">n</tspan></text>
  <text class="cls-1" transform="translate(713.07 263.32) rotate(73.26)"><tspan x="0" y="0">&quot;</tspan></text>
  <text class="cls-1" transform="translate(715.58 271.66) rotate(74.66)"><tspan x="0" y="0">&gt;</tspan></text>
  <text class="cls-1" transform="translate(717.88 280.04) rotate(76.06)"><tspan x="0" y="0">S</tspan></text>
  <text class="cls-1" transform="translate(719.97 288.48) rotate(77.46)"><tspan x="0" y="0">L</tspan></text>
  <text class="cls-1" transform="translate(721.86 296.95) rotate(78.86)"><tspan x="0" y="0">E</tspan></text>
  <text class="cls-1" transform="translate(723.54 305.5) rotate(80.25)"><tspan x="0" y="0">E</tspan></text>
  <text class="cls-1" transform="translate(725.01 314.06) rotate(81.64)"><tspan x="0" y="0">P</tspan></text>
  <text class="cls-1" transform="translate(726.28 322.65) rotate(83.03)"><tspan x="0" y="0">H</tspan></text>
  <text class="cls-1" transform="translate(727.33 331.28) rotate(84.42)"><tspan x="0" y="0">A</tspan></text>
  <text class="cls-1" transform="translate(728.18 339.93) rotate(85.8)"><tspan x="0" y="0">W</tspan></text>
  <text class="cls-1" transform="translate(728.81 348.6) rotate(87.17)"><tspan x="0" y="0">K</tspan></text>
  <text class="cls-1" transform="translate(729.24 357.27) rotate(88.54)"><tspan x="0" y="0">&lt;</tspan></text>
  <text class="cls-1" transform="translate(729.4 365.98) rotate(89.07)"><tspan x="0" y="0">/</tspan></text>
  <text class="cls-1" transform="translate(729.48 374.66) rotate(91.27)"><tspan x="0" y="0">h</tspan></text>
  <text class="cls-1" transform="translate(729.29 383.37) rotate(92.64)"><tspan x="0" y="0">2</tspan></text>
  <text class="cls-1" transform="translate(728.89 392.02) rotate(94.01)"><tspan x="0" y="0">&gt;</tspan></text>
  <text class="cls-1" transform="translate(728.28 400.69) rotate(95.39)"><tspan x="0" y="0">&lt;</tspan></text>
  <text class="cls-1" transform="translate(727.47 409.34) rotate(96.78)"><tspan x="0" y="0">d</tspan></text>
  <text class="cls-1" transform="translate(726.44 418) rotate(98.17)"><tspan x="0" y="0">i</tspan></text>
  <text class="cls-1" transform="translate(725.2 426.6) rotate(99.56)"><tspan x="0" y="0">v</tspan></text>
  <text class="cls-1" transform="translate(723.76 435.17) rotate(100.95)"><tspan x="0" y="0"> </tspan></text>
  <text class="cls-1" transform="translate(722.11 443.7) rotate(102.35)"><tspan x="0" y="0">c</tspan></text>
  <text class="cls-1" transform="translate(720.25 452.19) rotate(103.75)"><tspan x="0" y="0">l</tspan></text>
  <text class="cls-1" transform="translate(718.19 460.64) rotate(105.15)"><tspan x="0" y="0">a</tspan></text>
  <text class="cls-1" transform="translate(715.92 469.01) rotate(106.54)"><tspan x="0" y="0">s</tspan></text>
  <text class="cls-1" transform="translate(713.44 477.36) rotate(107.95)"><tspan x="0" y="0">s</tspan></text>
  <text class="cls-1" transform="translate(710.77 485.62) rotate(109.35)"><tspan x="0" y="0">=</tspan></text>
  <text class="cls-1" transform="translate(707.89 493.81) rotate(110.74)"><tspan x="0" y="0">&quot;</tspan></text>
  <text class="cls-1" transform="translate(704.82 501.94) rotate(112.14)"><tspan x="0" y="0">g</tspan></text>
  <text class="cls-1" transform="translate(701.54 509.99) rotate(113.54)"><tspan x="0" y="0">-</tspan></text>
  <text class="cls-1" transform="translate(698.07 517.96) rotate(114.94)"><tspan x="0" y="0">d</tspan></text>
  <text class="cls-1" transform="translate(694.4 525.85) rotate(116.33)"><tspan x="0" y="0">-</tspan></text>
  <text class="cls-1" transform="translate(690.55 533.63) rotate(117.72)"><tspan x="0" y="0">m</tspan></text>
  <text class="cls-1" transform="translate(686.5 541.34) rotate(119.12)"><tspan x="0" y="0">a</tspan></text>
  <text class="cls-1" transform="translate(682.28 548.92) rotate(120.51)"><tspan x="0" y="0">i</tspan></text>
  <text class="cls-1" transform="translate(677.86 556.42) rotate(121.9)"><tspan x="0" y="0">n</tspan></text>
  <text class="cls-1" transform="translate(673.28 563.78) rotate(123.28)"><tspan x="0" y="0">-</tspan></text>
  <text class="cls-1" transform="translate(668.5 571.06) rotate(124.67)"><tspan x="0" y="0">c</tspan></text>
  <text class="cls-1" transform="translate(663.56 578.21) rotate(126.06)"><tspan x="0" y="0">o</tspan></text>
  <text class="cls-1" transform="translate(658.44 585.23) rotate(127.44)"><tspan x="0" y="0">n</tspan></text>
  <text class="cls-1" transform="translate(653.17 592.12) rotate(128.82)"><tspan x="0" y="0">t</tspan></text>
  <text class="cls-1" transform="translate(647.71 598.91) rotate(130.21)"><tspan x="0" y="0">a</tspan></text>
  <text class="cls-1" transform="translate(642.11 605.54) rotate(131.58)"><tspan x="0" y="0">i</tspan></text>
  <text class="cls-1" transform="translate(636.33 612.05) rotate(132.97)"><tspan x="0" y="0">n</tspan></text>
  <text class="cls-1" transform="translate(630.42 618.4) rotate(134.34)"><tspan x="0" y="0">e</tspan></text>
  <text class="cls-1" transform="translate(624.34 624.62) rotate(135.73)"><tspan x="0" y="0">r</tspan></text>
  <text class="cls-1" transform="translate(618.11 630.7) rotate(137.11)"><tspan x="0" y="0">-</tspan></text>
  <text class="cls-1" transform="translate(611.75 636.6) rotate(138.49)"><tspan x="0" y="0">s</tspan></text>
  <text class="cls-1" transform="translate(605.23 642.37) rotate(139.87)"><tspan x="0" y="0">u</tspan></text>
  <text class="cls-1" transform="translate(598.6 647.97) rotate(141.25)"><tspan x="0" y="0">b</tspan></text>
  <text class="cls-1" transform="translate(591.83 653.4) rotate(142.63)"><tspan x="0" y="0">&quot;</tspan></text>
  <text class="cls-1" transform="translate(584.9 658.69) rotate(144.02)"><tspan x="0" y="0">&gt;</tspan></text>
  <text class="cls-1" transform="translate(577.86 663.8) rotate(145.4)"><tspan x="0" y="0">&lt;</tspan></text>
  <text class="cls-1" transform="translate(570.73 668.72) rotate(146.79)"><tspan x="0" y="0">b</tspan></text>
  <text class="cls-1" transform="translate(563.44 673.5) rotate(148.18)"><tspan x="0" y="0">u</tspan></text>
  <text class="cls-1" transform="translate(556.06 678.08) rotate(149.56)"><tspan x="0" y="0">t</tspan></text>
  <text class="cls-1" transform="translate(548.57 682.48) rotate(150.96)"><tspan x="0" y="0">t</tspan></text>
  <text class="cls-1" transform="translate(540.98 686.69) rotate(152.35)"><tspan x="0" y="0">o</tspan></text>
  <text class="cls-1" transform="translate(533.29 690.73) rotate(153.74)"><tspan x="0" y="0">n</tspan></text>
  <text class="cls-1" transform="translate(525.49 694.58) rotate(155.14)"><tspan x="0" y="0"> </tspan></text>
  <text class="cls-1" transform="translate(517.61 698.23) rotate(156.53)"><tspan x="0" y="0">a</tspan></text>
  <text class="cls-1" transform="translate(509.63 701.69) rotate(157.93)"><tspan x="0" y="0">r</tspan></text>
  <text class="cls-1" transform="translate(501.58 704.96) rotate(159.33)"><tspan x="0" y="0">i</tspan></text>
  <text class="cls-1" transform="translate(493.43 708.03) rotate(160.73)"><tspan x="0" y="0">a</tspan></text>
  <text class="cls-1" transform="translate(485.24 710.9) rotate(162.13)"><tspan x="0" y="0">-</tspan></text>
  <text class="cls-1" transform="translate(476.96 713.57) rotate(163.53)"><tspan x="0" y="0">l</tspan></text>
  <text class="cls-1" transform="translate(468.64 716.03) rotate(164.92)"><tspan x="0" y="0">a</tspan></text>
  <text class="cls-1" transform="translate(460.24 718.29) rotate(166.33)"><tspan x="0" y="0">b</tspan></text>
  <text class="cls-1" transform="translate(451.8 720.35) rotate(167.72)"><tspan x="0" y="0">e</tspan></text>
  <text class="cls-1" transform="translate(443.31 722.2) rotate(169.12)"><tspan x="0" y="0">l</tspan></text>
  <text class="cls-1" transform="translate(434.77 723.84) rotate(170.51)"><tspan x="0" y="0">=</tspan></text>
  <text class="cls-1" transform="translate(426.21 725.27) rotate(171.9)"><tspan x="0" y="0">&quot;</tspan></text>
  <text class="cls-1" transform="translate(417.61 726.49) rotate(173.29)"><tspan x="0" y="0">G</tspan></text>
  <text class="cls-1" transform="translate(408.98 727.51) rotate(174.68)"><tspan x="0" y="0">o</tspan></text>
  <text class="cls-1" transform="translate(400.32 728.32) rotate(176.06)"><tspan x="0" y="0"> </tspan></text>
  <text class="cls-1" transform="translate(391.64 728.92) rotate(177.43)"><tspan x="0" y="0">b</tspan></text>
  <text class="cls-1" transform="translate(382.95 729.31) rotate(178.8)"><tspan x="0" y="0">a</tspan></text>
  <text class="cls-1" transform="translate(374.29 729.55) rotate(-179.07)"><tspan x="0" y="0">c</tspan></text>
  <text class="cls-1" transform="translate(365.58 729.46) rotate(-178.48)"><tspan x="0" y="0">k</tspan></text>
  <text class="cls-1" transform="translate(356.89 729.23) rotate(-177.1)"><tspan x="0" y="0"> </tspan></text>
</svg>