<?xml version="1.0" encoding="UTF-8"?>
<svg id="Layer_1" xmlns="http://www.w3.org/2000/svg" viewBox="0 0 594.31 594.31">
  <defs>
    <style>
      .cls-1 {
        fill: #6a9953;
        font-family: PTMono-Bold, 'PT Mono';
        font-size: 11.43px;
        font-weight: 700;
      }
    </style>
  </defs>
  <text class="cls-1" transform="translate(263.16 582.63) rotate(-172.6)"><tspan x="0" y="0"> </tspan></text>
  <text class="cls-1" transform="translate(256.41 581.75) rotate(-171.24)"><tspan x="0" y="0">&lt;</tspan></text>
  <text class="cls-1" transform="translate(249.68 580.72) rotate(-169.88)"><tspan x="0" y="0">h</tspan></text>
  <text class="cls-1" transform="translate(242.97 579.52) rotate(-168.51)"><tspan x="0" y="0">e</tspan></text>
  <text class="cls-1" transform="translate(236.29 578.16) rotate(-167.15)"><tspan x="0" y="0">a</tspan></text>
  <text class="cls-1" transform="translate(229.67 576.65) rotate(-165.78)"><tspan x="0" y="0">d</tspan></text>
  <text class="cls-1" transform="translate(223.05 574.98) rotate(-164.41)"><tspan x="0" y="0">e</tspan></text>
  <text class="cls-1" transform="translate(216.49 573.15) rotate(-163.04)"><tspan x="0" y="0">r</tspan></text>
  <text class="cls-1" transform="translate(209.97 571.16) rotate(-161.68)"><tspan x="0" y="0">&gt;</tspan></text>
  <text class="cls-1" transform="translate(203.52 569.02) rotate(-160.31)"><tspan x="0" y="0">&lt;</tspan></text>
  <text class="cls-1" transform="translate(197.1 566.73) rotate(-158.94)"><tspan x="0" y="0">n</tspan></text>
  <text class="cls-1" transform="translate(190.76 564.29) rotate(-157.58)"><tspan x="0" y="0">a</tspan></text>
  <text class="cls-1" transform="translate(184.44 561.68) rotate(-156.21)"><tspan x="0" y="0">v</tspan></text>
  <text class="cls-1" transform="translate(178.23 558.94) rotate(-154.85)"><tspan x="0" y="0"> </tspan></text>
  <text class="cls-1" transform="translate(172.06 556.05) rotate(-153.48)"><tspan x="0" y="0">i</tspan></text>
  <text class="cls-1" transform="translate(165.95 553) rotate(-152.12)"><tspan x="0" y="0">d</tspan></text>
  <text class="cls-1" transform="translate(159.95 549.83) rotate(-150.76)"><tspan x="0" y="0">=</tspan></text>
  <text class="cls-1" transform="translate(154.01 546.5) rotate(-149.4)"><tspan x="0" y="0">&quot;</tspan></text>
  <text class="cls-1" transform="translate(148.13 543.03) rotate(-148.04)"><tspan x="0" y="0">n</tspan></text>
  <text class="cls-1" transform="translate(142.37 539.43) rotate(-146.69)"><tspan x="0" y="0">a</tspan></text>
  <text class="cls-1" transform="translate(136.68 535.69) rotate(-145.33)"><tspan x="0" y="0">v</tspan></text>
  <text class="cls-1" transform="translate(131.08 531.82) rotate(-143.98)"><tspan x="0" y="0">b</tspan></text>
  <text class="cls-1" transform="translate(125.55 527.8) rotate(-142.62)"><tspan x="0" y="0">a</tspan></text>
  <text class="cls-1" transform="translate(120.15 523.68) rotate(-141.28)"><tspan x="0" y="0">r</tspan></text>
  <text class="cls-1" transform="translate(114.83 519.41) rotate(-139.92)"><tspan x="0" y="0">&quot;</tspan></text>
  <text class="cls-1" transform="translate(109.63 515.04) rotate(-138.58)"><tspan x="0" y="0"> </tspan></text>
  <text class="cls-1" transform="translate(104.52 510.53) rotate(-137.23)"><tspan x="0" y="0">a</tspan></text>
  <text class="cls-1" transform="translate(99.51 505.9) rotate(-135.88)"><tspan x="0" y="0">r</tspan></text>
  <text class="cls-1" transform="translate(94.62 501.15) rotate(-134.52)"><tspan x="0" y="0">i</tspan></text>
  <text class="cls-1" transform="translate(89.84 496.29) rotate(-133.17)"><tspan x="0" y="0">a</tspan></text>
  <text class="cls-1" transform="translate(85.19 491.34) rotate(-131.83)"><tspan x="0" y="0">-</tspan></text>
  <text class="cls-1" transform="translate(80.64 486.26) rotate(-130.48)"><tspan x="0" y="0">l</tspan></text>
  <text class="cls-1" transform="translate(76.22 481.07) rotate(-129.13)"><tspan x="0" y="0">a</tspan></text>
  <text class="cls-1" transform="translate(71.93 475.8) rotate(-127.78)"><tspan x="0" y="0">b</tspan></text>
  <text class="cls-1" transform="translate(67.76 470.42) rotate(-126.43)"><tspan x="0" y="0">e</tspan></text>
  <text class="cls-1" transform="translate(63.72 464.95) rotate(-125.07)"><tspan x="0" y="0">l</tspan></text>
  <text class="cls-1" transform="translate(59.8 459.37) rotate(-123.72)"><tspan x="0" y="0">=</tspan></text>
  <text class="cls-1" transform="translate(56.02 453.7) rotate(-122.36)"><tspan x="0" y="0">&quot;</tspan></text>
  <text class="cls-1" transform="translate(52.36 447.94) rotate(-121)"><tspan x="0" y="0">P</tspan></text>
  <text class="cls-1" transform="translate(48.86 442.11) rotate(-119.65)"><tspan x="0" y="0">r</tspan></text>
  <text class="cls-1" transform="translate(45.49 436.19) rotate(-118.28)"><tspan x="0" y="0">i</tspan></text>
  <text class="cls-1" transform="translate(42.27 430.2) rotate(-116.93)"><tspan x="0" y="0">m</tspan></text>
  <text class="cls-1" transform="translate(39.18 424.13) rotate(-115.56)"><tspan x="0" y="0">a</tspan></text>
  <text class="cls-1" transform="translate(36.24 417.98) rotate(-114.2)"><tspan x="0" y="0">r</tspan></text>
  <text class="cls-1" transform="translate(33.45 411.77) rotate(-112.83)"><tspan x="0" y="0">y</tspan></text>
  <text class="cls-1" transform="translate(30.81 405.49) rotate(-111.47)"><tspan x="0" y="0"> </tspan></text>
  <text class="cls-1" transform="translate(28.31 399.16) rotate(-110.1)"><tspan x="0" y="0">N</tspan></text>
  <text class="cls-1" transform="translate(25.97 392.75) rotate(-108.73)"><tspan x="0" y="0">a</tspan></text>
  <text class="cls-1" transform="translate(23.78 386.3) rotate(-107.36)"><tspan x="0" y="0">v</tspan></text>
  <text class="cls-1" transform="translate(21.75 379.81) rotate(-105.99)"><tspan x="0" y="0">i</tspan></text>
  <text class="cls-1" transform="translate(19.87 373.25) rotate(-104.62)"><tspan x="0" y="0">g</tspan></text>
  <text class="cls-1" transform="translate(18.16 366.69) rotate(-103.26)"><tspan x="0" y="0">a</tspan></text>
  <text class="cls-1" transform="translate(16.6 360.06) rotate(-101.9)"><tspan x="0" y="0">t</tspan></text>
  <text class="cls-1" transform="translate(15.19 353.4) rotate(-100.53)"><tspan x="0" y="0">i</tspan></text>
  <text class="cls-1" transform="translate(13.94 346.68) rotate(-99.17)"><tspan x="0" y="0">o</tspan></text>
  <text class="cls-1" transform="translate(12.86 339.97) rotate(-97.81)"><tspan x="0" y="0">n</tspan></text>
  <text class="cls-1" transform="translate(11.93 333.23) rotate(-96.45)"><tspan x="0" y="0">&quot;</tspan></text>
  <text class="cls-1" transform="translate(11.17 326.44) rotate(-95.1)"><tspan x="0" y="0"> </tspan></text>
  <text class="cls-1" transform="translate(10.56 319.67) rotate(-93.75)"><tspan x="0" y="0">c</tspan></text>
  <text class="cls-1" transform="translate(10.11 312.87) rotate(-92.41)"><tspan x="0" y="0">l</tspan></text>
  <text class="cls-1" transform="translate(9.83 306.07) rotate(-91.07)"><tspan x="0" y="0">a</tspan></text>
  <text class="cls-1" transform="translate(9.66 299.28) rotate(-89.07)"><tspan x="0" y="0">s</tspan></text>
  <text class="cls-1" transform="translate(9.73 292.44) rotate(-88.41)"><tspan x="0" y="0">s</tspan></text>
  <text class="cls-1" transform="translate(9.92 285.65) rotate(-87.07)"><tspan x="0" y="0">=</tspan></text>
  <text class="cls-1" transform="translate(10.27 278.83) rotate(-85.72)"><tspan x="0" y="0">&quot;</tspan></text>
  <text class="cls-1" transform="translate(10.78 272.03) rotate(-84.37)"><tspan x="0" y="0">n</tspan></text>
  <text class="cls-1" transform="translate(11.44 265.27) rotate(-83.02)"><tspan x="0" y="0">a</tspan></text>
  <text class="cls-1" transform="translate(12.27 258.5) rotate(-81.66)"><tspan x="0" y="0">v</tspan></text>
  <text class="cls-1" transform="translate(13.26 251.76) rotate(-80.3)"><tspan x="0" y="0">-</tspan></text>
  <text class="cls-1" transform="translate(14.4 245.06) rotate(-78.94)"><tspan x="0" y="0">c</tspan></text>
  <text class="cls-1" transform="translate(15.71 238.37) rotate(-77.57)"><tspan x="0" y="0">o</tspan></text>
  <text class="cls-1" transform="translate(17.17 231.72) rotate(-76.21)"><tspan x="0" y="0">n</tspan></text>
  <text class="cls-1" transform="translate(18.79 225.11) rotate(-74.84)"><tspan x="0" y="0">t</tspan></text>
  <text class="cls-1" transform="translate(20.58 218.54) rotate(-73.47)"><tspan x="0" y="0">a</tspan></text>
  <text class="cls-1" transform="translate(22.52 212) rotate(-72.1)"><tspan x="0" y="0">i</tspan></text>
  <text class="cls-1" transform="translate(24.61 205.52) rotate(-70.73)"><tspan x="0" y="0">n</tspan></text>
  <text class="cls-1" transform="translate(26.85 199.09) rotate(-69.37)"><tspan x="0" y="0">e</tspan></text>
  <text class="cls-1" transform="translate(29.25 192.72) rotate(-68)"><tspan x="0" y="0">r</tspan></text>
  <text class="cls-1" transform="translate(31.8 186.41) rotate(-66.63)"><tspan x="0" y="0">&quot;</tspan></text>
  <text class="cls-1" transform="translate(34.5 180.17) rotate(-65.27)"><tspan x="0" y="0">&gt;</tspan></text>
  <text class="cls-1" transform="translate(37.35 173.98) rotate(-63.91)"><tspan x="0" y="0">&lt;</tspan></text>
  <text class="cls-1" transform="translate(40.34 167.87) rotate(-62.55)"><tspan x="0" y="0">/</tspan></text>
  <text class="cls-1" transform="translate(43.48 161.81) rotate(-61.18)"><tspan x="0" y="0">n</tspan></text>
  <text class="cls-1" transform="translate(46.76 155.85) rotate(-59.82)"><tspan x="0" y="0">a</tspan></text>
  <text class="cls-1" transform="translate(50.18 149.97) rotate(-58.47)"><tspan x="0" y="0">v</tspan></text>
  <text class="cls-1" transform="translate(53.75 144.15) rotate(-57.11)"><tspan x="0" y="0">&gt;</tspan></text>
  <text class="cls-1" transform="translate(57.45 138.43) rotate(-55.75)"><tspan x="0" y="0"> </tspan></text>
  <text class="cls-1" transform="translate(61.28 132.8) rotate(-54.4)"><tspan x="0" y="0">&lt;</tspan></text>
  <text class="cls-1" transform="translate(65.24 127.27) rotate(-53.05)"><tspan x="0" y="0">/</tspan></text>
  <text class="cls-1" transform="translate(69.33 121.83) rotate(-51.7)"><tspan x="0" y="0">h</tspan></text>
  <text class="cls-1" transform="translate(73.56 116.48) rotate(-50.35)"><tspan x="0" y="0">e</tspan></text>
  <text class="cls-1" transform="translate(77.91 111.23) rotate(-48.99)"><tspan x="0" y="0">a</tspan></text>
  <text class="cls-1" transform="translate(82.37 106.1) rotate(-47.65)"><tspan x="0" y="0">d</tspan></text>
  <text class="cls-1" transform="translate(86.96 101.06) rotate(-46.3)"><tspan x="0" y="0">e</tspan></text>
  <text class="cls-1" transform="translate(91.67 96.14) rotate(-44.95)"><tspan x="0" y="0">r</tspan></text>
  <text class="cls-1" transform="translate(96.49 91.32) rotate(-43.6)"><tspan x="0" y="0">&gt;</tspan></text>
  <text class="cls-1" transform="translate(101.43 86.62) rotate(-42.25)"><tspan x="0" y="0">&lt;</tspan></text>
  <text class="cls-1" transform="translate(106.45 82.05) rotate(-40.9)"><tspan x="0" y="0">m</tspan></text>
  <text class="cls-1" transform="translate(111.61 77.59) rotate(-39.55)"><tspan x="0" y="0">a</tspan></text>
  <text class="cls-1" transform="translate(116.85 73.26) rotate(-38.2)"><tspan x="0" y="0">i</tspan></text>
  <text class="cls-1" transform="translate(122.21 69.04) rotate(-36.84)"><tspan x="0" y="0">n</tspan></text>
  <text class="cls-1" transform="translate(127.66 64.96) rotate(-35.49)"><tspan x="0" y="0">&gt;</tspan></text>
  <text class="cls-1" transform="translate(133.2 61) rotate(-34.14)"><tspan x="0" y="0">&lt;</tspan></text>
  <text class="cls-1" transform="translate(138.84 57.18) rotate(-32.78)"><tspan x="0" y="0">s</tspan></text>
  <text class="cls-1" transform="translate(144.56 53.5) rotate(-31.43)"><tspan x="0" y="0">e</tspan></text>
  <text class="cls-1" transform="translate(150.38 49.93) rotate(-30.07)"><tspan x="0" y="0">c</tspan></text>
  <text class="cls-1" transform="translate(156.28 46.52) rotate(-28.71)"><tspan x="0" y="0">t</tspan></text>
  <text class="cls-1" transform="translate(162.24 43.26) rotate(-27.35)"><tspan x="0" y="0">i</tspan></text>
  <text class="cls-1" transform="translate(168.28 40.13) rotate(-25.99)"><tspan x="0" y="0">o</tspan></text>
  <text class="cls-1" transform="translate(174.4 37.14) rotate(-24.62)"><tspan x="0" y="0">n</tspan></text>
  <text class="cls-1" transform="translate(180.61 34.3) rotate(-23.26)"><tspan x="0" y="0">&gt;</tspan></text>
  <text class="cls-1" transform="translate(186.85 31.62) rotate(-21.89)"><tspan x="0" y="0">&lt;</tspan></text>
  <text class="cls-1" transform="translate(193.18 29.07) rotate(-20.52)"><tspan x="0" y="0">h</tspan></text>
  <text class="cls-1" transform="translate(199.56 26.68) rotate(-19.15)"><tspan x="0" y="0">1</tspan></text>
  <text class="cls-1" transform="translate(205.99 24.45) rotate(-17.79)"><tspan x="0" y="0"> </tspan></text>
  <text class="cls-1" transform="translate(212.46 22.37) rotate(-16.42)"><tspan x="0" y="0">c</tspan></text>
  <text class="cls-1" transform="translate(219 20.44) rotate(-15.05)"><tspan x="0" y="0">l</tspan></text>
  <text class="cls-1" transform="translate(225.58 18.68) rotate(-13.69)"><tspan x="0" y="0">a</tspan></text>
  <text class="cls-1" transform="translate(232.19 17.07) rotate(-12.32)"><tspan x="0" y="0">s</tspan></text>
  <text class="cls-1" transform="translate(238.85 15.61) rotate(-10.95)"><tspan x="0" y="0">s</tspan></text>
  <text class="cls-1" transform="translate(245.52 14.32) rotate(-9.59)"><tspan x="0" y="0">=</tspan></text>
  <text class="cls-1" transform="translate(252.25 13.18) rotate(-8.23)"><tspan x="0" y="0">&quot;</tspan></text>
  <text class="cls-1" transform="translate(259 12.2) rotate(-6.87)"><tspan x="0" y="0">v</tspan></text>
  <text class="cls-1" transform="translate(265.74 11.39) rotate(-5.52)"><tspan x="0" y="0">i</tspan></text>
  <text class="cls-1" transform="translate(272.53 10.73) rotate(-4.17)"><tspan x="0" y="0">s</tspan></text>
  <text class="cls-1" transform="translate(279.31 10.24) rotate(-2.83)"><tspan x="0" y="0">u</tspan></text>
  <text class="cls-1" transform="translate(286.14 9.9) rotate(-1.49)"><tspan x="0" y="0">a</tspan></text>
  <text class="cls-1" transform="translate(292.94 9.77) rotate(-.93)"><tspan x="0" y="0">l</tspan></text>
  <text class="cls-1" transform="translate(299.76 9.71) rotate(1.18)"><tspan x="0" y="0">l</tspan></text>
  <text class="cls-1" transform="translate(306.57 9.84) rotate(2.52)"><tspan x="0" y="0">y</tspan></text>
  <text class="cls-1" transform="translate(313.37 10.14) rotate(3.86)"><tspan x="0" y="0">-</tspan></text>
  <text class="cls-1" transform="translate(320.15 10.6) rotate(5.21)"><tspan x="0" y="0">h</tspan></text>
  <text class="cls-1" transform="translate(326.93 11.22) rotate(6.56)"><tspan x="0" y="0">i</tspan></text>
  <text class="cls-1" transform="translate(333.71 12) rotate(7.92)"><tspan x="0" y="0">d</tspan></text>
  <text class="cls-1" transform="translate(340.44 12.93) rotate(9.27)"><tspan x="0" y="0">d</tspan></text>
  <text class="cls-1" transform="translate(347.15 14.03) rotate(10.63)"><tspan x="0" y="0">e</tspan></text>
  <text class="cls-1" transform="translate(353.87 15.29) rotate(12)"><tspan x="0" y="0">n</tspan></text>
  <text class="cls-1" transform="translate(360.53 16.7) rotate(13.37)"><tspan x="0" y="0">&quot;</tspan></text>
  <text class="cls-1" transform="translate(367.16 18.28) rotate(14.74)"><tspan x="0" y="0">&gt;</tspan></text>
  <text class="cls-1" transform="translate(373.72 20) rotate(16.1)"><tspan x="0" y="0">G</tspan></text>
  <text class="cls-1" transform="translate(380.29 21.9) rotate(17.47)"><tspan x="0" y="0">L</tspan></text>
  <text class="cls-1" transform="translate(386.78 23.94) rotate(18.84)"><tspan x="0" y="0">A</tspan></text>
  <text class="cls-1" transform="translate(393.21 26.13) rotate(20.2)"><tspan x="0" y="0">S</tspan></text>
  <text class="cls-1" transform="translate(399.62 28.49) rotate(21.58)"><tspan x="0" y="0">S</tspan></text>
  <text class="cls-1" transform="translate(405.94 30.99) rotate(22.94)"><tspan x="0" y="0"> </tspan></text>
  <text class="cls-1" transform="translate(412.23 33.65) rotate(24.31)"><tspan x="0" y="0">E</tspan></text>
  <text class="cls-1" transform="translate(418.41 36.44) rotate(25.67)"><tspan x="0" y="0">P</tspan></text>
  <text class="cls-1" transform="translate(424.55 39.39) rotate(27.03)"><tspan x="0" y="0">&lt;</tspan></text>
  <text class="cls-1" transform="translate(430.63 42.49) rotate(28.39)"><tspan x="0" y="0">/</tspan></text>
  <text class="cls-1" transform="translate(436.62 45.73) rotate(29.75)"><tspan x="0" y="0">h</tspan></text>
  <text class="cls-1" transform="translate(442.53 49.11) rotate(31.11)"><tspan x="0" y="0">1</tspan></text>
  <text class="cls-1" transform="translate(448.37 52.63) rotate(32.47)"><tspan x="0" y="0">&gt;</tspan></text>
  <text class="cls-1" transform="translate(454.1 56.28) rotate(33.82)"><tspan x="0" y="0">&lt;</tspan></text>
  <text class="cls-1" transform="translate(459.76 60.07) rotate(35.18)"><tspan x="0" y="0">h</tspan></text>
  <text class="cls-1" transform="translate(465.34 64) rotate(36.53)"><tspan x="0" y="0">2</tspan></text>
  <text class="cls-1" transform="translate(470.81 68.05) rotate(37.88)"><tspan x="0" y="0"> </tspan></text>
  <text class="cls-1" transform="translate(476.17 72.22) rotate(39.23)"><tspan x="0" y="0">c</tspan></text>
  <text class="cls-1" transform="translate(481.46 76.54) rotate(40.58)"><tspan x="0" y="0">l</tspan></text>
  <text class="cls-1" transform="translate(486.64 80.97) rotate(41.94)"><tspan x="0" y="0">a</tspan></text>
  <text class="cls-1" transform="translate(491.69 85.51) rotate(43.28)"><tspan x="0" y="0">s</tspan></text>
  <text class="cls-1" transform="translate(496.65 90.18) rotate(44.63)"><tspan x="0" y="0">s</tspan></text>
  <text class="cls-1" transform="translate(501.5 94.97) rotate(45.98)"><tspan x="0" y="0">=</tspan></text>
  <text class="cls-1" transform="translate(506.24 99.87) rotate(47.33)"><tspan x="0" y="0">&quot;</tspan></text>
  <text class="cls-1" transform="translate(510.86 104.89) rotate(48.68)"><tspan x="0" y="0">v</tspan></text>
  <text class="cls-1" transform="translate(515.35 109.99) rotate(50.03)"><tspan x="0" y="0">i</tspan></text>
  <text class="cls-1" transform="translate(519.73 115.22) rotate(51.38)"><tspan x="0" y="0">s</tspan></text>
  <text class="cls-1" transform="translate(523.97 120.53) rotate(52.73)"><tspan x="0" y="0">u</tspan></text>
  <text class="cls-1" transform="translate(528.09 125.94) rotate(54.08)"><tspan x="0" y="0">a</tspan></text>
  <text class="cls-1" transform="translate(532.1 131.48) rotate(55.44)"><tspan x="0" y="0">l</tspan></text>
  <text class="cls-1" transform="translate(535.95 137.07) rotate(56.79)"><tspan x="0" y="0">l</tspan></text>
  <text class="cls-1" transform="translate(539.69 142.77) rotate(58.15)"><tspan x="0" y="0">y</tspan></text>
  <text class="cls-1" transform="translate(543.28 148.55) rotate(59.51)"><tspan x="0" y="0">-</tspan></text>
  <text class="cls-1" transform="translate(546.75 154.44) rotate(60.87)"><tspan x="0" y="0">h</tspan></text>
  <text class="cls-1" transform="translate(550.05 160.37) rotate(62.23)"><tspan x="0" y="0">i</tspan></text>
  <text class="cls-1" transform="translate(553.22 166.39) rotate(63.59)"><tspan x="0" y="0">d</tspan></text>
  <text class="cls-1" transform="translate(556.25 172.48) rotate(64.95)"><tspan x="0" y="0">d</tspan></text>
  <text class="cls-1" transform="translate(559.14 178.67) rotate(66.32)"><tspan x="0" y="0">e</tspan></text>
  <text class="cls-1" transform="translate(561.88 184.9) rotate(67.68)"><tspan x="0" y="0">n</tspan></text>
  <text class="cls-1" transform="translate(564.47 191.21) rotate(69.05)"><tspan x="0" y="0">&quot;</tspan></text>
  <text class="cls-1" transform="translate(566.9 197.58) rotate(70.42)"><tspan x="0" y="0">&gt;</tspan></text>
  <text class="cls-1" transform="translate(569.18 203.98) rotate(71.79)"><tspan x="0" y="0">S</tspan></text>
  <text class="cls-1" transform="translate(571.32 210.46) rotate(73.16)"><tspan x="0" y="0">L</tspan></text>
  <text class="cls-1" transform="translate(573.29 216.98) rotate(74.52)"><tspan x="0" y="0">E</tspan></text>
  <text class="cls-1" transform="translate(575.1 223.53) rotate(75.89)"><tspan x="0" y="0">E</tspan></text>
  <text class="cls-1" transform="translate(576.76 230.12) rotate(77.25)"><tspan x="0" y="0">P</tspan></text>
  <text class="cls-1" transform="translate(578.27 236.77) rotate(78.62)"><tspan x="0" y="0">H</tspan></text>
  <text class="cls-1" transform="translate(579.61 243.45) rotate(79.98)"><tspan x="0" y="0">A</tspan></text>
  <text class="cls-1" transform="translate(580.8 250.16) rotate(81.35)"><tspan x="0" y="0">W</tspan></text>
  <text class="cls-1" transform="translate(581.82 256.89) rotate(82.7)"><tspan x="0" y="0">K</tspan></text>
  <text class="cls-1" transform="translate(582.69 263.65) rotate(84.06)"><tspan x="0" y="0">&lt;</tspan></text>
  <text class="cls-1" transform="translate(583.39 270.43) rotate(85.41)"><tspan x="0" y="0">/</tspan></text>
  <text class="cls-1" transform="translate(583.94 277.22) rotate(86.76)"><tspan x="0" y="0">h</tspan></text>
  <text class="cls-1" transform="translate(584.32 284) rotate(88.1)"><tspan x="0" y="0">2</tspan></text>
  <text class="cls-1" transform="translate(584.53 290.83) rotate(89.07)"><tspan x="0" y="0">&gt;</tspan></text>
  <text class="cls-1" transform="translate(584.63 297.62) rotate(90.93)"><tspan x="0" y="0">&lt;</tspan></text>
  <text class="cls-1" transform="translate(584.53 304.44) rotate(92.1)"><tspan x="0" y="0">d</tspan></text>
  <text class="cls-1" transform="translate(584.28 311.25) rotate(93.44)"><tspan x="0" y="0">i</tspan></text>
  <text class="cls-1" transform="translate(583.87 318.05) rotate(94.79)"><tspan x="0" y="0">v</tspan></text>
  <text class="cls-1" transform="translate(583.3 324.83) rotate(96.14)"><tspan x="0" y="0"> </tspan></text>
  <text class="cls-1" transform="translate(582.58 331.6) rotate(97.49)"><tspan x="0" y="0">c</tspan></text>
  <text class="cls-1" transform="translate(581.69 338.35) rotate(98.85)"><tspan x="0" y="0">l</tspan></text>
  <text class="cls-1" transform="translate(580.64 345.08) rotate(100.21)"><tspan x="0" y="0">a</tspan></text>
  <text class="cls-1" transform="translate(579.44 351.78) rotate(101.58)"><tspan x="0" y="0">s</tspan></text>
  <text class="cls-1" transform="translate(578.07 358.46) rotate(102.94)"><tspan x="0" y="0">s</tspan></text>
  <text class="cls-1" transform="translate(576.55 365.08) rotate(104.31)"><tspan x="0" y="0">=</tspan></text>
  <text class="cls-1" transform="translate(574.86 371.69) rotate(105.68)"><tspan x="0" y="0">&quot;</tspan></text>
  <text class="cls-1" transform="translate(573.02 378.25) rotate(107.04)"><tspan x="0" y="0">g</tspan></text>
  <text class="cls-1" transform="translate(571.03 384.76) rotate(108.41)"><tspan x="0" y="0">-</tspan></text>
  <text class="cls-1" transform="translate(568.88 391.21) rotate(109.78)"><tspan x="0" y="0">d</tspan></text>
  <text class="cls-1" transform="translate(566.58 397.62) rotate(111.15)"><tspan x="0" y="0">-</tspan></text>
  <text class="cls-1" transform="translate(564.12 403.98) rotate(112.52)"><tspan x="0" y="0">m</tspan></text>
  <text class="cls-1" transform="translate(561.51 410.27) rotate(113.88)"><tspan x="0" y="0">a</tspan></text>
  <text class="cls-1" transform="translate(558.76 416.48) rotate(115.24)"><tspan x="0" y="0">i</tspan></text>
  <text class="cls-1" transform="translate(555.86 422.64) rotate(116.6)"><tspan x="0" y="0">n</tspan></text>
  <text class="cls-1" transform="translate(552.8 428.75) rotate(117.97)"><tspan x="0" y="0">-</tspan></text>
  <text class="cls-1" transform="translate(549.62 434.74) rotate(119.33)"><tspan x="0" y="0">c</tspan></text>
  <text class="cls-1" transform="translate(546.27 440.7) rotate(120.69)"><tspan x="0" y="0">o</tspan></text>
  <text class="cls-1" transform="translate(542.8 446.55) rotate(122.04)"><tspan x="0" y="0">n</tspan></text>
  <text class="cls-1" transform="translate(539.18 452.33) rotate(123.4)"><tspan x="0" y="0">t</tspan></text>
  <text class="cls-1" transform="translate(535.43 458.02) rotate(124.76)"><tspan x="0" y="0">a</tspan></text>
  <text class="cls-1" transform="translate(531.55 463.61) rotate(126.11)"><tspan x="0" y="0">i</tspan></text>
  <text class="cls-1" transform="translate(527.54 469.11) rotate(127.46)"><tspan x="0" y="0">n</tspan></text>
  <text class="cls-1" transform="translate(523.39 474.52) rotate(128.82)"><tspan x="0" y="0">e</tspan></text>
  <text class="cls-1" transform="translate(519.13 479.82) rotate(130.16)"><tspan x="0" y="0">r</tspan></text>
  <text class="cls-1" transform="translate(514.74 485.03) rotate(131.51)"><tspan x="0" y="0">-</tspan></text>
  <text class="cls-1" transform="translate(510.22 490.14) rotate(132.87)"><tspan x="0" y="0">s</tspan></text>
  <text class="cls-1" transform="translate(505.6 495.11) rotate(134.21)"><tspan x="0" y="0">u</tspan></text>
  <text class="cls-1" transform="translate(500.85 500) rotate(135.56)"><tspan x="0" y="0">b</tspan></text>
  <text class="cls-1" transform="translate(495.98 504.77) rotate(136.91)"><tspan x="0" y="0">&quot;</tspan></text>
  <text class="cls-1" transform="translate(491 509.43) rotate(138.26)"><tspan x="0" y="0">&gt;</tspan></text>
  <text class="cls-1" transform="translate(485.94 513.95) rotate(139.61)"><tspan x="0" y="0">&lt;</tspan></text>
  <text class="cls-1" transform="translate(480.74 518.37) rotate(140.96)"><tspan x="0" y="0">b</tspan></text>
  <text class="cls-1" transform="translate(475.46 522.66) rotate(142.31)"><tspan x="0" y="0">u</tspan></text>
  <text class="cls-1" transform="translate(470.06 526.83) rotate(143.66)"><tspan x="0" y="0">t</tspan></text>
  <text class="cls-1" transform="translate(464.57 530.86) rotate(145.02)"><tspan x="0" y="0">t</tspan></text>
  <text class="cls-1" transform="translate(458.99 534.77) rotate(146.37)"><tspan x="0" y="0">o</tspan></text>
  <text class="cls-1" transform="translate(453.32 538.55) rotate(147.73)"><tspan x="0" y="0">n</tspan></text>
  <text class="cls-1" transform="translate(447.57 542.18) rotate(149.08)"><tspan x="0" y="0"> </tspan></text>
  <text class="cls-1" transform="translate(441.73 545.67) rotate(150.44)"><tspan x="0" y="0">a</tspan></text>
  <text class="cls-1" transform="translate(435.8 549.04) rotate(151.8)"><tspan x="0" y="0">r</tspan></text>
  <text class="cls-1" transform="translate(429.79 552.26) rotate(153.17)"><tspan x="0" y="0">i</tspan></text>
  <text class="cls-1" transform="translate(423.72 555.33) rotate(154.53)"><tspan x="0" y="0">a</tspan></text>
  <text class="cls-1" transform="translate(417.58 558.26) rotate(155.89)"><tspan x="0" y="0">-</tspan></text>
  <text class="cls-1" transform="translate(411.35 561.05) rotate(157.26)"><tspan x="0" y="0">l</tspan></text>
  <text class="cls-1" transform="translate(405.08 563.67) rotate(158.62)"><tspan x="0" y="0">a</tspan></text>
  <text class="cls-1" transform="translate(398.75 566.15) rotate(159.99)"><tspan x="0" y="0">b</tspan></text>
  <text class="cls-1" transform="translate(392.34 568.49) rotate(161.36)"><tspan x="0" y="0">e</tspan></text>
  <text class="cls-1" transform="translate(385.88 570.67) rotate(162.73)"><tspan x="0" y="0">l</tspan></text>
  <text class="cls-1" transform="translate(379.38 572.69) rotate(164.09)"><tspan x="0" y="0">=</tspan></text>
  <text class="cls-1" transform="translate(372.85 574.55) rotate(165.46)"><tspan x="0" y="0">&quot;</tspan></text>
  <text class="cls-1" transform="translate(366.25 576.26) rotate(166.83)"><tspan x="0" y="0">G</tspan></text>
  <text class="cls-1" transform="translate(359.62 577.81) rotate(168.19)"><tspan x="0" y="0">o</tspan></text>
  <text class="cls-1" transform="translate(352.96 579.21) rotate(169.56)"><tspan x="0" y="0"> </tspan></text>
  <text class="cls-1" transform="translate(346.27 580.44) rotate(170.92)"><tspan x="0" y="0">b</tspan></text>
  <text class="cls-1" transform="translate(339.52 581.52) rotate(172.28)"><tspan x="0" y="0">a</tspan></text>
  <text class="cls-1" transform="translate(332.78 582.44) rotate(173.64)"><tspan x="0" y="0">c</tspan></text>
  <text class="cls-1" transform="translate(326.02 583.19) rotate(174.99)"><tspan x="0" y="0">k</tspan></text>
  <text class="cls-1" transform="translate(319.21 583.79) rotate(176.34)"><tspan x="0" y="0"> </tspan></text>
  <text class="cls-1" transform="translate(312.44 584.22) rotate(177.68)"><tspan x="0" y="0">t</tspan></text>
  <text class="cls-1" transform="translate(305.63 584.5) rotate(179.01)"><tspan x="0" y="0">o</tspan></text>
  <text class="cls-1" transform="translate(298.84 584.65) rotate(-179.07)"><tspan x="0" y="0"> </tspan></text>
  <text class="cls-1" transform="translate(292.01 584.57) rotate(-178.32)"><tspan x="0" y="0">t</tspan></text>
  <text class="cls-1" transform="translate(285.19 584.38) rotate(-176.98)"><tspan x="0" y="0">h</tspan></text>
  <text class="cls-1" transform="translate(278.4 584.02) rotate(-175.64)"><tspan x="0" y="0">e</tspan></text>
  <text class="cls-1" transform="translate(271.6 583.5) rotate(-174.29)"><tspan x="0" y="0"> </tspan></text>
</svg>