<?xml version="1.0" encoding="UTF-8"?>
<svg id="Layer_1" xmlns="http://www.w3.org/2000/svg" viewBox="0 0 265.64 265.66">
  <defs>
    <style>
      .cls-1 {
        fill: #6a9953;
        font-family: PTMono-Bold, 'PT Mono';
        font-size: 5.35px;
        font-weight: 700;
      }
    </style>
  </defs>
  <text class="cls-1" transform="translate(148.87 5.53) rotate(7.83)"><tspan x="0" y="0"> </tspan></text>
  <text class="cls-1" transform="translate(152.02 5.96) rotate(9.25)"><tspan x="0" y="0">&lt;</tspan></text>
  <text class="cls-1" transform="translate(155.18 6.48) rotate(10.69)"><tspan x="0" y="0">h</tspan></text>
  <text class="cls-1" transform="translate(158.3 7.06) rotate(12.11)"><tspan x="0" y="0">e</tspan></text>
  <text class="cls-1" transform="translate(161.42 7.73) rotate(13.55)"><tspan x="0" y="0">a</tspan></text>
  <text class="cls-1" transform="translate(164.53 8.48) rotate(14.99)"><tspan x="0" y="0">d</tspan></text>
  <text class="cls-1" transform="translate(167.59 9.3) rotate(16.41)"><tspan x="0" y="0">e</tspan></text>
  <text class="cls-1" transform="translate(170.66 10.2) rotate(17.85)"><tspan x="0" y="0">r</tspan></text>
  <text class="cls-1" transform="translate(173.68 11.18) rotate(19.28)"><tspan x="0" y="0">&gt;</tspan></text>
  <text class="cls-1" transform="translate(176.69 12.23) rotate(20.72)"><tspan x="0" y="0">&lt;</tspan></text>
  <text class="cls-1" transform="translate(179.67 13.35) rotate(22.15)"><tspan x="0" y="0">n</tspan></text>
  <text class="cls-1" transform="translate(182.63 14.56) rotate(23.58)"><tspan x="0" y="0">a</tspan></text>
  <text class="cls-1" transform="translate(185.53 15.83) rotate(25.01)"><tspan x="0" y="0">v</tspan></text>
  <text class="cls-1" transform="translate(188.44 17.18) rotate(26.45)"><tspan x="0" y="0"> </tspan></text>
  <text class="cls-1" transform="translate(191.29 18.6) rotate(27.87)"><tspan x="0" y="0">i</tspan></text>
  <text class="cls-1" transform="translate(194.1 20.08) rotate(29.29)"><tspan x="0" y="0">d</tspan></text>
  <text class="cls-1" transform="translate(196.88 21.65) rotate(30.72)"><tspan x="0" y="0">=</tspan></text>
  <text class="cls-1" transform="translate(199.63 23.28) rotate(32.15)"><tspan x="0" y="0">&quot;</tspan></text>
  <text class="cls-1" transform="translate(202.33 24.97) rotate(33.57)"><tspan x="0" y="0">n</tspan></text>
  <text class="cls-1" transform="translate(204.98 26.73) rotate(34.99)"><tspan x="0" y="0">a</tspan></text>
  <text class="cls-1" transform="translate(207.59 28.56) rotate(36.41)"><tspan x="0" y="0">v</tspan></text>
  <text class="cls-1" transform="translate(210.15 30.44) rotate(37.82)"><tspan x="0" y="0">b</tspan></text>
  <text class="cls-1" transform="translate(212.66 32.39) rotate(39.23)"><tspan x="0" y="0">a</tspan></text>
  <text class="cls-1" transform="translate(215.14 34.42) rotate(40.65)"><tspan x="0" y="0">r</tspan></text>
  <text class="cls-1" transform="translate(217.55 36.49) rotate(42.06)"><tspan x="0" y="0">&quot;</tspan></text>
  <text class="cls-1" transform="translate(219.92 38.63) rotate(43.48)"><tspan x="0" y="0"> </tspan></text>
  <text class="cls-1" transform="translate(222.22 40.81) rotate(44.89)"><tspan x="0" y="0">a</tspan></text>
  <text class="cls-1" transform="translate(224.49 43.07) rotate(46.31)"><tspan x="0" y="0">r</tspan></text>
  <text class="cls-1" transform="translate(226.68 45.37) rotate(47.72)"><tspan x="0" y="0">i</tspan></text>
  <text class="cls-1" transform="translate(228.84 47.73) rotate(49.14)"><tspan x="0" y="0">a</tspan></text>
  <text class="cls-1" transform="translate(230.91 50.14) rotate(50.55)"><tspan x="0" y="0">-</tspan></text>
  <text class="cls-1" transform="translate(232.93 52.59) rotate(51.97)"><tspan x="0" y="0">l</tspan></text>
  <text class="cls-1" transform="translate(234.91 55.11) rotate(53.39)"><tspan x="0" y="0">a</tspan></text>
  <text class="cls-1" transform="translate(236.81 57.67) rotate(54.81)"><tspan x="0" y="0">b</tspan></text>
  <text class="cls-1" transform="translate(238.64 60.27) rotate(56.23)"><tspan x="0" y="0">e</tspan></text>
  <text class="cls-1" transform="translate(240.41 62.92) rotate(57.65)"><tspan x="0" y="0">l</tspan></text>
  <text class="cls-1" transform="translate(242.12 65.61) rotate(59.07)"><tspan x="0" y="0">=</tspan></text>
  <text class="cls-1" transform="translate(243.75 68.33) rotate(60.49)"><tspan x="0" y="0">&quot;</tspan></text>
  <text class="cls-1" transform="translate(245.33 71.12) rotate(61.92)"><tspan x="0" y="0">P</tspan></text>
  <text class="cls-1" transform="translate(246.82 73.92) rotate(63.35)"><tspan x="0" y="0">r</tspan></text>
  <text class="cls-1" transform="translate(248.25 76.77) rotate(64.77)"><tspan x="0" y="0">i</tspan></text>
  <text class="cls-1" transform="translate(249.61 79.66) rotate(66.21)"><tspan x="0" y="0">m</tspan></text>
  <text class="cls-1" transform="translate(250.9 82.58) rotate(67.64)"><tspan x="0" y="0">a</tspan></text>
  <text class="cls-1" transform="translate(252.11 85.52) rotate(69.07)"><tspan x="0" y="0">r</tspan></text>
  <text class="cls-1" transform="translate(253.25 88.5) rotate(70.51)"><tspan x="0" y="0">y</tspan></text>
  <text class="cls-1" transform="translate(254.32 91.51) rotate(71.95)"><tspan x="0" y="0"> </tspan></text>
  <text class="cls-1" transform="translate(255.3 94.51) rotate(73.37)"><tspan x="0" y="0">N</tspan></text>
  <text class="cls-1" transform="translate(256.22 97.59) rotate(74.81)"><tspan x="0" y="0">a</tspan></text>
  <text class="cls-1" transform="translate(257.05 100.65) rotate(76.24)"><tspan x="0" y="0">v</tspan></text>
  <text class="cls-1" transform="translate(257.81 103.75) rotate(77.67)"><tspan x="0" y="0">i</tspan></text>
  <text class="cls-1" transform="translate(258.49 106.87) rotate(79.11)"><tspan x="0" y="0">g</tspan></text>
  <text class="cls-1" transform="translate(259.09 109.99) rotate(80.54)"><tspan x="0" y="0">a</tspan></text>
  <text class="cls-1" transform="translate(259.61 113.12) rotate(81.95)"><tspan x="0" y="0">t</tspan></text>
  <text class="cls-1" transform="translate(260.06 116.3) rotate(83.39)"><tspan x="0" y="0">i</tspan></text>
  <text class="cls-1" transform="translate(260.43 119.45) rotate(84.8)"><tspan x="0" y="0">o</tspan></text>
  <text class="cls-1" transform="translate(260.72 122.63) rotate(86.21)"><tspan x="0" y="0">n</tspan></text>
  <text class="cls-1" transform="translate(260.93 125.8) rotate(87.62)"><tspan x="0" y="0">&quot;</tspan></text>
  <text class="cls-1" transform="translate(261.06 129) rotate(89.02)"><tspan x="0" y="0"> </tspan></text>
  <text class="cls-1" transform="translate(261.13 132.16) rotate(90.93)"><tspan x="0" y="0">c</tspan></text>
  <text class="cls-1" transform="translate(261.09 135.36) rotate(91.81)"><tspan x="0" y="0">l</tspan></text>
  <text class="cls-1" transform="translate(260.99 138.54) rotate(93.22)"><tspan x="0" y="0">a</tspan></text>
  <text class="cls-1" transform="translate(260.81 141.73) rotate(94.63)"><tspan x="0" y="0">s</tspan></text>
  <text class="cls-1" transform="translate(260.56 144.9) rotate(96.05)"><tspan x="0" y="0">s</tspan></text>
  <text class="cls-1" transform="translate(260.22 148.08) rotate(97.47)"><tspan x="0" y="0">=</tspan></text>
  <text class="cls-1" transform="translate(259.81 151.23) rotate(98.89)"><tspan x="0" y="0">&quot;</tspan></text>
  <text class="cls-1" transform="translate(259.31 154.38) rotate(100.32)"><tspan x="0" y="0">n</tspan></text>
  <text class="cls-1" transform="translate(258.75 157.5) rotate(101.74)"><tspan x="0" y="0">a</tspan></text>
  <text class="cls-1" transform="translate(258.1 160.62) rotate(103.18)"><tspan x="0" y="0">v</tspan></text>
  <text class="cls-1" transform="translate(257.37 163.74) rotate(104.62)"><tspan x="0" y="0">-</tspan></text>
  <text class="cls-1" transform="translate(256.56 166.83) rotate(106.06)"><tspan x="0" y="0">c</tspan></text>
  <text class="cls-1" transform="translate(255.69 169.87) rotate(107.48)"><tspan x="0" y="0">o</tspan></text>
  <text class="cls-1" transform="translate(254.73 172.92) rotate(108.92)"><tspan x="0" y="0">n</tspan></text>
  <text class="cls-1" transform="translate(253.69 175.94) rotate(110.35)"><tspan x="0" y="0">t</tspan></text>
  <text class="cls-1" transform="translate(252.59 178.92) rotate(111.78)"><tspan x="0" y="0">a</tspan></text>
  <text class="cls-1" transform="translate(251.41 181.87) rotate(113.21)"><tspan x="0" y="0">i</tspan></text>
  <text class="cls-1" transform="translate(250.15 184.81) rotate(114.65)"><tspan x="0" y="0">n</tspan></text>
  <text class="cls-1" transform="translate(248.82 187.7) rotate(116.08)"><tspan x="0" y="0">e</tspan></text>
  <text class="cls-1" transform="translate(247.42 190.56) rotate(117.5)"><tspan x="0" y="0">r</tspan></text>
  <text class="cls-1" transform="translate(245.95 193.4) rotate(118.94)"><tspan x="0" y="0">&quot;</tspan></text>
  <text class="cls-1" transform="translate(244.41 196.18) rotate(120.35)"><tspan x="0" y="0">&gt;</tspan></text>
  <text class="cls-1" transform="translate(242.8 198.93) rotate(121.78)"><tspan x="0" y="0">&lt;</tspan></text>
  <text class="cls-1" transform="translate(241.12 201.64) rotate(123.2)"><tspan x="0" y="0">/</tspan></text>
  <text class="cls-1" transform="translate(239.37 204.31) rotate(124.62)"><tspan x="0" y="0">n</tspan></text>
  <text class="cls-1" transform="translate(237.57 206.93) rotate(126.04)"><tspan x="0" y="0">a</tspan></text>
  <text class="cls-1" transform="translate(235.7 209.5) rotate(127.46)"><tspan x="0" y="0">v</tspan></text>
  <text class="cls-1" transform="translate(233.75 212.04) rotate(128.88)"><tspan x="0" y="0">&gt;</tspan></text>
  <text class="cls-1" transform="translate(231.75 214.52) rotate(130.29)"><tspan x="0" y="0"> </tspan></text>
  <text class="cls-1" transform="translate(229.69 216.96) rotate(131.71)"><tspan x="0" y="0">&lt;</tspan></text>
  <text class="cls-1" transform="translate(227.57 219.33) rotate(133.12)"><tspan x="0" y="0">/</tspan></text>
  <text class="cls-1" transform="translate(225.4 221.64) rotate(134.53)"><tspan x="0" y="0">h</tspan></text>
  <text class="cls-1" transform="translate(223.16 223.92) rotate(135.95)"><tspan x="0" y="0">e</tspan></text>
  <text class="cls-1" transform="translate(220.86 226.15) rotate(137.37)"><tspan x="0" y="0">a</tspan></text>
  <text class="cls-1" transform="translate(218.53 228.3) rotate(138.78)"><tspan x="0" y="0">d</tspan></text>
  <text class="cls-1" transform="translate(216.14 230.39) rotate(140.19)"><tspan x="0" y="0">e</tspan></text>
  <text class="cls-1" transform="translate(213.68 232.44) rotate(141.61)"><tspan x="0" y="0">r</tspan></text>
  <text class="cls-1" transform="translate(211.19 234.42) rotate(143.03)"><tspan x="0" y="0">&gt;</tspan></text>
  <text class="cls-1" transform="translate(208.65 236.33) rotate(144.44)"><tspan x="0" y="0">&lt;</tspan></text>
  <text class="cls-1" transform="translate(206.05 238.18) rotate(145.86)"><tspan x="0" y="0">m</tspan></text>
  <text class="cls-1" transform="translate(203.42 239.97) rotate(147.28)"><tspan x="0" y="0">a</tspan></text>
  <text class="cls-1" transform="translate(200.73 241.7) rotate(148.71)"><tspan x="0" y="0">i</tspan></text>
  <text class="cls-1" transform="translate(198.01 243.35) rotate(150.13)"><tspan x="0" y="0">n</tspan></text>
  <text class="cls-1" transform="translate(195.25 244.94) rotate(151.55)"><tspan x="0" y="0">&gt;</tspan></text>
  <text class="cls-1" transform="translate(192.44 246.46) rotate(152.99)"><tspan x="0" y="0">&lt;</tspan></text>
  <text class="cls-1" transform="translate(189.6 247.91) rotate(154.41)"><tspan x="0" y="0">s</tspan></text>
  <text class="cls-1" transform="translate(186.72 249.29) rotate(155.85)"><tspan x="0" y="0">e</tspan></text>
  <text class="cls-1" transform="translate(183.83 250.58) rotate(157.27)"><tspan x="0" y="0">c</tspan></text>
  <text class="cls-1" transform="translate(180.88 251.82) rotate(158.71)"><tspan x="0" y="0">t</tspan></text>
  <text class="cls-1" transform="translate(177.91 252.98) rotate(160.14)"><tspan x="0" y="0">i</tspan></text>
  <text class="cls-1" transform="translate(174.93 254.05) rotate(161.57)"><tspan x="0" y="0">o</tspan></text>
  <text class="cls-1" transform="translate(171.89 255.07) rotate(163.01)"><tspan x="0" y="0">n</tspan></text>
  <text class="cls-1" transform="translate(168.84 256) rotate(164.45)"><tspan x="0" y="0">&gt;</tspan></text>
  <text class="cls-1" transform="translate(165.79 256.85) rotate(165.87)"><tspan x="0" y="0">&lt;</tspan></text>
  <text class="cls-1" transform="translate(162.68 257.63) rotate(167.31)"><tspan x="0" y="0">h</tspan></text>
  <text class="cls-1" transform="translate(159.59 258.33) rotate(168.74)"><tspan x="0" y="0">1</tspan></text>
  <text class="cls-1" transform="translate(156.47 258.95) rotate(170.16)"><tspan x="0" y="0"> </tspan></text>
  <text class="cls-1" transform="translate(153.32 259.49) rotate(171.59)"><tspan x="0" y="0">c</tspan></text>
  <text class="cls-1" transform="translate(150.18 259.96) rotate(173.02)"><tspan x="0" y="0">l</tspan></text>
  <text class="cls-1" transform="translate(147 260.35) rotate(174.44)"><tspan x="0" y="0">a</tspan></text>
  <text class="cls-1" transform="translate(143.83 260.66) rotate(175.85)"><tspan x="0" y="0">s</tspan></text>
  <text class="cls-1" transform="translate(140.67 260.89) rotate(177.26)"><tspan x="0" y="0">s</tspan></text>
  <text class="cls-1" transform="translate(137.48 261.04) rotate(178.66)"><tspan x="0" y="0">=</tspan></text>
  <text class="cls-1" transform="translate(134.3 261.14) rotate(-179.07)"><tspan x="0" y="0">&quot;</tspan></text>
  <text class="cls-1" transform="translate(131.09 261.11) rotate(-178.54)"><tspan x="0" y="0">v</tspan></text>
  <text class="cls-1" transform="translate(127.92 261.03) rotate(-177.14)"><tspan x="0" y="0">i</tspan></text>
  <text class="cls-1" transform="translate(124.73 260.87) rotate(-175.73)"><tspan x="0" y="0">s</tspan></text>
  <text class="cls-1" transform="translate(121.55 260.64) rotate(-174.31)"><tspan x="0" y="0">u</tspan></text>
  <text class="cls-1" transform="translate(118.38 260.32) rotate(-172.89)"><tspan x="0" y="0">a</tspan></text>
  <text class="cls-1" transform="translate(115.22 259.93) rotate(-171.47)"><tspan x="0" y="0">l</tspan></text>
  <text class="cls-1" transform="translate(112.06 259.45) rotate(-170.04)"><tspan x="0" y="0">l</tspan></text>
  <text class="cls-1" transform="translate(108.93 258.9) rotate(-168.61)"><tspan x="0" y="0">y</tspan></text>
  <text class="cls-1" transform="translate(105.8 258.27) rotate(-167.18)"><tspan x="0" y="0">-</tspan></text>
  <text class="cls-1" transform="translate(102.7 257.57) rotate(-165.75)"><tspan x="0" y="0">h</tspan></text>
  <text class="cls-1" transform="translate(99.63 256.79) rotate(-164.32)"><tspan x="0" y="0">i</tspan></text>
  <text class="cls-1" transform="translate(96.54 255.92) rotate(-162.88)"><tspan x="0" y="0">d</tspan></text>
  <text class="cls-1" transform="translate(93.5 254.99) rotate(-161.45)"><tspan x="0" y="0">d</tspan></text>
  <text class="cls-1" transform="translate(90.47 253.97) rotate(-160.01)"><tspan x="0" y="0">e</tspan></text>
  <text class="cls-1" transform="translate(87.48 252.88) rotate(-158.58)"><tspan x="0" y="0">n</tspan></text>
  <text class="cls-1" transform="translate(84.52 251.72) rotate(-157.15)"><tspan x="0" y="0">&quot;</tspan></text>
  <text class="cls-1" transform="translate(81.58 250.48) rotate(-155.71)"><tspan x="0" y="0">&gt;</tspan></text>
  <text class="cls-1" transform="translate(78.67 249.17) rotate(-154.28)"><tspan x="0" y="0">G</tspan></text>
  <text class="cls-1" transform="translate(75.8 247.79) rotate(-152.86)"><tspan x="0" y="0">L</tspan></text>
  <text class="cls-1" transform="translate(72.98 246.34) rotate(-151.43)"><tspan x="0" y="0">A</tspan></text>
  <text class="cls-1" transform="translate(70.17 244.81) rotate(-150)"><tspan x="0" y="0">S</tspan></text>
  <text class="cls-1" transform="translate(67.42 243.23) rotate(-148.59)"><tspan x="0" y="0">S</tspan></text>
  <text class="cls-1" transform="translate(64.7 241.57) rotate(-147.16)"><tspan x="0" y="0"> </tspan></text>
  <text class="cls-1" transform="translate(62.02 239.84) rotate(-145.74)"><tspan x="0" y="0">E</tspan></text>
  <text class="cls-1" transform="translate(59.39 238.05) rotate(-144.32)"><tspan x="0" y="0">P</tspan></text>
  <text class="cls-1" transform="translate(56.79 236.18) rotate(-142.9)"><tspan x="0" y="0">&lt;</tspan></text>
  <text class="cls-1" transform="translate(54.25 234.26) rotate(-141.48)"><tspan x="0" y="0">/</tspan></text>
  <text class="cls-1" transform="translate(51.77 232.28) rotate(-140.07)"><tspan x="0" y="0">h</tspan></text>
  <text class="cls-1" transform="translate(49.31 230.23) rotate(-138.65)"><tspan x="0" y="0">1</tspan></text>
  <text class="cls-1" transform="translate(46.93 228.13) rotate(-137.24)"><tspan x="0" y="0">&gt;</tspan></text>
  <text class="cls-1" transform="translate(44.58 225.96) rotate(-135.82)"><tspan x="0" y="0">&lt;</tspan></text>
  <text class="cls-1" transform="translate(42.3 223.75) rotate(-134.41)"><tspan x="0" y="0">h</tspan></text>
  <text class="cls-1" transform="translate(40.06 221.46) rotate(-132.99)"><tspan x="0" y="0">2</tspan></text>
  <text class="cls-1" transform="translate(37.9 219.14) rotate(-131.58)"><tspan x="0" y="0"> </tspan></text>
  <text class="cls-1" transform="translate(35.77 216.75) rotate(-130.16)"><tspan x="0" y="0">c</tspan></text>
  <text class="cls-1" transform="translate(33.73 214.32) rotate(-128.75)"><tspan x="0" y="0">l</tspan></text>
  <text class="cls-1" transform="translate(31.72 211.82) rotate(-127.33)"><tspan x="0" y="0">a</tspan></text>
  <text class="cls-1" transform="translate(29.79 209.29) rotate(-125.91)"><tspan x="0" y="0">s</tspan></text>
  <text class="cls-1" transform="translate(27.92 206.72) rotate(-124.49)"><tspan x="0" y="0">s</tspan></text>
  <text class="cls-1" transform="translate(26.12 204.09) rotate(-123.07)"><tspan x="0" y="0">=</tspan></text>
  <text class="cls-1" transform="translate(24.38 201.42) rotate(-121.65)"><tspan x="0" y="0">&quot;</tspan></text>
  <text class="cls-1" transform="translate(22.7 198.7) rotate(-120.22)"><tspan x="0" y="0">v</tspan></text>
  <text class="cls-1" transform="translate(21.11 195.96) rotate(-118.8)"><tspan x="0" y="0">i</tspan></text>
  <text class="cls-1" transform="translate(19.58 193.17) rotate(-117.38)"><tspan x="0" y="0">s</tspan></text>
  <text class="cls-1" transform="translate(18.1 190.33) rotate(-115.95)"><tspan x="0" y="0">u</tspan></text>
  <text class="cls-1" transform="translate(16.72 187.48) rotate(-114.53)"><tspan x="0" y="0">a</tspan></text>
  <text class="cls-1" transform="translate(15.39 184.58) rotate(-113.09)"><tspan x="0" y="0">l</tspan></text>
  <text class="cls-1" transform="translate(14.13 181.63) rotate(-111.65)"><tspan x="0" y="0">l</tspan></text>
  <text class="cls-1" transform="translate(12.96 178.67) rotate(-110.22)"><tspan x="0" y="0">y</tspan></text>
  <text class="cls-1" transform="translate(11.86 175.68) rotate(-108.78)"><tspan x="0" y="0">-</tspan></text>
  <text class="cls-1" transform="translate(10.83 172.67) rotate(-107.35)"><tspan x="0" y="0">h</tspan></text>
  <text class="cls-1" transform="translate(9.88 169.64) rotate(-105.92)"><tspan x="0" y="0">i</tspan></text>
  <text class="cls-1" transform="translate(9.01 166.56) rotate(-104.48)"><tspan x="0" y="0">d</tspan></text>
  <text class="cls-1" transform="translate(8.21 163.48) rotate(-103.05)"><tspan x="0" y="0">d</tspan></text>
  <text class="cls-1" transform="translate(7.49 160.38) rotate(-101.62)"><tspan x="0" y="0">e</tspan></text>
  <text class="cls-1" transform="translate(6.85 157.27) rotate(-100.2)"><tspan x="0" y="0">n</tspan></text>
  <text class="cls-1" transform="translate(6.28 154.13) rotate(-98.77)"><tspan x="0" y="0">&quot;</tspan></text>
  <text class="cls-1" transform="translate(5.8 150.99) rotate(-97.35)"><tspan x="0" y="0">&gt;</tspan></text>
  <text class="cls-1" transform="translate(5.39 147.82) rotate(-95.92)"><tspan x="0" y="0">S</tspan></text>
  <text class="cls-1" transform="translate(5.06 144.66) rotate(-94.51)"><tspan x="0" y="0">L</tspan></text>
  <text class="cls-1" transform="translate(4.81 141.47) rotate(-93.09)"><tspan x="0" y="0">E</tspan></text>
  <text class="cls-1" transform="translate(4.64 138.29) rotate(-91.69)"><tspan x="0" y="0">E</tspan></text>
  <text class="cls-1" transform="translate(4.56 135.11) rotate(-90.93)"><tspan x="0" y="0">P</tspan></text>
  <text class="cls-1" transform="translate(4.53 131.92) rotate(-88.9)"><tspan x="0" y="0">H</tspan></text>
  <text class="cls-1" transform="translate(4.59 128.73) rotate(-87.5)"><tspan x="0" y="0">A</tspan></text>
  <text class="cls-1" transform="translate(4.73 125.55) rotate(-86.09)"><tspan x="0" y="0">W</tspan></text>
  <text class="cls-1" transform="translate(4.94 122.37) rotate(-84.68)"><tspan x="0" y="0">K</tspan></text>
  <text class="cls-1" transform="translate(5.24 119.19) rotate(-83.25)"><tspan x="0" y="0">&lt;</tspan></text>
  <text class="cls-1" transform="translate(5.62 116.03) rotate(-81.83)"><tspan x="0" y="0">/</tspan></text>
  <text class="cls-1" transform="translate(6.07 112.89) rotate(-80.41)"><tspan x="0" y="0">h</tspan></text>
  <text class="cls-1" transform="translate(6.6 109.73) rotate(-78.97)"><tspan x="0" y="0">2</tspan></text>
  <text class="cls-1" transform="translate(7.21 106.61) rotate(-77.55)"><tspan x="0" y="0">&gt;</tspan></text>
  <text class="cls-1" transform="translate(7.89 103.51) rotate(-76.12)"><tspan x="0" y="0">&lt;</tspan></text>
  <text class="cls-1" transform="translate(8.66 100.4) rotate(-74.68)"><tspan x="0" y="0">d</tspan></text>
  <text class="cls-1" transform="translate(9.5 97.33) rotate(-73.24)"><tspan x="0" y="0">i</tspan></text>
  <text class="cls-1" transform="translate(10.42 94.28) rotate(-71.81)"><tspan x="0" y="0">v</tspan></text>
  <text class="cls-1" transform="translate(11.41 91.25) rotate(-70.38)"><tspan x="0" y="0"> </tspan></text>
  <text class="cls-1" transform="translate(12.48 88.25) rotate(-68.94)"><tspan x="0" y="0">c</tspan></text>
  <text class="cls-1" transform="translate(13.62 85.28) rotate(-67.51)"><tspan x="0" y="0">l</tspan></text>
  <text class="cls-1" transform="translate(14.84 82.35) rotate(-66.09)"><tspan x="0" y="0">a</tspan></text>
  <text class="cls-1" transform="translate(16.13 79.43) rotate(-64.65)"><tspan x="0" y="0">s</tspan></text>
  <text class="cls-1" transform="translate(17.49 76.55) rotate(-63.23)"><tspan x="0" y="0">s</tspan></text>
  <text class="cls-1" transform="translate(18.94 73.69) rotate(-61.79)"><tspan x="0" y="0">=</tspan></text>
  <text class="cls-1" transform="translate(20.44 70.89) rotate(-60.37)"><tspan x="0" y="0">&quot;</tspan></text>
  <text class="cls-1" transform="translate(22.02 68.12) rotate(-58.94)"><tspan x="0" y="0">g</tspan></text>
  <text class="cls-1" transform="translate(23.66 65.38) rotate(-57.52)"><tspan x="0" y="0">-</tspan></text>
  <text class="cls-1" transform="translate(25.37 62.7) rotate(-56.1)"><tspan x="0" y="0">d</tspan></text>
  <text class="cls-1" transform="translate(27.15 60.05) rotate(-54.68)"><tspan x="0" y="0">-</tspan></text>
  <text class="cls-1" transform="translate(28.99 57.46) rotate(-53.26)"><tspan x="0" y="0">m</tspan></text>
  <text class="cls-1" transform="translate(30.89 54.91) rotate(-51.85)"><tspan x="0" y="0">a</tspan></text>
  <text class="cls-1" transform="translate(32.87 52.39) rotate(-50.43)"><tspan x="0" y="0">i</tspan></text>
  <text class="cls-1" transform="translate(34.89 49.94) rotate(-49.01)"><tspan x="0" y="0">n</tspan></text>
  <text class="cls-1" transform="translate(36.97 47.54) rotate(-47.6)"><tspan x="0" y="0">-</tspan></text>
  <text class="cls-1" transform="translate(39.13 45.18) rotate(-46.18)"><tspan x="0" y="0">c</tspan></text>
  <text class="cls-1" transform="translate(41.34 42.87) rotate(-44.77)"><tspan x="0" y="0">o</tspan></text>
  <text class="cls-1" transform="translate(43.6 40.64) rotate(-43.36)"><tspan x="0" y="0">n</tspan></text>
  <text class="cls-1" transform="translate(45.91 38.46) rotate(-41.95)"><tspan x="0" y="0">t</tspan></text>
  <text class="cls-1" transform="translate(48.29 36.32) rotate(-40.53)"><tspan x="0" y="0">a</tspan></text>
  <text class="cls-1" transform="translate(50.72 34.24) rotate(-39.1)"><tspan x="0" y="0">i</tspan></text>
  <text class="cls-1" transform="translate(53.18 32.23) rotate(-37.69)"><tspan x="0" y="0">n</tspan></text>
  <text class="cls-1" transform="translate(55.7 30.29) rotate(-36.28)"><tspan x="0" y="0">e</tspan></text>
  <text class="cls-1" transform="translate(58.27 28.41) rotate(-34.86)"><tspan x="0" y="0">r</tspan></text>
  <text class="cls-1" transform="translate(60.88 26.59) rotate(-33.44)"><tspan x="0" y="0">-</tspan></text>
  <text class="cls-1" transform="translate(63.54 24.83) rotate(-32.02)"><tspan x="0" y="0">s</tspan></text>
  <text class="cls-1" transform="translate(66.25 23.14) rotate(-30.59)"><tspan x="0" y="0">u</tspan></text>
  <text class="cls-1" transform="translate(69 21.51) rotate(-29.16)"><tspan x="0" y="0">b</tspan></text>
  <text class="cls-1" transform="translate(71.77 19.96) rotate(-27.74)"><tspan x="0" y="0">&quot;</tspan></text>
  <text class="cls-1" transform="translate(74.58 18.48) rotate(-26.32)"><tspan x="0" y="0">&gt;</tspan></text>
  <text class="cls-1" transform="translate(77.44 17.07) rotate(-24.89)"><tspan x="0" y="0">&lt;</tspan></text>
  <text class="cls-1" transform="translate(80.34 15.72) rotate(-23.45)"><tspan x="0" y="0">b</tspan></text>
  <text class="cls-1" transform="translate(83.25 14.46) rotate(-22.03)"><tspan x="0" y="0">u</tspan></text>
  <text class="cls-1" transform="translate(86.2 13.27) rotate(-20.6)"><tspan x="0" y="0">t</tspan></text>
  <text class="cls-1" transform="translate(89.18 12.15) rotate(-19.16)"><tspan x="0" y="0">t</tspan></text>
  <text class="cls-1" transform="translate(92.2 11.1) rotate(-17.72)"><tspan x="0" y="0">o</tspan></text>
  <text class="cls-1" transform="translate(95.23 10.13) rotate(-16.29)"><tspan x="0" y="0">n</tspan></text>
  <text class="cls-1" transform="translate(98.3 9.23) rotate(-14.85)"><tspan x="0" y="0"> </tspan></text>
  <text class="cls-1" transform="translate(101.37 8.42) rotate(-13.42)"><tspan x="0" y="0">a</tspan></text>
  <text class="cls-1" transform="translate(104.47 7.68) rotate(-11.99)"><tspan x="0" y="0">r</tspan></text>
  <text class="cls-1" transform="translate(107.6 7.01) rotate(-10.55)"><tspan x="0" y="0">i</tspan></text>
  <text class="cls-1" transform="translate(110.73 6.43) rotate(-9.13)"><tspan x="0" y="0">a</tspan></text>
  <text class="cls-1" transform="translate(113.86 5.92) rotate(-7.71)"><tspan x="0" y="0">-</tspan></text>
  <text class="cls-1" transform="translate(117.02 5.5) rotate(-6.28)"><tspan x="0" y="0">l</tspan></text>
  <text class="cls-1" transform="translate(120.18 5.15) rotate(-4.87)"><tspan x="0" y="0">a</tspan></text>
  <text class="cls-1" transform="translate(123.36 4.88) rotate(-3.46)"><tspan x="0" y="0">b</tspan></text>
  <text class="cls-1" transform="translate(126.54 4.68) rotate(-2.05)"><tspan x="0" y="0">e</tspan></text>
  <text class="cls-1" transform="translate(129.74 4.58) rotate(-.93)"><tspan x="0" y="0">l</tspan></text>
  <text class="cls-1" transform="translate(132.92 4.53) rotate(.93)"><tspan x="0" y="0">=</tspan></text>
  <text class="cls-1" transform="translate(136.1 4.57) rotate(2.14)"><tspan x="0" y="0">&quot;</tspan></text>
  <text class="cls-1" transform="translate(139.3 4.69) rotate(3.56)"><tspan x="0" y="0">G</tspan></text>
  <text class="cls-1" transform="translate(142.46 4.89) rotate(4.96)"><tspan x="0" y="0">o</tspan></text>
  <text class="cls-1" transform="translate(145.65 5.17) rotate(6.39)"><tspan x="0" y="0"> </tspan></text>
</svg>