<?xml version="1.0" encoding="UTF-8"?>
<svg id="Layer_1" xmlns="http://www.w3.org/2000/svg" viewBox="0 0 939.61 939.61">
  <defs>
    <style>
      .cls-1 {
        fill: #6a9953;
        font-family: PTMono-Bold, 'PT Mono';
        font-size: 43px;
        font-weight: 700;
      }
    </style>
  </defs>
  <text class="cls-1" transform="translate(527.03 37.52) rotate(9.17)"><tspan x="0" y="0">G</tspan></text>
  <text class="cls-1" transform="translate(552.09 41.55) rotate(12.52)"><tspan x="0" y="0">R</tspan></text>
  <text class="cls-1" transform="translate(576.87 47.04) rotate(15.88)"><tspan x="0" y="0">A</tspan></text>
  <text class="cls-1" transform="translate(601.27 53.97) rotate(19.24)"><tspan x="0" y="0">P</tspan></text>
  <text class="cls-1" transform="translate(625.24 62.32) rotate(22.6)"><tspan x="0" y="0">H</tspan></text>
  <text class="cls-1" transform="translate(648.67 72.06) rotate(25.95)"><tspan x="0" y="0">I</tspan></text>
  <text class="cls-1" transform="translate(671.48 83.14) rotate(29.29)"><tspan x="0" y="0">C</tspan></text>
  <text class="cls-1" transform="translate(693.63 95.56) rotate(32.63)"><tspan x="0" y="0"> </tspan></text>
  <text class="cls-1" transform="translate(715.01 109.23) rotate(35.96)"><tspan x="0" y="0">D</tspan></text>
  <text class="cls-1" transform="translate(735.55 124.12) rotate(39.28)"><tspan x="0" y="0">E</tspan></text>
  <text class="cls-1" transform="translate(755.21 140.19) rotate(42.6)"><tspan x="0" y="0">S</tspan></text>
  <text class="cls-1" transform="translate(773.9 157.35) rotate(45.91)"><tspan x="0" y="0">I</tspan></text>
  <text class="cls-1" transform="translate(791.56 175.57) rotate(49.23)"><tspan x="0" y="0">G</tspan></text>
  <text class="cls-1" transform="translate(808.14 194.78) rotate(52.55)"><tspan x="0" y="0">N</tspan></text>
  <text class="cls-1" transform="translate(823.58 214.92) rotate(55.87)"><tspan x="0" y="0"> </tspan></text>
  <text class="cls-1" transform="translate(837.84 235.92) rotate(59.21)"><tspan x="0" y="0">P</tspan></text>
  <text class="cls-1" transform="translate(850.84 257.72) rotate(62.55)"><tspan x="0" y="0">O</tspan></text>
  <text class="cls-1" transform="translate(862.55 280.22) rotate(65.9)"><tspan x="0" y="0">R</tspan></text>
  <text class="cls-1" transform="translate(872.92 303.37) rotate(69.25)"><tspan x="0" y="0">T</tspan></text>
  <text class="cls-1" transform="translate(881.92 327.1) rotate(72.61)"><tspan x="0" y="0">F</tspan></text>
  <text class="cls-1" transform="translate(889.52 351.31) rotate(75.97)"><tspan x="0" y="0">O</tspan></text>
  <text class="cls-1" transform="translate(895.68 375.92) rotate(79.33)"><tspan x="0" y="0">L</tspan></text>
  <text class="cls-1" transform="translate(900.39 400.87) rotate(82.67)"><tspan x="0" y="0">I</tspan></text>
  <text class="cls-1" transform="translate(903.64 426.04) rotate(85.99)"><tspan x="0" y="0">O</tspan></text>
  <text class="cls-1" transform="translate(905.38 451.38) rotate(89.07)"><tspan x="0" y="0"> </tspan></text>
  <text class="cls-1" transform="translate(905.75 476.73) rotate(92.56)"><tspan x="0" y="0">|</tspan></text>
  <text class="cls-1" transform="translate(904.63 502.09) rotate(95.87)"><tspan x="0" y="0"> </tspan></text>
  <text class="cls-1" transform="translate(902.05 527.33) rotate(99.21)"><tspan x="0" y="0">G</tspan></text>
  <text class="cls-1" transform="translate(898 552.38) rotate(102.56)"><tspan x="0" y="0">R</tspan></text>
  <text class="cls-1" transform="translate(892.5 577.15) rotate(105.92)"><tspan x="0" y="0">A</tspan></text>
  <text class="cls-1" transform="translate(885.55 601.55) rotate(109.28)"><tspan x="0" y="0">P</tspan></text>
  <text class="cls-1" transform="translate(877.19 625.51) rotate(112.64)"><tspan x="0" y="0">H</tspan></text>
  <text class="cls-1" transform="translate(867.43 648.94) rotate(115.99)"><tspan x="0" y="0">I</tspan></text>
  <text class="cls-1" transform="translate(856.32 671.75) rotate(119.33)"><tspan x="0" y="0">C</tspan></text>
  <text class="cls-1" transform="translate(843.9 693.88) rotate(122.67)"><tspan x="0" y="0"> </tspan></text>
  <text class="cls-1" transform="translate(830.21 715.25) rotate(126)"><tspan x="0" y="0">D</tspan></text>
  <text class="cls-1" transform="translate(815.31 735.78) rotate(129.32)"><tspan x="0" y="0">E</tspan></text>
  <text class="cls-1" transform="translate(799.24 755.43) rotate(132.64)"><tspan x="0" y="0">S</tspan></text>
  <text class="cls-1" transform="translate(782.06 774.1) rotate(135.95)"><tspan x="0" y="0">I</tspan></text>
  <text class="cls-1" transform="translate(763.83 791.76) rotate(139.27)"><tspan x="0" y="0">G</tspan></text>
  <text class="cls-1" transform="translate(744.61 808.33) rotate(142.58)"><tspan x="0" y="0">N</tspan></text>
  <text class="cls-1" transform="translate(724.46 823.75) rotate(145.91)"><tspan x="0" y="0"> </tspan></text>
  <text class="cls-1" transform="translate(703.44 837.99) rotate(149.24)"><tspan x="0" y="0">P</tspan></text>
  <text class="cls-1" transform="translate(681.64 850.98) rotate(152.58)"><tspan x="0" y="0">O</tspan></text>
  <text class="cls-1" transform="translate(659.12 862.68) rotate(155.93)"><tspan x="0" y="0">R</tspan></text>
  <text class="cls-1" transform="translate(635.97 873.03) rotate(159.29)"><tspan x="0" y="0">T</tspan></text>
  <text class="cls-1" transform="translate(612.23 882.02) rotate(162.65)"><tspan x="0" y="0">F</tspan></text>
  <text class="cls-1" transform="translate(588.01 889.6) rotate(166.01)"><tspan x="0" y="0">O</tspan></text>
  <text class="cls-1" transform="translate(563.4 895.74) rotate(169.37)"><tspan x="0" y="0">L</tspan></text>
  <text class="cls-1" transform="translate(538.47 900.43) rotate(172.71)"><tspan x="0" y="0">I</tspan></text>
  <text class="cls-1" transform="translate(513.31 903.67) rotate(176.03)"><tspan x="0" y="0">O</tspan></text>
  <text class="cls-1" transform="translate(487.94 905.38) rotate(179.07)"><tspan x="0" y="0"> </tspan></text>
  <text class="cls-1" transform="translate(462.59 905.75) rotate(-177.4)"><tspan x="0" y="0">|</tspan></text>
  <text class="cls-1" transform="translate(437.24 904.61) rotate(-174.09)"><tspan x="0" y="0"> </tspan></text>
  <text class="cls-1" transform="translate(411.99 902.01) rotate(-170.76)"><tspan x="0" y="0">G</tspan></text>
  <text class="cls-1" transform="translate(386.94 897.95) rotate(-167.4)"><tspan x="0" y="0">R</tspan></text>
  <text class="cls-1" transform="translate(362.17 892.43) rotate(-164.04)"><tspan x="0" y="0">A</tspan></text>
  <text class="cls-1" transform="translate(337.78 885.47) rotate(-160.68)"><tspan x="0" y="0">P</tspan></text>
  <text class="cls-1" transform="translate(313.83 877.08) rotate(-157.33)"><tspan x="0" y="0">H</tspan></text>
  <text class="cls-1" transform="translate(290.41 867.31) rotate(-153.97)"><tspan x="0" y="0">I</tspan></text>
  <text class="cls-1" transform="translate(267.62 856.2) rotate(-150.63)"><tspan x="0" y="0">C</tspan></text>
  <text class="cls-1" transform="translate(245.48 843.75) rotate(-147.29)"><tspan x="0" y="0"> </tspan></text>
  <text class="cls-1" transform="translate(224.12 830.05) rotate(-143.96)"><tspan x="0" y="0">D</tspan></text>
  <text class="cls-1" transform="translate(203.6 815.14) rotate(-140.64)"><tspan x="0" y="0">E</tspan></text>
  <text class="cls-1" transform="translate(183.97 799.05) rotate(-137.33)"><tspan x="0" y="0">S</tspan></text>
  <text class="cls-1" transform="translate(165.3 781.86) rotate(-134.01)"><tspan x="0" y="0">I</tspan></text>
  <text class="cls-1" transform="translate(147.66 763.62) rotate(-130.7)"><tspan x="0" y="0">G</tspan></text>
  <text class="cls-1" transform="translate(131.1 744.38) rotate(-127.38)"><tspan x="0" y="0">N</tspan></text>
  <text class="cls-1" transform="translate(115.69 724.23) rotate(-124.05)"><tspan x="0" y="0"> </tspan></text>
  <text class="cls-1" transform="translate(101.46 703.2) rotate(-120.72)"><tspan x="0" y="0">P</tspan></text>
  <text class="cls-1" transform="translate(88.49 681.39) rotate(-117.38)"><tspan x="0" y="0">O</tspan></text>
  <text class="cls-1" transform="translate(76.81 658.86) rotate(-114.03)"><tspan x="0" y="0">R</tspan></text>
  <text class="cls-1" transform="translate(66.47 635.7) rotate(-110.67)"><tspan x="0" y="0">T</tspan></text>
  <text class="cls-1" transform="translate(57.5 611.96) rotate(-107.31)"><tspan x="0" y="0">F</tspan></text>
  <text class="cls-1" transform="translate(49.94 587.75) rotate(-103.95)"><tspan x="0" y="0">O</tspan></text>
  <text class="cls-1" transform="translate(43.81 563.13) rotate(-100.6)"><tspan x="0" y="0">L</tspan></text>
  <text class="cls-1" transform="translate(39.13 538.19) rotate(-97.26)"><tspan x="0" y="0">I</tspan></text>
  <text class="cls-1" transform="translate(35.91 513) rotate(-93.93)"><tspan x="0" y="0">O</tspan></text>
  <text class="cls-1" transform="translate(34.23 487.63) rotate(-90.93)"><tspan x="0" y="0"> </tspan></text>
  <text class="cls-1" transform="translate(33.86 462.31) rotate(-87.36)"><tspan x="0" y="0">|</tspan></text>
  <text class="cls-1" transform="translate(35.02 436.96) rotate(-84.05)"><tspan x="0" y="0"> </tspan></text>
  <text class="cls-1" transform="translate(37.63 411.71) rotate(-80.72)"><tspan x="0" y="0">G</tspan></text>
  <text class="cls-1" transform="translate(41.71 386.67) rotate(-77.37)"><tspan x="0" y="0">R</tspan></text>
  <text class="cls-1" transform="translate(47.25 361.91) rotate(-74.01)"><tspan x="0" y="0">A</tspan></text>
  <text class="cls-1" transform="translate(54.23 337.5) rotate(-70.65)"><tspan x="0" y="0">P</tspan></text>
  <text class="cls-1" transform="translate(62.63 313.56) rotate(-67.29)"><tspan x="0" y="0">H</tspan></text>
  <text class="cls-1" transform="translate(72.42 290.15) rotate(-63.93)"><tspan x="0" y="0">I</tspan></text>
  <text class="cls-1" transform="translate(83.54 267.37) rotate(-60.59)"><tspan x="0" y="0">C</tspan></text>
  <text class="cls-1" transform="translate(96 245.24) rotate(-57.25)"><tspan x="0" y="0"> </tspan></text>
  <text class="cls-1" transform="translate(109.72 223.89) rotate(-53.93)"><tspan x="0" y="0">D</tspan></text>
  <text class="cls-1" transform="translate(124.65 203.38) rotate(-50.61)"><tspan x="0" y="0">E</tspan></text>
  <text class="cls-1" transform="translate(140.75 183.75) rotate(-47.29)"><tspan x="0" y="0">S</tspan></text>
  <text class="cls-1" transform="translate(157.95 165.1) rotate(-43.98)"><tspan x="0" y="0">I</tspan></text>
  <text class="cls-1" transform="translate(176.2 147.47) rotate(-40.66)"><tspan x="0" y="0">G</tspan></text>
  <text class="cls-1" transform="translate(195.46 130.91) rotate(-37.34)"><tspan x="0" y="0">N</tspan></text>
  <text class="cls-1" transform="translate(215.61 115.52) rotate(-34.02)"><tspan x="0" y="0"> </tspan></text>
  <text class="cls-1" transform="translate(236.65 101.31) rotate(-30.68)"><tspan x="0" y="0">P</tspan></text>
  <text class="cls-1" transform="translate(258.47 88.35) rotate(-27.34)"><tspan x="0" y="0">O</tspan></text>
  <text class="cls-1" transform="translate(281.01 76.68) rotate(-23.99)"><tspan x="0" y="0">R</tspan></text>
  <text class="cls-1" transform="translate(304.18 66.36) rotate(-20.63)"><tspan x="0" y="0">T</tspan></text>
  <text class="cls-1" transform="translate(327.93 57.4) rotate(-17.27)"><tspan x="0" y="0">F</tspan></text>
  <text class="cls-1" transform="translate(352.15 49.86) rotate(-13.91)"><tspan x="0" y="0">O</tspan></text>
  <text class="cls-1" transform="translate(376.77 43.75) rotate(-10.56)"><tspan x="0" y="0">L</tspan></text>
  <text class="cls-1" transform="translate(401.71 39.09) rotate(-7.22)"><tspan x="0" y="0">I</tspan></text>
  <text class="cls-1" transform="translate(426.89 35.89) rotate(-3.9)"><tspan x="0" y="0">O</tspan></text>
  <text class="cls-1" transform="translate(452.26 34.22) rotate(-.93)"><tspan x="0" y="0"> </tspan></text>
  <text class="cls-1" transform="translate(477.6 33.87) rotate(2.68)"><tspan x="0" y="0">|</tspan></text>
  <text class="cls-1" transform="translate(502.95 35.04) rotate(5.99)"><tspan x="0" y="0"> </tspan></text>
</svg>