<?xml version="1.0" encoding="UTF-8"?>
<svg id="Layer_1" xmlns="http://www.w3.org/2000/svg" viewBox="0 0 939.61 939.61">
  <defs>
    <style>
      .cls-1 {
        fill: #6a9953;
        font-family: PTMono-Bold, 'PT Mono';
        font-size: 41px;
        font-weight: 700;
      }
    </style>
  </defs>
  <text class="cls-1" transform="translate(527.07 37.54) rotate(9.09)"><tspan x="0" y="0">H</tspan></text>
  <text class="cls-1" transform="translate(550.97 41.36) rotate(12.29)"><tspan x="0" y="0">O</tspan></text>
  <text class="cls-1" transform="translate(574.63 46.5) rotate(15.49)"><tspan x="0" y="0">M</tspan></text>
  <text class="cls-1" transform="translate(597.97 52.96) rotate(18.7)"><tspan x="0" y="0">E</tspan></text>
  <text class="cls-1" transform="translate(620.92 60.71) rotate(21.91)"><tspan x="0" y="0"> </tspan></text>
  <text class="cls-1" transform="translate(643.39 69.74) rotate(25.11)"><tspan x="0" y="0">|</tspan></text>
  <text class="cls-1" transform="translate(665.31 80) rotate(28.3)"><tspan x="0" y="0"> </tspan></text>
  <text class="cls-1" transform="translate(686.63 91.47) rotate(31.49)"><tspan x="0" y="0">H</tspan></text>
  <text class="cls-1" transform="translate(707.3 104.12) rotate(34.67)"><tspan x="0" y="0">O</tspan></text>
  <text class="cls-1" transform="translate(727.22 117.89) rotate(37.84)"><tspan x="0" y="0">M</tspan></text>
  <text class="cls-1" transform="translate(746.35 132.73) rotate(41.01)"><tspan x="0" y="0">E</tspan></text>
  <text class="cls-1" transform="translate(764.64 148.62) rotate(44.17)"><tspan x="0" y="0"> </tspan></text>
  <text class="cls-1" transform="translate(782.03 165.5) rotate(47.34)"><tspan x="0" y="0">|</tspan></text>
  <text class="cls-1" transform="translate(798.43 183.28) rotate(50.5)"><tspan x="0" y="0"> </tspan></text>
  <text class="cls-1" transform="translate(813.85 201.97) rotate(53.67)"><tspan x="0" y="0">H</tspan></text>
  <text class="cls-1" transform="translate(828.2 221.47) rotate(56.85)"><tspan x="0" y="0">O</tspan></text>
  <text class="cls-1" transform="translate(841.47 241.76) rotate(60.03)"><tspan x="0" y="0">M</tspan></text>
  <text class="cls-1" transform="translate(853.57 262.72) rotate(63.22)"><tspan x="0" y="0">E</tspan></text>
  <text class="cls-1" transform="translate(864.49 284.33) rotate(66.42)"><tspan x="0" y="0"> </tspan></text>
  <text class="cls-1" transform="translate(874.18 306.51) rotate(69.62)"><tspan x="0" y="0">|</tspan></text>
  <text class="cls-1" transform="translate(882.63 329.22) rotate(72.83)"><tspan x="0" y="0"> </tspan></text>
  <text class="cls-1" transform="translate(889.79 352.34) rotate(76.03)"><tspan x="0" y="0">H</tspan></text>
  <text class="cls-1" transform="translate(895.64 375.85) rotate(79.24)"><tspan x="0" y="0">O</tspan></text>
  <text class="cls-1" transform="translate(900.18 399.64) rotate(82.43)"><tspan x="0" y="0">M</tspan></text>
  <text class="cls-1" transform="translate(903.38 423.64) rotate(85.6)"><tspan x="0" y="0">E</tspan></text>
  <text class="cls-1" transform="translate(905.24 447.79) rotate(88.75)"><tspan x="0" y="0"> </tspan></text>
  <text class="cls-1" transform="translate(905.78 472) rotate(91.87)"><tspan x="0" y="0">|</tspan></text>
  <text class="cls-1" transform="translate(905 496.22) rotate(95.02)"><tspan x="0" y="0"> </tspan></text>
  <text class="cls-1" transform="translate(902.89 520.34) rotate(98.2)"><tspan x="0" y="0">H</tspan></text>
  <text class="cls-1" transform="translate(899.45 544.31) rotate(101.39)"><tspan x="0" y="0">O</tspan></text>
  <text class="cls-1" transform="translate(894.68 568.04) rotate(104.6)"><tspan x="0" y="0">M</tspan></text>
  <text class="cls-1" transform="translate(888.59 591.48) rotate(107.8)"><tspan x="0" y="0">E</tspan></text>
  <text class="cls-1" transform="translate(881.19 614.54) rotate(111.01)"><tspan x="0" y="0"> </tspan></text>
  <text class="cls-1" transform="translate(872.52 637.15) rotate(114.21)"><tspan x="0" y="0">|</tspan></text>
  <text class="cls-1" transform="translate(862.6 659.23) rotate(117.41)"><tspan x="0" y="0"> </tspan></text>
  <text class="cls-1" transform="translate(851.46 680.75) rotate(120.6)"><tspan x="0" y="0">H</tspan></text>
  <text class="cls-1" transform="translate(839.15 701.58) rotate(123.78)"><tspan x="0" y="0">O</tspan></text>
  <text class="cls-1" transform="translate(825.68 721.73) rotate(126.95)"><tspan x="0" y="0">M</tspan></text>
  <text class="cls-1" transform="translate(811.13 741.09) rotate(130.12)"><tspan x="0" y="0">E</tspan></text>
  <text class="cls-1" transform="translate(795.54 759.61) rotate(133.29)"><tspan x="0" y="0"> </tspan></text>
  <text class="cls-1" transform="translate(778.93 777.25) rotate(136.45)"><tspan x="0" y="0">|</tspan></text>
  <text class="cls-1" transform="translate(761.39 793.94) rotate(139.62)"><tspan x="0" y="0"> </tspan></text>
  <text class="cls-1" transform="translate(742.94 809.65) rotate(142.79)"><tspan x="0" y="0">H</tspan></text>
  <text class="cls-1" transform="translate(723.66 824.3) rotate(145.96)"><tspan x="0" y="0">O</tspan></text>
  <text class="cls-1" transform="translate(703.6 837.87) rotate(149.14)"><tspan x="0" y="0">M</tspan></text>
  <text class="cls-1" transform="translate(682.83 850.29) rotate(152.32)"><tspan x="0" y="0">E</tspan></text>
  <text class="cls-1" transform="translate(661.37 861.56) rotate(155.52)"><tspan x="0" y="0"> </tspan></text>
  <text class="cls-1" transform="translate(639.35 871.6) rotate(158.72)"><tspan x="0" y="0">|</tspan></text>
  <text class="cls-1" transform="translate(616.8 880.39) rotate(161.93)"><tspan x="0" y="0"> </tspan></text>
  <text class="cls-1" transform="translate(593.77 887.92) rotate(165.14)"><tspan x="0" y="0">H</tspan></text>
  <text class="cls-1" transform="translate(570.37 894.14) rotate(168.34)"><tspan x="0" y="0">O</tspan></text>
  <text class="cls-1" transform="translate(546.65 899.04) rotate(171.54)"><tspan x="0" y="0">M</tspan></text>
  <text class="cls-1" transform="translate(522.7 902.62) rotate(174.72)"><tspan x="0" y="0">E</tspan></text>
  <text class="cls-1" transform="translate(498.59 904.86) rotate(177.87)"><tspan x="0" y="0"> </tspan></text>
  <text class="cls-1" transform="translate(474.38 905.77) rotate(-179.01)"><tspan x="0" y="0">|</tspan></text>
  <text class="cls-1" transform="translate(450.16 905.36) rotate(-175.86)"><tspan x="0" y="0"> </tspan></text>
  <text class="cls-1" transform="translate(426.01 903.62) rotate(-172.69)"><tspan x="0" y="0">H</tspan></text>
  <text class="cls-1" transform="translate(401.99 900.55) rotate(-169.5)"><tspan x="0" y="0">O</tspan></text>
  <text class="cls-1" transform="translate(378.17 896.15) rotate(-166.3)"><tspan x="0" y="0">M</tspan></text>
  <text class="cls-1" transform="translate(354.66 890.43) rotate(-163.09)"><tspan x="0" y="0">E</tspan></text>
  <text class="cls-1" transform="translate(331.47 883.39) rotate(-159.88)"><tspan x="0" y="0"> </tspan></text>
  <text class="cls-1" transform="translate(308.72 875.07) rotate(-156.68)"><tspan x="0" y="0">|</tspan></text>
  <text class="cls-1" transform="translate(286.49 865.5) rotate(-153.48)"><tspan x="0" y="0"> </tspan></text>
  <text class="cls-1" transform="translate(264.81 854.69) rotate(-150.29)"><tspan x="0" y="0">H</tspan></text>
  <text class="cls-1" transform="translate(243.78 842.71) rotate(-147.11)"><tspan x="0" y="0">O</tspan></text>
  <text class="cls-1" transform="translate(223.44 829.56) rotate(-143.93)"><tspan x="0" y="0">M</tspan></text>
  <text class="cls-1" transform="translate(203.85 815.31) rotate(-140.76)"><tspan x="0" y="0">E</tspan></text>
  <text class="cls-1" transform="translate(185.08 800) rotate(-137.6)"><tspan x="0" y="0"> </tspan></text>
  <text class="cls-1" transform="translate(167.2 783.68) rotate(-134.43)"><tspan x="0" y="0">|</tspan></text>
  <text class="cls-1" transform="translate(150.23 766.38) rotate(-131.27)"><tspan x="0" y="0"> </tspan></text>
  <text class="cls-1" transform="translate(134.26 748.2) rotate(-128.1)"><tspan x="0" y="0">H</tspan></text>
  <text class="cls-1" transform="translate(119.29 729.13) rotate(-124.93)"><tspan x="0" y="0">O</tspan></text>
  <text class="cls-1" transform="translate(105.42 709.3) rotate(-121.75)"><tspan x="0" y="0">M</tspan></text>
  <text class="cls-1" transform="translate(92.67 688.7) rotate(-118.57)"><tspan x="0" y="0">E</tspan></text>
  <text class="cls-1" transform="translate(81.08 667.44) rotate(-115.37)"><tspan x="0" y="0"> </tspan></text>
  <text class="cls-1" transform="translate(70.69 645.57) rotate(-112.17)"><tspan x="0" y="0">|</tspan></text>
  <text class="cls-1" transform="translate(61.55 623.15) rotate(-108.97)"><tspan x="0" y="0"> </tspan></text>
  <text class="cls-1" transform="translate(53.66 600.25) rotate(-105.76)"><tspan x="0" y="0">H</tspan></text>
  <text class="cls-1" transform="translate(47.07 576.93) rotate(-102.55)"><tspan x="0" y="0">O</tspan></text>
  <text class="cls-1" transform="translate(41.8 553.31) rotate(-99.35)"><tspan x="0" y="0">M</tspan></text>
  <text class="cls-1" transform="translate(37.86 529.42) rotate(-96.17)"><tspan x="0" y="0">E</tspan></text>
  <text class="cls-1" transform="translate(35.24 505.34) rotate(-93.01)"><tspan x="0" y="0"> </tspan></text>
  <text class="cls-1" transform="translate(33.79 481.24) rotate(-89.07)"><tspan x="0" y="0">|</tspan></text>
  <text class="cls-1" transform="translate(34 456.92) rotate(-86.74)"><tspan x="0" y="0"> </tspan></text>
  <text class="cls-1" transform="translate(35.37 432.75) rotate(-83.58)"><tspan x="0" y="0">H</tspan></text>
  <text class="cls-1" transform="translate(38.07 408.69) rotate(-80.4)"><tspan x="0" y="0">O</tspan></text>
  <text class="cls-1" transform="translate(42.09 384.82) rotate(-77.2)"><tspan x="0" y="0">M</tspan></text>
  <text class="cls-1" transform="translate(47.45 361.19) rotate(-73.99)"><tspan x="0" y="0">E</tspan></text>
  <text class="cls-1" transform="translate(54.12 337.91) rotate(-70.78)"><tspan x="0" y="0"> </tspan></text>
  <text class="cls-1" transform="translate(62.08 315.04) rotate(-67.58)"><tspan x="0" y="0">|</tspan></text>
  <text class="cls-1" transform="translate(71.31 292.66) rotate(-64.38)"><tspan x="0" y="0"> </tspan></text>
  <text class="cls-1" transform="translate(81.77 270.82) rotate(-61.18)"><tspan x="0" y="0">H</tspan></text>
  <text class="cls-1" transform="translate(93.43 249.6) rotate(-58)"><tspan x="0" y="0">O</tspan></text>
  <text class="cls-1" transform="translate(106.27 229.04) rotate(-54.82)"><tspan x="0" y="0">M</tspan></text>
  <text class="cls-1" transform="translate(120.21 209.25) rotate(-51.65)"><tspan x="0" y="0">E</tspan></text>
  <text class="cls-1" transform="translate(135.23 190.24) rotate(-48.48)"><tspan x="0" y="0"> </tspan></text>
  <text class="cls-1" transform="translate(151.27 172.11) rotate(-45.32)"><tspan x="0" y="0">|</tspan></text>
  <text class="cls-1" transform="translate(168.29 154.89) rotate(-42.16)"><tspan x="0" y="0"> </tspan></text>
  <text class="cls-1" transform="translate(186.25 138.61) rotate(-38.99)"><tspan x="0" y="0">H</tspan></text>
  <text class="cls-1" transform="translate(205.06 123.37) rotate(-35.82)"><tspan x="0" y="0">O</tspan></text>
  <text class="cls-1" transform="translate(224.69 109.2) rotate(-32.64)"><tspan x="0" y="0">M</tspan></text>
  <text class="cls-1" transform="translate(245.08 96.12) rotate(-29.46)"><tspan x="0" y="0">E</tspan></text>
  <text class="cls-1" transform="translate(266.16 84.2) rotate(-26.27)"><tspan x="0" y="0"> </tspan></text>
  <text class="cls-1" transform="translate(287.86 73.48) rotate(-23.07)"><tspan x="0" y="0">|</tspan></text>
  <text class="cls-1" transform="translate(310.15 63.97) rotate(-19.86)"><tspan x="0" y="0"> </tspan></text>
  <text class="cls-1" transform="translate(332.91 55.74) rotate(-16.66)"><tspan x="0" y="0">H</tspan></text>
  <text class="cls-1" transform="translate(356.11 48.79) rotate(-13.45)"><tspan x="0" y="0">O</tspan></text>
  <text class="cls-1" transform="translate(379.67 43.14) rotate(-10.25)"><tspan x="0" y="0">M</tspan></text>
  <text class="cls-1" transform="translate(403.5 38.83) rotate(-7.06)"><tspan x="0" y="0">E</tspan></text>
  <text class="cls-1" transform="translate(427.53 35.84) rotate(-3.89)"><tspan x="0" y="0"> </tspan></text>
  <text class="cls-1" transform="translate(451.72 34.23) rotate(-.93)"><tspan x="0" y="0">|</tspan></text>
  <text class="cls-1" transform="translate(475.91 33.86) rotate(2.38)"><tspan x="0" y="0"> </tspan></text>
</svg>