<?xml version="1.0" encoding="UTF-8"?>
<svg id="Layer_1" xmlns="http://www.w3.org/2000/svg" viewBox="0 0 943.01 943.02">
  <defs>
    <style>
      .cls-1 {
        fill: #6a9953;
        font-family: PTMono-Bold, 'PT Mono';
        font-size: 42px;
        font-weight: 700;
      }
    </style>
  </defs>
  <text class="cls-1" transform="translate(528.75 39.24) rotate(9.13)"><tspan x="0" y="0">P</tspan></text>
  <text class="cls-1" transform="translate(553.23 43.16) rotate(12.4)"><tspan x="0" y="0">R</tspan></text>
  <text class="cls-1" transform="translate(577.46 48.47) rotate(15.69)"><tspan x="0" y="0">O</tspan></text>
  <text class="cls-1" transform="translate(601.33 55.17) rotate(18.97)"><tspan x="0" y="0">J</tspan></text>
  <text class="cls-1" transform="translate(624.77 63.21) rotate(22.25)"><tspan x="0" y="0">E</tspan></text>
  <text class="cls-1" transform="translate(647.74 72.6) rotate(25.53)"><tspan x="0" y="0">C</tspan></text>
  <text class="cls-1" transform="translate(670.12 83.27) rotate(28.8)"><tspan x="0" y="0">T</tspan></text>
  <text class="cls-1" transform="translate(691.85 95.21) rotate(32.06)"><tspan x="0" y="0">S</tspan></text>
  <text class="cls-1" transform="translate(712.88 108.37) rotate(35.32)"><tspan x="0" y="0"> </tspan></text>
  <text class="cls-1" transform="translate(733.11 122.69) rotate(38.56)"><tspan x="0" y="0">|</tspan></text>
  <text class="cls-1" transform="translate(752.51 138.13) rotate(41.8)"><tspan x="0" y="0"> </tspan></text>
  <text class="cls-1" transform="translate(771 154.66) rotate(45.04)"><tspan x="0" y="0">P</tspan></text>
  <text class="cls-1" transform="translate(788.54 172.2) rotate(48.28)"><tspan x="0" y="0">R</tspan></text>
  <text class="cls-1" transform="translate(805.05 190.7) rotate(51.52)"><tspan x="0" y="0">O</tspan></text>
  <text class="cls-1" transform="translate(820.48 210.1) rotate(54.77)"><tspan x="0" y="0">J</tspan></text>
  <text class="cls-1" transform="translate(834.8 230.36) rotate(58.03)"><tspan x="0" y="0">E</tspan></text>
  <text class="cls-1" transform="translate(847.94 251.39) rotate(61.29)"><tspan x="0" y="0">C</tspan></text>
  <text class="cls-1" transform="translate(859.86 273.13) rotate(64.56)"><tspan x="0" y="0">T</tspan></text>
  <text class="cls-1" transform="translate(870.52 295.51) rotate(67.83)"><tspan x="0" y="0">S</tspan></text>
  <text class="cls-1" transform="translate(879.89 318.47) rotate(71.12)"><tspan x="0" y="0"> </tspan></text>
  <text class="cls-1" transform="translate(887.93 341.92) rotate(74.4)"><tspan x="0" y="0">|</tspan></text>
  <text class="cls-1" transform="translate(894.61 365.81) rotate(77.68)"><tspan x="0" y="0"> </tspan></text>
  <text class="cls-1" transform="translate(899.91 390.04) rotate(80.96)"><tspan x="0" y="0">P</tspan></text>
  <text class="cls-1" transform="translate(903.81 414.5) rotate(84.21)"><tspan x="0" y="0">R</tspan></text>
  <text class="cls-1" transform="translate(906.32 439.2) rotate(87.45)"><tspan x="0" y="0">O</tspan></text>
  <text class="cls-1" transform="translate(907.5 463.93) rotate(90.93)"><tspan x="0" y="0">J</tspan></text>
  <text class="cls-1" transform="translate(907.17 488.77) rotate(93.87)"><tspan x="0" y="0">E</tspan></text>
  <text class="cls-1" transform="translate(905.51 513.51) rotate(97.11)"><tspan x="0" y="0">C</tspan></text>
  <text class="cls-1" transform="translate(902.45 538.11) rotate(100.37)"><tspan x="0" y="0">T</tspan></text>
  <text class="cls-1" transform="translate(898 562.5) rotate(103.65)"><tspan x="0" y="0">S</tspan></text>
  <text class="cls-1" transform="translate(892.15 586.61) rotate(106.94)"><tspan x="0" y="0"> </tspan></text>
  <text class="cls-1" transform="translate(884.95 610.32) rotate(110.22)"><tspan x="0" y="0">|</tspan></text>
  <text class="cls-1" transform="translate(876.38 633.59) rotate(113.5)"><tspan x="0" y="0"> </tspan></text>
  <text class="cls-1" transform="translate(866.5 656.35) rotate(116.78)"><tspan x="0" y="0">P</tspan></text>
  <text class="cls-1" transform="translate(855.34 678.49) rotate(120.05)"><tspan x="0" y="0">R</tspan></text>
  <text class="cls-1" transform="translate(842.95 699.94) rotate(123.3)"><tspan x="0" y="0">O</tspan></text>
  <text class="cls-1" transform="translate(829.33 720.68) rotate(126.55)"><tspan x="0" y="0">J</tspan></text>
  <text class="cls-1" transform="translate(814.57 740.62) rotate(129.8)"><tspan x="0" y="0">E</tspan></text>
  <text class="cls-1" transform="translate(798.71 759.67) rotate(133.04)"><tspan x="0" y="0">C</tspan></text>
  <text class="cls-1" transform="translate(781.79 777.81) rotate(136.28)"><tspan x="0" y="0">T</tspan></text>
  <text class="cls-1" transform="translate(763.88 794.95) rotate(139.52)"><tspan x="0" y="0">S</tspan></text>
  <text class="cls-1" transform="translate(745.02 811.06) rotate(142.76)"><tspan x="0" y="0"> </tspan></text>
  <text class="cls-1" transform="translate(725.28 826.08) rotate(146.01)"><tspan x="0" y="0">|</tspan></text>
  <text class="cls-1" transform="translate(704.73 839.95) rotate(149.27)"><tspan x="0" y="0"> </tspan></text>
  <text class="cls-1" transform="translate(683.44 852.62) rotate(152.53)"><tspan x="0" y="0">P</tspan></text>
  <text class="cls-1" transform="translate(661.43 864.08) rotate(155.81)"><tspan x="0" y="0">R</tspan></text>
  <text class="cls-1" transform="translate(638.82 874.25) rotate(159.08)"><tspan x="0" y="0">O</tspan></text>
  <text class="cls-1" transform="translate(615.67 883.11) rotate(162.37)"><tspan x="0" y="0">J</tspan></text>
  <text class="cls-1" transform="translate(592.02 890.64) rotate(165.66)"><tspan x="0" y="0">E</tspan></text>
  <text class="cls-1" transform="translate(568.02 896.79) rotate(168.93)"><tspan x="0" y="0">C</tspan></text>
  <text class="cls-1" transform="translate(543.69 901.56) rotate(172.2)"><tspan x="0" y="0">T</tspan></text>
  <text class="cls-1" transform="translate(519.11 904.94) rotate(175.45)"><tspan x="0" y="0">S</tspan></text>
  <text class="cls-1" transform="translate(494.39 906.91) rotate(178.67)"><tspan x="0" y="0"> </tspan></text>
  <text class="cls-1" transform="translate(469.59 907.5) rotate(-178.13)"><tspan x="0" y="0">|</tspan></text>
  <text class="cls-1" transform="translate(444.81 906.7) rotate(-174.9)"><tspan x="0" y="0"> </tspan></text>
  <text class="cls-1" transform="translate(420.1 904.51) rotate(-171.64)"><tspan x="0" y="0">P</tspan></text>
  <text class="cls-1" transform="translate(395.56 900.92) rotate(-168.37)"><tspan x="0" y="0">R</tspan></text>
  <text class="cls-1" transform="translate(371.29 895.93) rotate(-165.09)"><tspan x="0" y="0">O</tspan></text>
  <text class="cls-1" transform="translate(347.33 889.57) rotate(-161.81)"><tspan x="0" y="0">J</tspan></text>
  <text class="cls-1" transform="translate(323.76 881.84) rotate(-158.53)"><tspan x="0" y="0">E</tspan></text>
  <text class="cls-1" transform="translate(300.7 872.78) rotate(-155.25)"><tspan x="0" y="0">C</tspan></text>
  <text class="cls-1" transform="translate(278.16 862.4) rotate(-151.98)"><tspan x="0" y="0">T</tspan></text>
  <text class="cls-1" transform="translate(256.27 850.76) rotate(-148.71)"><tspan x="0" y="0">S</tspan></text>
  <text class="cls-1" transform="translate(235.07 837.89) rotate(-145.46)"><tspan x="0" y="0"> </tspan></text>
  <text class="cls-1" transform="translate(214.64 823.84) rotate(-142.21)"><tspan x="0" y="0">|</tspan></text>
  <text class="cls-1" transform="translate(195.03 808.65) rotate(-138.97)"><tspan x="0" y="0"> </tspan></text>
  <text class="cls-1" transform="translate(176.32 792.38) rotate(-135.73)"><tspan x="0" y="0">P</tspan></text>
  <text class="cls-1" transform="translate(158.55 775.07) rotate(-132.49)"><tspan x="0" y="0">R</tspan></text>
  <text class="cls-1" transform="translate(141.8 756.8) rotate(-129.25)"><tspan x="0" y="0">O</tspan></text>
  <text class="cls-1" transform="translate(126.1 737.6) rotate(-126)"><tspan x="0" y="0">J</tspan></text>
  <text class="cls-1" transform="translate(111.51 717.54) rotate(-122.75)"><tspan x="0" y="0">E</tspan></text>
  <text class="cls-1" transform="translate(98.09 696.69) rotate(-119.49)"><tspan x="0" y="0">C</tspan></text>
  <text class="cls-1" transform="translate(85.87 675.12) rotate(-116.22)"><tspan x="0" y="0">T</tspan></text>
  <text class="cls-1" transform="translate(74.9 652.87) rotate(-112.94)"><tspan x="0" y="0">S</tspan></text>
  <text class="cls-1" transform="translate(65.23 630.05) rotate(-109.66)"><tspan x="0" y="0"> </tspan></text>
  <text class="cls-1" transform="translate(56.88 606.7) rotate(-106.38)"><tspan x="0" y="0">|</tspan></text>
  <text class="cls-1" transform="translate(49.88 582.92) rotate(-103.1)"><tspan x="0" y="0"> </tspan></text>
  <text class="cls-1" transform="translate(44.25 558.76) rotate(-99.82)"><tspan x="0" y="0">P</tspan></text>
  <text class="cls-1" transform="translate(40.01 534.35) rotate(-96.56)"><tspan x="0" y="0">R</tspan></text>
  <text class="cls-1" transform="translate(37.17 509.71) rotate(-93.32)"><tspan x="0" y="0">O</tspan></text>
  <text class="cls-1" transform="translate(35.9 485.01) rotate(-90.93)"><tspan x="0" y="0">J</tspan></text>
  <text class="cls-1" transform="translate(35.66 460.14) rotate(-86.9)"><tspan x="0" y="0">E</tspan></text>
  <text class="cls-1" transform="translate(36.99 435.38) rotate(-83.66)"><tspan x="0" y="0">C</tspan></text>
  <text class="cls-1" transform="translate(39.71 410.73) rotate(-80.4)"><tspan x="0" y="0">T</tspan></text>
  <text class="cls-1" transform="translate(43.84 386.28) rotate(-77.12)"><tspan x="0" y="0">S</tspan></text>
  <text class="cls-1" transform="translate(49.35 362.12) rotate(-73.84)"><tspan x="0" y="0"> </tspan></text>
  <text class="cls-1" transform="translate(56.24 338.29) rotate(-70.56)"><tspan x="0" y="0">|</tspan></text>
  <text class="cls-1" transform="translate(64.48 314.91) rotate(-67.28)"><tspan x="0" y="0"> </tspan></text>
  <text class="cls-1" transform="translate(74.05 292.03) rotate(-64)"><tspan x="0" y="0">P</tspan></text>
  <text class="cls-1" transform="translate(84.91 269.74) rotate(-60.73)"><tspan x="0" y="0">R</tspan></text>
  <text class="cls-1" transform="translate(97.03 248.1) rotate(-57.47)"><tspan x="0" y="0">O</tspan></text>
  <text class="cls-1" transform="translate(110.35 227.18) rotate(-54.22)"><tspan x="0" y="0">J</tspan></text>
  <text class="cls-1" transform="translate(124.85 207.05) rotate(-50.97)"><tspan x="0" y="0">E</tspan></text>
  <text class="cls-1" transform="translate(140.44 187.8) rotate(-47.73)"><tspan x="0" y="0">C</tspan></text>
  <text class="cls-1" transform="translate(157.11 169.44) rotate(-44.49)"><tspan x="0" y="0">T</tspan></text>
  <text class="cls-1" transform="translate(174.8 152.05) rotate(-41.25)"><tspan x="0" y="0">S</tspan></text>
  <text class="cls-1" transform="translate(193.43 135.69) rotate(-38.01)"><tspan x="0" y="0"> </tspan></text>
  <text class="cls-1" transform="translate(212.96 120.41) rotate(-34.76)"><tspan x="0" y="0">|</tspan></text>
  <text class="cls-1" transform="translate(233.34 106.25) rotate(-31.5)"><tspan x="0" y="0"> </tspan></text>
  <text class="cls-1" transform="translate(254.47 93.29) rotate(-28.24)"><tspan x="0" y="0">P</tspan></text>
  <text class="cls-1" transform="translate(276.3 81.55) rotate(-24.97)"><tspan x="0" y="0">R</tspan></text>
  <text class="cls-1" transform="translate(298.78 71.06) rotate(-21.69)"><tspan x="0" y="0">O</tspan></text>
  <text class="cls-1" transform="translate(321.82 61.89) rotate(-18.41)"><tspan x="0" y="0">J</tspan></text>
  <text class="cls-1" transform="translate(345.34 54.05) rotate(-15.13)"><tspan x="0" y="0">E</tspan></text>
  <text class="cls-1" transform="translate(369.27 47.57) rotate(-11.85)"><tspan x="0" y="0">C</tspan></text>
  <text class="cls-1" transform="translate(393.53 42.47) rotate(-8.57)"><tspan x="0" y="0">T</tspan></text>
  <text class="cls-1" transform="translate(418.06 38.76) rotate(-5.32)"><tspan x="0" y="0">S</tspan></text>
  <text class="cls-1" transform="translate(442.75 36.45) rotate(-2.09)"><tspan x="0" y="0"> </tspan></text>
  <text class="cls-1" transform="translate(467.53 35.53) rotate(1.11)"><tspan x="0" y="0">|</tspan></text>
  <text class="cls-1" transform="translate(492.33 36) rotate(4.33)"><tspan x="0" y="0"> </tspan></text>
</svg>