<?xml version="1.0" encoding="UTF-8"?>
<svg id="Layer_1" xmlns="http://www.w3.org/2000/svg" viewBox="0 0 939.61 939.61">
  <defs>
    <style>
      .cls-1 {
        fill: #6a9953;
        font-family: PTMono-Bold, 'PT Mono';
        font-size: 42px;
        font-weight: 700;
      }
    </style>
  </defs>
  <text class="cls-1" transform="translate(527.05 37.53) rotate(9.13)"><tspan x="0" y="0">D</tspan></text>
  <text class="cls-1" transform="translate(551.53 41.45) rotate(12.4)"><tspan x="0" y="0">Y</tspan></text>
  <text class="cls-1" transform="translate(575.75 46.77) rotate(15.69)"><tspan x="0" y="0">N</tspan></text>
  <text class="cls-1" transform="translate(599.62 53.46) rotate(18.97)"><tspan x="0" y="0">A</tspan></text>
  <text class="cls-1" transform="translate(623.07 61.51) rotate(22.25)"><tspan x="0" y="0">M</tspan></text>
  <text class="cls-1" transform="translate(646.04 70.89) rotate(25.53)"><tspan x="0" y="0">I</tspan></text>
  <text class="cls-1" transform="translate(668.41 81.57) rotate(28.8)"><tspan x="0" y="0">C</tspan></text>
  <text class="cls-1" transform="translate(690.14 93.5) rotate(32.06)"><tspan x="0" y="0"> </tspan></text>
  <text class="cls-1" transform="translate(711.18 106.66) rotate(35.32)"><tspan x="0" y="0">R</tspan></text>
  <text class="cls-1" transform="translate(731.41 120.98) rotate(38.56)"><tspan x="0" y="0">E</tspan></text>
  <text class="cls-1" transform="translate(750.8 136.43) rotate(41.8)"><tspan x="0" y="0">T</tspan></text>
  <text class="cls-1" transform="translate(769.3 152.95) rotate(45.04)"><tspan x="0" y="0">R</tspan></text>
  <text class="cls-1" transform="translate(786.83 170.5) rotate(48.28)"><tspan x="0" y="0">O</tspan></text>
  <text class="cls-1" transform="translate(803.34 189) rotate(51.52)"><tspan x="0" y="0"> </tspan></text>
  <text class="cls-1" transform="translate(818.77 208.4) rotate(54.77)"><tspan x="0" y="0">T</tspan></text>
  <text class="cls-1" transform="translate(833.1 228.66) rotate(58.03)"><tspan x="0" y="0">I</tspan></text>
  <text class="cls-1" transform="translate(846.24 249.68) rotate(61.29)"><tspan x="0" y="0">M</tspan></text>
  <text class="cls-1" transform="translate(858.16 271.42) rotate(64.56)"><tspan x="0" y="0">E</tspan></text>
  <text class="cls-1" transform="translate(868.82 293.81) rotate(67.83)"><tspan x="0" y="0">R</tspan></text>
  <text class="cls-1" transform="translate(878.19 316.76) rotate(71.12)"><tspan x="0" y="0"> </tspan></text>
  <text class="cls-1" transform="translate(886.22 340.22) rotate(74.4)"><tspan x="0" y="0">|</tspan></text>
  <text class="cls-1" transform="translate(892.9 364.11) rotate(77.68)"><tspan x="0" y="0"> </tspan></text>
  <text class="cls-1" transform="translate(898.2 388.33) rotate(80.96)"><tspan x="0" y="0">D</tspan></text>
  <text class="cls-1" transform="translate(902.11 412.8) rotate(84.21)"><tspan x="0" y="0">Y</tspan></text>
  <text class="cls-1" transform="translate(904.62 437.49) rotate(87.45)"><tspan x="0" y="0">N</tspan></text>
  <text class="cls-1" transform="translate(905.79 462.23) rotate(90.93)"><tspan x="0" y="0">A</tspan></text>
  <text class="cls-1" transform="translate(905.46 487.07) rotate(93.87)"><tspan x="0" y="0">M</tspan></text>
  <text class="cls-1" transform="translate(903.8 511.81) rotate(97.11)"><tspan x="0" y="0">I</tspan></text>
  <text class="cls-1" transform="translate(900.75 536.4) rotate(100.37)"><tspan x="0" y="0">C</tspan></text>
  <text class="cls-1" transform="translate(896.29 560.79) rotate(103.65)"><tspan x="0" y="0"> </tspan></text>
  <text class="cls-1" transform="translate(890.45 584.91) rotate(106.94)"><tspan x="0" y="0">R</tspan></text>
  <text class="cls-1" transform="translate(883.24 608.61) rotate(110.22)"><tspan x="0" y="0">E</tspan></text>
  <text class="cls-1" transform="translate(874.68 631.89) rotate(113.5)"><tspan x="0" y="0">T</tspan></text>
  <text class="cls-1" transform="translate(864.8 654.65) rotate(116.78)"><tspan x="0" y="0">R</tspan></text>
  <text class="cls-1" transform="translate(853.63 676.79) rotate(120.05)"><tspan x="0" y="0">O</tspan></text>
  <text class="cls-1" transform="translate(841.24 698.23) rotate(123.3)"><tspan x="0" y="0"> </tspan></text>
  <text class="cls-1" transform="translate(827.63 718.98) rotate(126.55)"><tspan x="0" y="0">T</tspan></text>
  <text class="cls-1" transform="translate(812.86 738.92) rotate(129.8)"><tspan x="0" y="0">I</tspan></text>
  <text class="cls-1" transform="translate(797 757.97) rotate(133.04)"><tspan x="0" y="0">M</tspan></text>
  <text class="cls-1" transform="translate(780.08 776.1) rotate(136.28)"><tspan x="0" y="0">E</tspan></text>
  <text class="cls-1" transform="translate(762.18 793.24) rotate(139.52)"><tspan x="0" y="0">R</tspan></text>
  <text class="cls-1" transform="translate(743.32 809.36) rotate(142.76)"><tspan x="0" y="0"> </tspan></text>
  <text class="cls-1" transform="translate(723.58 824.38) rotate(146.01)"><tspan x="0" y="0">|</tspan></text>
  <text class="cls-1" transform="translate(703.03 838.25) rotate(149.27)"><tspan x="0" y="0"> </tspan></text>
  <text class="cls-1" transform="translate(681.73 850.92) rotate(152.53)"><tspan x="0" y="0">D</tspan></text>
  <text class="cls-1" transform="translate(659.73 862.37) rotate(155.81)"><tspan x="0" y="0">Y</tspan></text>
  <text class="cls-1" transform="translate(637.11 872.55) rotate(159.08)"><tspan x="0" y="0">N</tspan></text>
  <text class="cls-1" transform="translate(613.96 881.41) rotate(162.37)"><tspan x="0" y="0">A</tspan></text>
  <text class="cls-1" transform="translate(590.32 888.93) rotate(165.66)"><tspan x="0" y="0">M</tspan></text>
  <text class="cls-1" transform="translate(566.32 895.08) rotate(168.93)"><tspan x="0" y="0">I</tspan></text>
  <text class="cls-1" transform="translate(541.98 899.86) rotate(172.2)"><tspan x="0" y="0">C</tspan></text>
  <text class="cls-1" transform="translate(517.41 903.23) rotate(175.45)"><tspan x="0" y="0"> </tspan></text>
  <text class="cls-1" transform="translate(492.69 905.21) rotate(178.67)"><tspan x="0" y="0">R</tspan></text>
  <text class="cls-1" transform="translate(467.89 905.79) rotate(-178.13)"><tspan x="0" y="0">E</tspan></text>
  <text class="cls-1" transform="translate(443.11 905) rotate(-174.9)"><tspan x="0" y="0">T</tspan></text>
  <text class="cls-1" transform="translate(418.4 902.8) rotate(-171.64)"><tspan x="0" y="0">R</tspan></text>
  <text class="cls-1" transform="translate(393.86 899.21) rotate(-168.37)"><tspan x="0" y="0">O</tspan></text>
  <text class="cls-1" transform="translate(369.58 894.23) rotate(-165.09)"><tspan x="0" y="0"> </tspan></text>
  <text class="cls-1" transform="translate(345.62 887.86) rotate(-161.81)"><tspan x="0" y="0">T</tspan></text>
  <text class="cls-1" transform="translate(322.06 880.13) rotate(-158.53)"><tspan x="0" y="0">I</tspan></text>
  <text class="cls-1" transform="translate(299 871.07) rotate(-155.25)"><tspan x="0" y="0">M</tspan></text>
  <text class="cls-1" transform="translate(276.46 860.7) rotate(-151.98)"><tspan x="0" y="0">E</tspan></text>
  <text class="cls-1" transform="translate(254.57 849.06) rotate(-148.71)"><tspan x="0" y="0">R</tspan></text>
  <text class="cls-1" transform="translate(233.37 836.19) rotate(-145.46)"><tspan x="0" y="0"> </tspan></text>
  <text class="cls-1" transform="translate(212.94 822.14) rotate(-142.21)"><tspan x="0" y="0">|</tspan></text>
  <text class="cls-1" transform="translate(193.33 806.95) rotate(-138.97)"><tspan x="0" y="0"> </tspan></text>
  <text class="cls-1" transform="translate(174.61 790.67) rotate(-135.73)"><tspan x="0" y="0">D</tspan></text>
  <text class="cls-1" transform="translate(156.85 773.37) rotate(-132.49)"><tspan x="0" y="0">Y</tspan></text>
  <text class="cls-1" transform="translate(140.09 755.09) rotate(-129.25)"><tspan x="0" y="0">N</tspan></text>
  <text class="cls-1" transform="translate(124.39 735.89) rotate(-126)"><tspan x="0" y="0">A</tspan></text>
  <text class="cls-1" transform="translate(109.81 715.84) rotate(-122.75)"><tspan x="0" y="0">M</tspan></text>
  <text class="cls-1" transform="translate(96.38 694.99) rotate(-119.49)"><tspan x="0" y="0">I</tspan></text>
  <text class="cls-1" transform="translate(84.17 673.41) rotate(-116.22)"><tspan x="0" y="0">C</tspan></text>
  <text class="cls-1" transform="translate(73.2 651.16) rotate(-112.94)"><tspan x="0" y="0"> </tspan></text>
  <text class="cls-1" transform="translate(63.53 628.34) rotate(-109.66)"><tspan x="0" y="0">R</tspan></text>
  <text class="cls-1" transform="translate(55.17 604.99) rotate(-106.38)"><tspan x="0" y="0">E</tspan></text>
  <text class="cls-1" transform="translate(48.17 581.22) rotate(-103.1)"><tspan x="0" y="0">T</tspan></text>
  <text class="cls-1" transform="translate(42.54 557.06) rotate(-99.82)"><tspan x="0" y="0">R</tspan></text>
  <text class="cls-1" transform="translate(38.3 532.64) rotate(-96.56)"><tspan x="0" y="0">O</tspan></text>
  <text class="cls-1" transform="translate(35.46 508.01) rotate(-93.32)"><tspan x="0" y="0"> </tspan></text>
  <text class="cls-1" transform="translate(34.19 483.31) rotate(-90.93)"><tspan x="0" y="0">T</tspan></text>
  <text class="cls-1" transform="translate(33.95 458.44) rotate(-86.9)"><tspan x="0" y="0">I</tspan></text>
  <text class="cls-1" transform="translate(35.28 433.68) rotate(-83.66)"><tspan x="0" y="0">M</tspan></text>
  <text class="cls-1" transform="translate(38.01 409.03) rotate(-80.4)"><tspan x="0" y="0">E</tspan></text>
  <text class="cls-1" transform="translate(42.13 384.57) rotate(-77.12)"><tspan x="0" y="0">R</tspan></text>
  <text class="cls-1" transform="translate(47.64 360.42) rotate(-73.84)"><tspan x="0" y="0"> </tspan></text>
  <text class="cls-1" transform="translate(54.53 336.58) rotate(-70.56)"><tspan x="0" y="0">|</tspan></text>
  <text class="cls-1" transform="translate(62.78 313.2) rotate(-67.28)"><tspan x="0" y="0"> </tspan></text>
  <text class="cls-1" transform="translate(72.34 290.33) rotate(-64)"><tspan x="0" y="0">D</tspan></text>
  <text class="cls-1" transform="translate(83.2 268.03) rotate(-60.73)"><tspan x="0" y="0">Y</tspan></text>
  <text class="cls-1" transform="translate(95.32 246.39) rotate(-57.47)"><tspan x="0" y="0">N</tspan></text>
  <text class="cls-1" transform="translate(108.65 225.48) rotate(-54.22)"><tspan x="0" y="0">A</tspan></text>
  <text class="cls-1" transform="translate(123.14 205.35) rotate(-50.97)"><tspan x="0" y="0">M</tspan></text>
  <text class="cls-1" transform="translate(138.73 186.1) rotate(-47.73)"><tspan x="0" y="0">I</tspan></text>
  <text class="cls-1" transform="translate(155.4 167.74) rotate(-44.49)"><tspan x="0" y="0">C</tspan></text>
  <text class="cls-1" transform="translate(173.09 150.35) rotate(-41.25)"><tspan x="0" y="0"> </tspan></text>
  <text class="cls-1" transform="translate(191.73 133.98) rotate(-38.01)"><tspan x="0" y="0">R</tspan></text>
  <text class="cls-1" transform="translate(211.25 118.71) rotate(-34.76)"><tspan x="0" y="0">E</tspan></text>
  <text class="cls-1" transform="translate(231.64 104.55) rotate(-31.5)"><tspan x="0" y="0">T</tspan></text>
  <text class="cls-1" transform="translate(252.76 91.58) rotate(-28.24)"><tspan x="0" y="0">R</tspan></text>
  <text class="cls-1" transform="translate(274.59 79.85) rotate(-24.97)"><tspan x="0" y="0">O</tspan></text>
  <text class="cls-1" transform="translate(297.08 69.36) rotate(-21.69)"><tspan x="0" y="0"> </tspan></text>
  <text class="cls-1" transform="translate(320.11 60.18) rotate(-18.41)"><tspan x="0" y="0">T</tspan></text>
  <text class="cls-1" transform="translate(343.64 52.34) rotate(-15.13)"><tspan x="0" y="0">I</tspan></text>
  <text class="cls-1" transform="translate(367.56 45.86) rotate(-11.85)"><tspan x="0" y="0">M</tspan></text>
  <text class="cls-1" transform="translate(391.82 40.76) rotate(-8.57)"><tspan x="0" y="0">E</tspan></text>
  <text class="cls-1" transform="translate(416.35 37.05) rotate(-5.32)"><tspan x="0" y="0">R</tspan></text>
  <text class="cls-1" transform="translate(441.04 34.75) rotate(-2.09)"><tspan x="0" y="0"> </tspan></text>
  <text class="cls-1" transform="translate(465.83 33.83) rotate(1.11)"><tspan x="0" y="0">|</tspan></text>
  <text class="cls-1" transform="translate(490.62 34.3) rotate(4.33)"><tspan x="0" y="0"> </tspan></text>
</svg>