<?xml version="1.0" encoding="UTF-8"?>
<svg id="Layer_1" xmlns="http://www.w3.org/2000/svg" viewBox="0 0 1080 1080">
  <g>
    <path d="M251.19,471.58l-2.38-1.82c9.51-12.44,21.41-33.45,24.74-47.88,1.48-5.04,2.29-10.62,3.08-16.02,1.52-10.38,2.95-20.18,8.74-24.9,3.15-2.49,7.98-2.95,11.84-3.08l1.54-.04c5.53-.15,11.24-.31,16.24-2.4,15.6-6.74,26.88-26.22,31.13-42.53,1.33-5.19,2.25-11.25,2.75-18,.19-2.48.29-4.78.38-7.01.27-6.41.49-11.47,2.71-15.53,4.92-8.29,13.74-7,22.28-5.74,7.49,1.1,15.24,2.24,21.46-2.23,5.68-3.67,8.27-9.67,11.01-16.03,2.07-4.79,4.21-9.74,7.76-13.67,5.27-6.25,13.69-8.3,23.05-5.6,6.2,1.62,14.27,3.41,21.44,2.89,11.21-.37,19.61-5.4,29.42-11.93,9.1-5.91,19.93-7.47,28.98-4.17,6.03,2.04,10.7,5.79,15.65,9.75,4.27,3.43,8.69,6.97,14.11,9.33,9.56,4.4,21.88,4.04,32.2-.93,4.37-1.93,8.46-4.47,12.42-6.93,5.29-3.28,10.75-6.68,16.89-8.66,16.18-4.69,24.3,4.18,31.86,14.5,11.62,15.01,27.72,21.32,52.18,20.45,12.22-.27,30.64-.68,35.9,15.91,1.17,3.66,1.45,7.48,1.71,11.17.16,2.27.33,4.61.71,6.91,1.64,12.22,9.46,23.11,21.45,29.93,10.1,5.77,21,13.58,25.35,27.72.97,2.88,1.59,5.8,2.19,8.62.46,2.16.93,4.4,1.56,6.57,1.64,5.9,4.7,11.38,8.85,15.87,2.92,3.2,6.14,5.72,9.54,8.38,2.27,1.78,4.62,3.62,7.02,5.77,10.49,8.96,18.83,22.1,23.49,36.98l-2.86.89c-4.49-14.35-12.51-27-22.6-35.62-2.36-2.11-4.67-3.92-6.9-5.66-3.5-2.74-6.81-5.34-9.9-8.71-4.47-4.83-7.77-10.74-9.53-17.08-.65-2.27-1.14-4.56-1.61-6.77-.58-2.74-1.18-5.57-2.11-8.32-4.06-13.18-14.4-20.55-23.98-26.03-12.81-7.28-21.17-18.98-22.93-32.1-.39-2.39-.56-4.8-.73-7.13-.27-3.68-.52-7.15-1.58-10.47-4.22-13.34-18.59-14.14-32.95-13.82-25.16.9-42.53-5.98-54.66-21.64-8.52-11.63-15.59-17.21-28.58-13.44-5.75,1.86-10.82,5.01-16.19,8.34-4.05,2.51-8.23,5.11-12.74,7.1-11.06,5.32-24.36,5.69-34.68.94-5.76-2.5-10.34-6.17-14.76-9.72-4.73-3.8-9.2-7.38-14.76-9.26-8.2-2.99-18.04-1.54-26.34,3.85-9.85,6.56-18.99,12.03-30.91,12.42-7.55.55-15.93-1.31-22.39-3-8.21-2.37-15.48-.66-19.99,4.68-3.26,3.6-5.21,8.11-7.27,12.88-2.8,6.49-5.69,13.19-12.07,17.32-7.14,5.14-15.88,3.86-23.59,2.73-8.25-1.21-15.37-2.26-19.23,4.26-1.86,3.4-2.06,8.15-2.32,14.17-.1,2.25-.19,4.58-.39,7.1-.51,6.92-1.47,13.15-2.84,18.52-4.44,17.02-16.32,37.39-32.86,44.54-5.53,2.32-11.53,2.48-17.33,2.64l-1.53.04c-3.4.11-7.61.49-10.05,2.42-4.87,3.97-6.22,13.21-7.65,23-.8,5.5-1.63,11.18-3.15,16.34-3.4,14.76-15.55,36.26-25.25,48.95Z"/>
    <path d="M251.19,447.4l-2.38-1.82c9.51-12.44,21.41-33.45,24.74-47.89,1.48-5.04,2.29-10.62,3.08-16.02,1.52-10.38,2.95-20.18,8.74-24.9,3.15-2.49,7.98-2.95,11.84-3.08l1.54-.04c5.53-.15,11.24-.31,16.25-2.4,15.6-6.74,26.88-26.22,31.13-42.53,1.33-5.2,2.25-11.25,2.75-18,.19-2.48.29-4.78.38-7.01.27-6.41.49-11.47,2.71-15.53,4.92-8.29,13.74-6.99,22.28-5.74,7.5,1.1,15.25,2.24,21.46-2.23,5.68-3.67,8.27-9.67,11.01-16.03,2.07-4.79,4.21-9.74,7.76-13.67,5.27-6.25,13.69-8.31,23.05-5.6,6.19,1.62,14.26,3.41,21.44,2.89,11.21-.37,19.61-5.4,29.42-11.93,9.1-5.91,19.93-7.47,28.98-4.17,6.03,2.04,10.7,5.79,15.65,9.75,4.27,3.43,8.69,6.97,14.11,9.33,9.56,4.4,21.88,4.04,32.2-.93,4.37-1.93,8.46-4.47,12.42-6.93,5.29-3.28,10.75-6.68,16.9-8.66,16.18-4.69,24.3,4.18,31.86,14.5,11.62,15.01,27.73,21.32,52.18,20.45,12.21-.28,30.64-.68,35.9,15.91,1.17,3.66,1.45,7.48,1.71,11.17.16,2.27.33,4.61.71,6.91,1.64,12.22,9.46,23.11,21.45,29.93,10.1,5.77,21,13.58,25.35,27.72.97,2.88,1.59,5.8,2.19,8.62.46,2.16.93,4.4,1.56,6.57,1.64,5.9,4.7,11.38,8.85,15.87,2.92,3.2,6.14,5.72,9.54,8.38,2.27,1.78,4.62,3.62,7.02,5.77,10.49,8.96,18.84,22.1,23.49,36.98l-2.86.89c-4.48-14.35-12.51-27-22.6-35.62-2.36-2.11-4.67-3.91-6.9-5.66-3.5-2.74-6.81-5.34-9.9-8.71-4.47-4.83-7.77-10.74-9.53-17.08-.65-2.27-1.14-4.56-1.61-6.77-.58-2.74-1.18-5.57-2.11-8.32-4.06-13.18-14.4-20.55-23.98-26.03-12.81-7.28-21.17-18.98-22.93-32.1-.39-2.39-.56-4.8-.73-7.13-.27-3.68-.52-7.15-1.58-10.47-4.22-13.34-18.6-14.14-32.95-13.82-25.15.9-42.53-5.98-54.66-21.64-8.52-11.63-15.59-17.21-28.58-13.44-5.75,1.86-10.82,5.01-16.19,8.35-4.04,2.51-8.23,5.11-12.74,7.1-11.06,5.32-24.36,5.69-34.68.94-5.76-2.5-10.34-6.17-14.76-9.72-4.73-3.79-9.2-7.38-14.76-9.26-8.2-2.99-18.04-1.54-26.34,3.85-9.85,6.56-18.99,12.03-30.91,12.42-7.55.56-15.93-1.31-22.39-3-8.21-2.37-15.48-.66-19.99,4.68-3.26,3.6-5.21,8.11-7.27,12.88-2.8,6.49-5.69,13.19-12.07,17.32-7.14,5.15-15.88,3.86-23.59,2.73-8.25-1.21-15.37-2.26-19.23,4.26-1.86,3.4-2.06,8.15-2.32,14.17-.1,2.25-.19,4.58-.39,7.1-.51,6.92-1.47,13.15-2.84,18.52-4.44,17.02-16.32,37.39-32.86,44.54-5.53,2.32-11.54,2.48-17.34,2.64l-1.53.04c-3.4.11-7.61.49-10.05,2.42-4.87,3.97-6.22,13.21-7.65,23-.8,5.5-1.63,11.18-3.15,16.34-3.4,14.76-15.55,36.26-25.25,48.95Z"/>
    <path d="M251.19,423.22l-2.38-1.82c9.51-12.44,21.41-33.45,24.74-47.88,1.48-5.04,2.29-10.62,3.08-16.02,1.52-10.38,2.95-20.18,8.74-24.9,3.15-2.49,7.98-2.95,11.84-3.08l1.54-.04c5.53-.15,11.24-.31,16.24-2.4,15.6-6.74,26.88-26.22,31.13-42.53,1.33-5.2,2.25-11.25,2.75-18,.19-2.48.29-4.78.38-7.01.27-6.41.49-11.47,2.71-15.53,4.92-8.29,13.74-6.99,22.28-5.74,7.5,1.1,15.24,2.24,21.46-2.23,5.68-3.67,8.27-9.67,11.01-16.03,2.07-4.79,4.21-9.74,7.76-13.67,5.27-6.25,13.69-8.3,23.05-5.6,6.19,1.61,14.26,3.41,21.44,2.89,11.21-.37,19.61-5.4,29.42-11.93,9.1-5.91,19.93-7.47,28.98-4.17,6.03,2.04,10.7,5.79,15.65,9.75,4.27,3.43,8.69,6.97,14.11,9.33,9.56,4.4,21.88,4.04,32.2-.93,4.37-1.93,8.46-4.47,12.42-6.93,5.29-3.28,10.75-6.68,16.89-8.66,16.18-4.69,24.3,4.18,31.86,14.5,11.62,15.01,27.73,21.32,52.18,20.45,12.21-.27,30.64-.68,35.9,15.91,1.17,3.66,1.45,7.48,1.71,11.17.16,2.27.33,4.61.71,6.91,1.64,12.22,9.46,23.11,21.45,29.93,10.1,5.77,21,13.58,25.35,27.72.97,2.88,1.59,5.8,2.19,8.62.46,2.16.93,4.4,1.56,6.57,1.64,5.9,4.7,11.38,8.85,15.87,2.92,3.2,6.14,5.72,9.54,8.38,2.27,1.78,4.62,3.62,7.02,5.77,10.49,8.96,18.84,22.1,23.49,36.98l-2.86.89c-4.48-14.35-12.51-27-22.6-35.62-2.36-2.11-4.67-3.92-6.9-5.66-3.5-2.74-6.81-5.34-9.9-8.71-4.47-4.83-7.77-10.74-9.53-17.08-.65-2.27-1.14-4.56-1.61-6.77-.58-2.74-1.18-5.57-2.11-8.32-4.06-13.18-14.4-20.55-23.98-26.03-12.81-7.28-21.17-18.98-22.93-32.1-.39-2.39-.56-4.8-.73-7.13-.27-3.68-.52-7.15-1.58-10.47-4.22-13.34-18.6-14.14-32.95-13.82-25.15.9-42.53-5.98-54.66-21.64-8.52-11.63-15.59-17.2-28.58-13.44-5.75,1.86-10.82,5.01-16.19,8.35-4.04,2.51-8.23,5.11-12.74,7.1-11.06,5.32-24.36,5.69-34.68.94-5.76-2.5-10.34-6.17-14.76-9.72-4.73-3.8-9.2-7.38-14.76-9.26-8.2-2.99-18.04-1.54-26.34,3.85-9.85,6.56-18.99,12.03-30.91,12.42-7.55.55-15.93-1.31-22.39-3-8.21-2.37-15.48-.66-19.99,4.68-3.26,3.6-5.21,8.11-7.27,12.88-2.8,6.49-5.69,13.19-12.07,17.32-7.14,5.15-15.88,3.86-23.59,2.73-8.25-1.21-15.37-2.26-19.23,4.26-1.86,3.4-2.06,8.15-2.32,14.17-.1,2.25-.19,4.58-.39,7.1-.51,6.92-1.47,13.15-2.84,18.52-4.44,17.02-16.32,37.39-32.86,44.54-5.53,2.32-11.53,2.48-17.33,2.64l-1.53.04c-3.4.11-7.61.49-10.05,2.42-4.87,3.97-6.22,13.21-7.65,23-.8,5.5-1.63,11.18-3.15,16.34-3.4,14.76-15.55,36.26-25.25,48.95Z"/>
    <path d="M251.19,495.77l-2.38-1.82c9.51-12.44,21.41-33.45,24.74-47.89,1.48-5.04,2.29-10.62,3.08-16.02,1.52-10.38,2.95-20.18,8.74-24.9,3.15-2.49,7.98-2.95,11.84-3.08l1.54-.04c5.53-.15,11.24-.31,16.24-2.4,15.6-6.74,26.88-26.22,31.13-42.53,1.33-5.2,2.25-11.25,2.75-18,.19-2.48.29-4.78.38-7.01.27-6.41.49-11.47,2.71-15.53,4.92-8.29,13.74-6.99,22.28-5.74,7.5,1.1,15.24,2.24,21.46-2.23,5.68-3.67,8.27-9.67,11.01-16.03,2.07-4.79,4.21-9.74,7.76-13.67,5.27-6.25,13.69-8.3,23.05-5.6,6.19,1.61,14.26,3.41,21.44,2.89,11.21-.37,19.61-5.4,29.42-11.93,9.1-5.91,19.93-7.47,28.98-4.17,6.03,2.04,10.7,5.79,15.65,9.75,4.27,3.43,8.69,6.97,14.11,9.33,9.56,4.4,21.88,4.04,32.2-.93,4.37-1.93,8.46-4.47,12.42-6.93,5.29-3.28,10.75-6.68,16.89-8.66,16.18-4.69,24.3,4.18,31.86,14.5,11.62,15.01,27.73,21.32,52.18,20.45,12.21-.27,30.64-.68,35.9,15.91,1.17,3.66,1.45,7.48,1.71,11.17.16,2.27.33,4.61.71,6.91,1.64,12.22,9.46,23.11,21.45,29.93,10.1,5.77,21,13.58,25.35,27.72.97,2.88,1.59,5.8,2.19,8.62.46,2.16.93,4.4,1.56,6.57,1.64,5.9,4.7,11.38,8.85,15.87,2.92,3.2,6.14,5.72,9.54,8.38,2.27,1.78,4.62,3.62,7.02,5.77,10.49,8.96,18.84,22.1,23.49,36.98l-2.86.89c-4.48-14.35-12.51-27-22.6-35.62-2.36-2.11-4.67-3.92-6.9-5.66-3.5-2.74-6.81-5.34-9.9-8.71-4.47-4.83-7.77-10.74-9.53-17.08-.65-2.27-1.14-4.56-1.61-6.77-.58-2.74-1.18-5.57-2.11-8.32-4.06-13.18-14.4-20.55-23.98-26.03-12.81-7.28-21.17-18.98-22.93-32.1-.39-2.39-.56-4.8-.73-7.13-.27-3.68-.52-7.15-1.58-10.47-4.22-13.34-18.6-14.14-32.95-13.82-25.15.9-42.53-5.98-54.66-21.64-8.52-11.63-15.59-17.21-28.58-13.44-5.75,1.86-10.82,5.01-16.19,8.35-4.04,2.51-8.23,5.11-12.74,7.1-11.06,5.32-24.36,5.69-34.68.94-5.76-2.5-10.34-6.17-14.76-9.72-4.73-3.8-9.2-7.38-14.76-9.26-8.2-2.99-18.04-1.54-26.34,3.85-9.85,6.56-18.99,12.03-30.91,12.42-7.55.55-15.93-1.31-22.39-3-8.21-2.37-15.48-.66-19.99,4.68-3.26,3.6-5.21,8.11-7.27,12.88-2.8,6.49-5.69,13.19-12.07,17.32-7.14,5.14-15.88,3.86-23.59,2.73-8.25-1.21-15.37-2.26-19.23,4.26-1.86,3.4-2.06,8.15-2.32,14.17-.1,2.25-.19,4.58-.39,7.1-.51,6.92-1.47,13.15-2.84,18.52-4.44,17.02-16.32,37.39-32.86,44.54-5.53,2.32-11.53,2.48-17.33,2.64l-1.53.04c-3.4.11-7.61.49-10.05,2.42-4.87,3.97-6.22,13.21-7.65,23-.8,5.5-1.63,11.18-3.15,16.34-3.4,14.76-15.55,36.26-25.25,48.95Z"/>
    <path d="M251.19,519.95l-2.38-1.82c9.51-12.44,21.41-33.45,24.74-47.89,1.48-5.04,2.29-10.62,3.08-16.02,1.52-10.38,2.95-20.18,8.74-24.9,3.15-2.49,7.98-2.95,11.84-3.08l1.54-.04c5.53-.15,11.24-.31,16.24-2.4,15.6-6.74,26.88-26.22,31.13-42.53,1.33-5.2,2.25-11.25,2.75-18,.19-2.48.29-4.78.38-7.01.27-6.41.49-11.47,2.71-15.53,4.92-8.29,13.74-7,22.28-5.74,7.5,1.1,15.25,2.24,21.46-2.23,5.68-3.67,8.27-9.67,11.01-16.03,2.07-4.79,4.21-9.74,7.76-13.67,5.27-6.25,13.69-8.3,23.05-5.6,6.19,1.61,14.26,3.41,21.44,2.89,11.21-.37,19.61-5.4,29.42-11.93,9.1-5.91,19.93-7.47,28.98-4.17,6.03,2.04,10.7,5.79,15.65,9.75,4.27,3.43,8.69,6.97,14.11,9.33,9.56,4.4,21.88,4.04,32.2-.93,4.37-1.93,8.46-4.47,12.42-6.93,5.29-3.28,10.75-6.68,16.9-8.66,16.18-4.69,24.3,4.18,31.86,14.5,11.62,15.01,27.73,21.32,52.18,20.45,12.21-.28,30.64-.68,35.9,15.91,1.17,3.66,1.45,7.48,1.71,11.17.16,2.27.33,4.61.71,6.91,1.64,12.22,9.46,23.12,21.45,29.93,10.1,5.77,21,13.58,25.35,27.72.97,2.88,1.59,5.8,2.19,8.62.46,2.16.93,4.4,1.56,6.57,1.64,5.9,4.7,11.38,8.85,15.87,2.92,3.2,6.14,5.72,9.54,8.38,2.27,1.78,4.62,3.62,7.02,5.77,10.49,8.96,18.84,22.1,23.49,36.98l-2.86.89c-4.48-14.35-12.51-27-22.6-35.62-2.36-2.11-4.67-3.91-6.9-5.66-3.5-2.74-6.81-5.34-9.9-8.71-4.47-4.83-7.77-10.74-9.53-17.08-.66-2.27-1.14-4.56-1.61-6.77-.58-2.74-1.18-5.57-2.11-8.32-4.06-13.18-14.4-20.55-23.98-26.03-12.81-7.28-21.17-18.98-22.93-32.1-.39-2.39-.56-4.8-.73-7.13-.27-3.68-.52-7.15-1.58-10.47-4.22-13.34-18.6-14.14-32.95-13.82-25.15.9-42.53-5.98-54.66-21.64-8.52-11.63-15.59-17.21-28.58-13.44-5.75,1.86-10.82,5.01-16.19,8.35-4.04,2.51-8.23,5.11-12.74,7.1-11.06,5.32-24.36,5.69-34.68.94-5.76-2.5-10.34-6.17-14.76-9.72-4.73-3.8-9.2-7.38-14.76-9.26-8.2-2.99-18.04-1.54-26.34,3.85-9.85,6.56-18.99,12.03-30.91,12.42-7.55.55-15.93-1.31-22.39-3-8.21-2.37-15.48-.66-19.99,4.68-3.26,3.6-5.21,8.11-7.27,12.88-2.8,6.49-5.69,13.19-12.07,17.32-7.14,5.15-15.88,3.86-23.59,2.73-8.25-1.21-15.37-2.26-19.23,4.26-1.86,3.4-2.06,8.15-2.32,14.17-.1,2.25-.19,4.58-.39,7.1-.51,6.92-1.47,13.15-2.84,18.52-4.44,17.02-16.32,37.39-32.86,44.54-5.53,2.32-11.53,2.48-17.34,2.64l-1.53.04c-3.4.11-7.61.49-10.05,2.42-4.87,3.97-6.22,13.21-7.65,23-.8,5.5-1.63,11.18-3.15,16.34-3.4,14.76-15.55,36.26-25.25,48.95Z"/>
    <path d="M251.19,544.13l-2.38-1.82c9.51-12.44,21.41-33.45,24.74-47.88,1.48-5.04,2.29-10.62,3.08-16.02,1.52-10.38,2.95-20.18,8.74-24.9,3.15-2.49,7.98-2.95,11.84-3.08l1.54-.04c5.53-.15,11.24-.31,16.24-2.4,15.6-6.74,26.88-26.22,31.13-42.53,1.33-5.19,2.25-11.25,2.75-18,.19-2.48.29-4.78.38-7.01.27-6.41.49-11.47,2.71-15.53,4.92-8.29,13.74-7,22.28-5.74,7.5,1.1,15.24,2.24,21.46-2.23,5.68-3.67,8.27-9.67,11.01-16.03,2.07-4.79,4.21-9.74,7.76-13.67,5.28-6.25,13.69-8.3,23.05-5.6,6.2,1.62,14.27,3.41,21.44,2.89,11.21-.37,19.61-5.4,29.42-11.93,9.1-5.91,19.93-7.47,28.98-4.17,6.03,2.04,10.7,5.79,15.65,9.75,4.27,3.43,8.69,6.97,14.11,9.33,9.56,4.4,21.88,4.04,32.2-.93,4.37-1.93,8.46-4.47,12.42-6.93,5.29-3.28,10.75-6.68,16.89-8.66,16.18-4.69,24.3,4.18,31.86,14.5,11.62,15.01,27.74,21.32,52.18,20.45,12.21-.27,30.64-.68,35.9,15.91,1.17,3.66,1.45,7.48,1.71,11.17.16,2.27.33,4.61.71,6.91,1.64,12.22,9.46,23.11,21.45,29.93,10.1,5.77,21,13.58,25.35,27.72.97,2.88,1.59,5.8,2.18,8.62.46,2.16.93,4.4,1.56,6.57,1.64,5.9,4.7,11.38,8.85,15.87,2.92,3.2,6.14,5.72,9.54,8.38,2.27,1.78,4.62,3.62,7.02,5.77,10.49,8.96,18.83,22.1,23.49,36.98l-2.86.89c-4.49-14.35-12.51-27-22.6-35.62-2.36-2.11-4.67-3.92-6.9-5.66-3.5-2.74-6.81-5.34-9.9-8.71-4.47-4.83-7.77-10.74-9.53-17.08-.66-2.27-1.14-4.56-1.61-6.77-.58-2.74-1.18-5.57-2.11-8.32-4.06-13.18-14.4-20.55-23.98-26.03-12.81-7.28-21.17-18.98-22.93-32.1-.39-2.39-.56-4.8-.73-7.13-.27-3.68-.52-7.15-1.58-10.47-4.22-13.34-18.6-14.14-32.95-13.82-25.15.9-42.53-5.98-54.66-21.64-8.52-11.63-15.59-17.21-28.58-13.44-5.75,1.86-10.82,5.01-16.19,8.34-4.05,2.51-8.23,5.11-12.74,7.1-11.06,5.32-24.36,5.69-34.68.94-5.76-2.5-10.34-6.17-14.76-9.72-4.73-3.8-9.2-7.38-14.76-9.26-8.2-2.99-18.04-1.54-26.34,3.85-9.85,6.56-18.99,12.03-30.91,12.42-7.54.55-15.93-1.31-22.39-3-8.21-2.37-15.48-.66-19.99,4.68-3.26,3.6-5.21,8.11-7.27,12.88-2.8,6.49-5.69,13.19-12.07,17.32-7.14,5.15-15.88,3.86-23.59,2.73-8.25-1.21-15.37-2.26-19.23,4.26-1.86,3.4-2.06,8.15-2.32,14.17-.1,2.25-.19,4.58-.39,7.1-.51,6.92-1.47,13.15-2.84,18.52-4.44,17.02-16.32,37.39-32.86,44.54-5.53,2.32-11.53,2.48-17.33,2.64l-1.53.04c-3.4.11-7.61.49-10.05,2.42-4.87,3.97-6.22,13.21-7.65,23-.8,5.5-1.63,11.18-3.15,16.34-3.4,14.76-15.55,36.26-25.25,48.95Z"/>
    <path d="M251.19,568.31l-2.38-1.82c9.51-12.44,21.41-33.45,24.74-47.89,1.48-5.04,2.29-10.62,3.08-16.02,1.52-10.38,2.95-20.18,8.74-24.9,3.15-2.49,7.98-2.95,11.84-3.08l1.54-.04c5.53-.15,11.24-.31,16.25-2.4,15.6-6.74,26.88-26.22,31.13-42.53,1.33-5.2,2.25-11.25,2.75-18,.19-2.48.29-4.78.38-7.01.27-6.41.49-11.47,2.71-15.53,4.92-8.29,13.74-6.99,22.28-5.74,7.5,1.1,15.24,2.24,21.46-2.23,5.68-3.67,8.27-9.67,11.01-16.03,2.07-4.79,4.21-9.74,7.76-13.67,5.27-6.25,13.69-8.31,23.05-5.6,6.19,1.61,14.26,3.41,21.44,2.89,11.21-.37,19.61-5.4,29.42-11.93,9.1-5.91,19.93-7.47,28.98-4.17,6.03,2.04,10.7,5.79,15.65,9.75,4.27,3.43,8.69,6.97,14.11,9.33,9.56,4.4,21.88,4.04,32.2-.93,4.37-1.93,8.46-4.47,12.42-6.93,5.29-3.28,10.75-6.68,16.89-8.66,16.18-4.69,24.3,4.18,31.86,14.5,11.62,15.01,27.73,21.32,52.18,20.45,12.21-.27,30.64-.68,35.9,15.91,1.17,3.66,1.45,7.48,1.71,11.17.16,2.27.33,4.61.71,6.91,1.64,12.22,9.46,23.11,21.45,29.93,10.1,5.77,21,13.58,25.35,27.72.97,2.88,1.59,5.8,2.19,8.62.46,2.16.93,4.4,1.56,6.57,1.64,5.9,4.7,11.38,8.85,15.87,2.92,3.2,6.14,5.72,9.54,8.38,2.27,1.78,4.62,3.62,7.02,5.77,10.49,8.96,18.84,22.1,23.49,36.98l-2.86.89c-4.48-14.35-12.51-27-22.6-35.62-2.36-2.11-4.67-3.92-6.9-5.66-3.5-2.74-6.81-5.34-9.9-8.71-4.47-4.83-7.77-10.74-9.53-17.08-.65-2.27-1.14-4.56-1.61-6.77-.58-2.74-1.18-5.57-2.11-8.32-4.06-13.18-14.4-20.55-23.98-26.03-12.81-7.28-21.17-18.98-22.93-32.1-.39-2.39-.56-4.8-.73-7.13-.27-3.68-.52-7.15-1.58-10.47-4.22-13.34-18.6-14.14-32.95-13.82-25.15.9-42.53-5.98-54.66-21.64-8.52-11.63-15.59-17.21-28.58-13.44-5.75,1.86-10.82,5.01-16.19,8.35-4.04,2.51-8.23,5.11-12.74,7.1-11.06,5.32-24.36,5.69-34.68.94-5.76-2.5-10.34-6.17-14.76-9.72-4.73-3.79-9.2-7.38-14.76-9.26-8.2-2.99-18.04-1.54-26.34,3.85-9.85,6.56-18.99,12.03-30.91,12.42-7.55.55-15.93-1.31-22.39-3-8.21-2.37-15.48-.66-19.99,4.68-3.26,3.6-5.21,8.11-7.27,12.88-2.8,6.49-5.69,13.19-12.07,17.32-7.14,5.14-15.88,3.86-23.59,2.73-8.25-1.21-15.37-2.26-19.23,4.26-1.86,3.4-2.06,8.15-2.32,14.17-.1,2.25-.19,4.58-.39,7.1-.51,6.92-1.47,13.15-2.84,18.52-4.44,17.02-16.32,37.39-32.86,44.54-5.53,2.32-11.54,2.48-17.34,2.64l-1.53.04c-3.4.11-7.61.49-10.05,2.42-4.87,3.97-6.22,13.21-7.65,23-.8,5.5-1.63,11.18-3.15,16.34-3.4,14.76-15.55,36.26-25.25,48.95Z"/>
    <path d="M256.19,586.49l-2.38-1.82c9.18-12,16.37-27.27,19.74-41.88,1.48-5.04,2.29-10.62,3.08-16.02,1.52-10.38,2.95-20.18,8.74-24.9,3.15-2.49,7.98-2.95,11.84-3.08l1.54-.04c5.53-.15,11.24-.31,16.24-2.4,15.6-6.74,26.88-26.22,31.13-42.53,1.33-5.19,2.25-11.25,2.75-18,.19-2.48.29-4.78.38-7.01.27-6.41.49-11.47,2.71-15.53,4.92-8.29,13.74-7,22.28-5.74,7.49,1.1,15.24,2.24,21.46-2.23,5.68-3.67,8.27-9.67,11.01-16.03,2.07-4.79,4.21-9.74,7.76-13.67,5.27-6.25,13.69-8.3,23.05-5.6,6.19,1.61,14.26,3.41,21.44,2.89,11.21-.37,19.61-5.4,29.42-11.93,9.1-5.91,19.93-7.47,28.98-4.17,6.03,2.04,10.7,5.79,15.65,9.75,4.27,3.43,8.69,6.97,14.11,9.33,9.56,4.4,21.88,4.04,32.2-.93,4.37-1.93,8.46-4.47,12.42-6.93,5.29-3.28,10.75-6.68,16.9-8.66,16.18-4.69,24.3,4.18,31.86,14.5,11.62,15.01,27.72,21.32,52.18,20.45,12.21-.27,30.64-.68,35.9,15.91,1.17,3.66,1.45,7.48,1.71,11.17.16,2.27.33,4.61.71,6.91,1.64,12.22,9.46,23.12,21.45,29.93,10.1,5.77,21,13.58,25.35,27.72.97,2.88,1.59,5.8,2.19,8.62.46,2.16.93,4.4,1.56,6.57,1.64,5.9,4.7,11.38,8.85,15.87,2.92,3.2,6.14,5.72,9.54,8.38,2.27,1.78,4.62,3.62,7.02,5.77,10.49,8.96,18.83,22.1,23.49,36.98l-2.86.89c-4.49-14.35-12.51-27-22.6-35.62-2.36-2.11-4.67-3.91-6.9-5.66-3.5-2.74-6.81-5.34-9.9-8.71-4.47-4.83-7.77-10.74-9.53-17.08-.66-2.27-1.14-4.56-1.61-6.77-.58-2.74-1.18-5.57-2.11-8.32-4.06-13.18-14.4-20.55-23.98-26.03-12.81-7.28-21.17-18.98-22.93-32.1-.39-2.39-.56-4.8-.73-7.13-.27-3.68-.52-7.15-1.58-10.47-4.22-13.34-18.59-14.14-32.95-13.82-25.16.9-42.53-5.98-54.66-21.64-8.52-11.63-15.59-17.21-28.58-13.44-5.75,1.86-10.82,5.01-16.19,8.35-4.04,2.51-8.23,5.11-12.74,7.1-11.06,5.32-24.36,5.69-34.68.94-5.76-2.5-10.34-6.17-14.76-9.72-4.73-3.8-9.2-7.38-14.76-9.26-8.2-2.99-18.04-1.54-26.34,3.85-9.85,6.56-18.99,12.03-30.91,12.42-7.55.55-15.93-1.31-22.39-3-8.21-2.37-15.48-.66-19.99,4.68-3.26,3.6-5.21,8.11-7.27,12.88-2.8,6.49-5.69,13.19-12.07,17.32-7.14,5.14-15.88,3.86-23.59,2.73-8.25-1.21-15.37-2.26-19.23,4.26-1.86,3.4-2.06,8.15-2.32,14.17-.1,2.25-.19,4.58-.39,7.1-.51,6.92-1.47,13.15-2.84,18.52-4.44,17.02-16.32,37.39-32.86,44.54-5.53,2.32-11.53,2.48-17.34,2.64l-1.53.04c-3.4.11-7.61.49-10.05,2.42-4.87,3.97-6.22,13.21-7.65,23-.8,5.5-1.63,11.18-3.15,16.34-3.44,14.93-10.83,30.62-20.25,42.95Z"/>
    <path d="M256.19,610.68l-2.38-1.82c9.18-12,16.37-27.27,19.74-41.88,1.48-5.04,2.29-10.62,3.08-16.02,1.52-10.38,2.95-20.18,8.74-24.9,3.15-2.49,7.98-2.95,11.84-3.08l1.54-.04c5.53-.15,11.24-.31,16.24-2.4,15.6-6.74,26.88-26.22,31.13-42.53,1.33-5.2,2.25-11.25,2.75-18,.19-2.48.29-4.78.38-7.01.27-6.41.49-11.47,2.71-15.53,4.92-8.29,13.74-6.99,22.28-5.74,7.5,1.1,15.24,2.24,21.46-2.23,5.68-3.67,8.27-9.67,11.01-16.03,2.07-4.79,4.21-9.74,7.76-13.67,5.27-6.25,13.69-8.3,23.05-5.6,6.2,1.61,14.27,3.41,21.44,2.89,11.21-.37,19.61-5.4,29.42-11.93,9.1-5.91,19.93-7.47,28.98-4.17,6.03,2.04,10.7,5.79,15.65,9.75,4.27,3.43,8.69,6.97,14.11,9.33,9.56,4.4,21.88,4.04,32.2-.93,4.37-1.93,8.46-4.47,12.42-6.93,5.29-3.28,10.75-6.68,16.89-8.66,16.18-4.69,24.3,4.18,31.86,14.5,11.62,15.01,27.73,21.32,52.18,20.45,12.21-.27,30.64-.68,35.9,15.91,1.17,3.66,1.45,7.48,1.71,11.17.16,2.27.33,4.61.71,6.91,1.64,12.22,9.46,23.11,21.45,29.93,10.1,5.77,21,13.58,25.35,27.72.97,2.88,1.59,5.8,2.18,8.62.46,2.16.93,4.4,1.56,6.57,1.64,5.9,4.7,11.38,8.85,15.87,2.92,3.2,6.14,5.72,9.54,8.38,2.27,1.78,4.62,3.62,7.02,5.77,10.49,8.96,18.83,22.1,23.49,36.98l-2.86.89c-4.49-14.35-12.51-27-22.6-35.62-2.36-2.11-4.67-3.92-6.9-5.66-3.5-2.74-6.81-5.34-9.9-8.71-4.47-4.83-7.77-10.74-9.53-17.08-.66-2.27-1.14-4.56-1.61-6.77-.58-2.74-1.18-5.57-2.11-8.32-4.06-13.18-14.4-20.55-23.98-26.03-12.81-7.28-21.17-18.98-22.93-32.1-.39-2.39-.56-4.8-.73-7.13-.27-3.68-.52-7.15-1.58-10.47-4.22-13.34-18.59-14.14-32.95-13.82-25.15.9-42.53-5.98-54.66-21.64-8.52-11.63-15.59-17.2-28.58-13.44-5.75,1.86-10.82,5.01-16.19,8.35-4.04,2.51-8.23,5.11-12.74,7.1-11.06,5.32-24.36,5.69-34.68.94-5.76-2.5-10.34-6.17-14.76-9.72-4.73-3.8-9.2-7.38-14.76-9.26-8.2-2.98-18.04-1.54-26.34,3.85-9.85,6.56-18.99,12.03-30.91,12.42-7.55.55-15.93-1.31-22.39-3-8.21-2.37-15.48-.66-19.99,4.68-3.26,3.6-5.21,8.11-7.27,12.88-2.8,6.49-5.69,13.19-12.07,17.32-7.14,5.15-15.88,3.86-23.59,2.73-8.25-1.21-15.37-2.26-19.23,4.26-1.86,3.4-2.06,8.15-2.32,14.17-.1,2.25-.19,4.58-.39,7.1-.51,6.92-1.47,13.15-2.84,18.52-4.44,17.02-16.32,37.39-32.86,44.54-5.53,2.32-11.53,2.48-17.33,2.64l-1.53.04c-3.4.11-7.61.49-10.05,2.42-4.87,3.97-6.22,13.21-7.65,23-.8,5.5-1.63,11.18-3.15,16.34-3.44,14.93-10.83,30.62-20.25,42.95Z"/>
    <path d="M256.19,634.86l-2.38-1.82c9.18-12,16.37-27.27,19.74-41.89,1.48-5.04,2.29-10.62,3.08-16.02,1.52-10.38,2.95-20.18,8.74-24.9,3.15-2.49,7.98-2.95,11.84-3.08l1.54-.04c5.53-.15,11.24-.31,16.25-2.4,15.6-6.74,26.88-26.22,31.13-42.53,1.33-5.2,2.25-11.25,2.75-18,.19-2.48.29-4.78.38-7.01.27-6.41.49-11.47,2.71-15.53,4.92-8.29,13.74-7,22.28-5.74,7.5,1.1,15.25,2.24,21.46-2.23,5.68-3.67,8.27-9.67,11.01-16.03,2.07-4.79,4.21-9.74,7.76-13.67,5.27-6.25,13.69-8.3,23.05-5.6,6.19,1.62,14.26,3.41,21.44,2.89,11.21-.37,19.61-5.4,29.42-11.93,9.1-5.91,19.93-7.47,28.98-4.17,6.03,2.04,10.7,5.79,15.65,9.75,4.27,3.43,8.69,6.97,14.11,9.33,9.56,4.4,21.88,4.04,32.2-.93,4.37-1.93,8.46-4.47,12.42-6.93,5.29-3.28,10.75-6.68,16.9-8.66,16.18-4.69,24.3,4.18,31.86,14.5,11.62,15.01,27.73,21.32,52.18,20.45,12.21-.28,30.64-.68,35.9,15.91,1.17,3.66,1.45,7.48,1.71,11.17.16,2.27.33,4.61.71,6.91,1.64,12.22,9.46,23.11,21.45,29.93,10.1,5.77,21,13.58,25.35,27.72.97,2.88,1.59,5.8,2.19,8.62.46,2.16.93,4.4,1.56,6.57,1.64,5.9,4.7,11.38,8.85,15.87,2.92,3.2,6.14,5.72,9.54,8.38,2.27,1.78,4.62,3.62,7.02,5.77,10.49,8.96,18.84,22.1,23.49,36.98l-2.86.89c-4.48-14.35-12.51-27-22.6-35.62-2.36-2.11-4.67-3.91-6.9-5.66-3.5-2.74-6.81-5.34-9.9-8.71-4.47-4.83-7.77-10.74-9.53-17.08-.65-2.27-1.14-4.56-1.61-6.77-.58-2.74-1.18-5.57-2.11-8.32-4.06-13.18-14.4-20.55-23.98-26.03-12.81-7.28-21.17-18.98-22.93-32.1-.39-2.39-.56-4.8-.73-7.13-.27-3.68-.52-7.15-1.58-10.47-4.22-13.34-18.6-14.14-32.95-13.82-25.15.9-42.53-5.98-54.66-21.64-8.52-11.63-15.59-17.2-28.58-13.44-5.75,1.86-10.82,5.01-16.19,8.35-4.04,2.51-8.23,5.11-12.74,7.1-11.06,5.32-24.36,5.69-34.68.94-5.76-2.5-10.34-6.17-14.76-9.72-4.73-3.79-9.2-7.38-14.76-9.26-8.2-2.99-18.04-1.54-26.34,3.85-9.85,6.56-18.99,12.03-30.91,12.42-7.55.55-15.93-1.31-22.39-3-8.21-2.37-15.48-.66-19.99,4.68-3.26,3.6-5.21,8.11-7.27,12.88-2.8,6.49-5.69,13.19-12.07,17.32-7.14,5.15-15.88,3.86-23.59,2.73-8.25-1.21-15.37-2.26-19.23,4.26-1.86,3.4-2.06,8.15-2.32,14.17-.1,2.25-.19,4.58-.39,7.1-.51,6.92-1.47,13.15-2.84,18.52-4.44,17.02-16.32,37.39-32.86,44.54-5.53,2.32-11.54,2.48-17.34,2.64l-1.53.04c-3.4.11-7.61.49-10.05,2.42-4.87,3.97-6.22,13.21-7.65,23-.8,5.5-1.63,11.18-3.15,16.34-3.44,14.93-10.83,30.62-20.25,42.95Z"/>
    <path d="M256.19,659.04l-2.38-1.82c9.18-12,16.37-27.27,19.74-41.88,1.48-5.04,2.29-10.62,3.08-16.02,1.52-10.38,2.95-20.18,8.74-24.9,3.15-2.49,7.98-2.95,11.84-3.08l1.54-.04c5.53-.15,11.24-.31,16.24-2.4,15.6-6.74,26.88-26.22,31.13-42.53,1.33-5.19,2.25-11.25,2.75-18,.19-2.48.29-4.78.38-7.01.27-6.41.49-11.47,2.71-15.53,4.92-8.29,13.74-6.99,22.28-5.74,7.49,1.1,15.24,2.24,21.46-2.23,5.68-3.67,8.27-9.67,11.01-16.03,2.07-4.79,4.21-9.74,7.76-13.67,5.27-6.25,13.69-8.3,23.05-5.6,6.2,1.62,14.27,3.41,21.44,2.89,11.21-.37,19.61-5.4,29.42-11.93,9.1-5.91,19.93-7.47,28.98-4.17,6.03,2.04,10.7,5.79,15.65,9.75,4.27,3.43,8.69,6.97,14.11,9.33,9.56,4.4,21.88,4.04,32.2-.93,4.37-1.93,8.46-4.47,12.42-6.93,5.29-3.28,10.75-6.68,16.89-8.66,16.18-4.69,24.3,4.18,31.86,14.5,11.62,15.01,27.72,21.32,52.18,20.45,12.21-.27,30.64-.68,35.9,15.91,1.17,3.66,1.45,7.48,1.71,11.17.16,2.27.33,4.61.71,6.91,1.64,12.22,9.46,23.12,21.45,29.93,10.1,5.77,21,13.58,25.35,27.72.97,2.88,1.59,5.8,2.19,8.62.46,2.16.93,4.4,1.56,6.57,1.64,5.9,4.7,11.38,8.85,15.87,2.92,3.2,6.14,5.72,9.54,8.38,2.27,1.78,4.62,3.62,7.02,5.77,10.49,8.96,18.83,22.1,23.49,36.98l-2.86.89c-4.49-14.35-12.51-27-22.6-35.62-2.36-2.11-4.67-3.92-6.9-5.66-3.5-2.74-6.81-5.34-9.9-8.71-4.47-4.83-7.77-10.74-9.53-17.08-.65-2.27-1.14-4.56-1.61-6.77-.58-2.74-1.18-5.57-2.11-8.32-4.06-13.18-14.4-20.55-23.98-26.04-12.81-7.28-21.17-18.98-22.93-32.1-.39-2.39-.56-4.8-.73-7.13-.27-3.68-.52-7.15-1.58-10.47-4.22-13.34-18.59-14.14-32.95-13.82-25.16.91-42.53-5.98-54.66-21.64-8.52-11.63-15.59-17.21-28.58-13.44-5.75,1.86-10.82,5.01-16.19,8.34-4.05,2.51-8.23,5.11-12.74,7.1-11.06,5.32-24.36,5.69-34.68.94-5.76-2.5-10.34-6.17-14.76-9.72-4.73-3.8-9.2-7.38-14.76-9.26-8.2-2.99-18.04-1.54-26.34,3.85-9.85,6.56-18.99,12.03-30.91,12.42-7.55.55-15.93-1.31-22.39-3-8.21-2.37-15.48-.66-19.99,4.68-3.26,3.6-5.21,8.11-7.27,12.88-2.8,6.49-5.69,13.19-12.07,17.32-7.14,5.14-15.88,3.86-23.59,2.73-8.25-1.21-15.37-2.26-19.23,4.26-1.86,3.4-2.06,8.15-2.32,14.17-.1,2.25-.19,4.58-.39,7.1-.51,6.92-1.47,13.15-2.84,18.52-4.44,17.02-16.32,37.39-32.86,44.54-5.53,2.32-11.53,2.48-17.33,2.64l-1.53.04c-3.4.11-7.61.49-10.05,2.42-4.87,3.97-6.22,13.21-7.65,23-.8,5.5-1.63,11.18-3.15,16.34-3.44,14.93-10.83,30.62-20.25,42.95Z"/>
    <path d="M266.19,680.22l-2.38-1.82c5.84-7.63,6.65-15.44,7.59-24.48.48-4.57.97-9.29,2.15-14.41,1.48-5.04,2.29-10.62,3.08-16.02,1.52-10.38,2.95-20.18,8.74-24.9,3.15-2.49,7.98-2.95,11.84-3.08l1.54-.04c5.53-.15,11.24-.31,16.24-2.4,15.6-6.74,26.88-26.22,31.13-42.53,1.33-5.2,2.25-11.25,2.75-18,.19-2.48.29-4.78.38-7.01.27-6.41.49-11.47,2.71-15.53,4.92-8.29,13.74-6.99,22.28-5.74,7.5,1.1,15.24,2.24,21.46-2.23,5.68-3.67,8.27-9.67,11.01-16.03,2.07-4.79,4.21-9.74,7.76-13.67,5.27-6.25,13.69-8.3,23.05-5.6,6.19,1.62,14.27,3.41,21.44,2.89,11.21-.37,19.61-5.4,29.42-11.93,9.1-5.91,19.93-7.47,28.98-4.17,6.03,2.04,10.7,5.79,15.65,9.75,4.27,3.43,8.69,6.97,14.11,9.33,9.56,4.4,21.88,4.04,32.2-.93,4.37-1.93,8.46-4.47,12.42-6.93,5.29-3.28,10.75-6.68,16.89-8.66,16.18-4.69,24.3,4.18,31.86,14.5,11.62,15.01,27.73,21.32,52.18,20.45,12.22-.27,30.64-.68,35.9,15.91,1.17,3.66,1.45,7.48,1.71,11.17.16,2.27.33,4.61.71,6.91,1.64,12.22,9.46,23.11,21.45,29.93,10.1,5.77,21,13.58,25.35,27.72.97,2.88,1.59,5.8,2.19,8.62.46,2.16.93,4.4,1.56,6.57,1.64,5.9,4.7,11.38,8.85,15.87,2.92,3.2,6.14,5.72,9.54,8.38,2.27,1.78,4.62,3.62,7.02,5.77,8.93,7.63,11.41,17.12,14.03,27.18.75,2.85,1.52,5.81,2.45,8.81l-2.86.89c-.96-3.07-1.74-6.05-2.49-8.94-2.61-10-4.87-18.64-13.1-25.68-2.36-2.11-4.67-3.92-6.9-5.66-3.5-2.74-6.81-5.34-9.9-8.71-4.47-4.83-7.77-10.74-9.53-17.08-.65-2.27-1.14-4.56-1.61-6.77-.58-2.74-1.18-5.57-2.11-8.32-4.06-13.18-14.4-20.55-23.98-26.03-12.81-7.28-21.17-18.98-22.93-32.1-.39-2.39-.56-4.8-.73-7.13-.27-3.68-.52-7.15-1.58-10.47-4.22-13.34-18.6-14.14-32.95-13.82-25.15.9-42.53-5.98-54.66-21.64-8.52-11.63-15.59-17.21-28.58-13.44-5.75,1.86-10.82,5.01-16.19,8.35-4.04,2.51-8.23,5.11-12.74,7.1-11.06,5.32-24.36,5.69-34.68.94-5.76-2.5-10.34-6.17-14.76-9.72-4.73-3.8-9.2-7.38-14.76-9.26-8.2-2.99-18.04-1.54-26.34,3.85-9.85,6.56-18.99,12.03-30.91,12.42-7.55.55-15.93-1.31-22.39-3-8.21-2.37-15.48-.66-19.99,4.68-3.26,3.6-5.21,8.11-7.27,12.88-2.8,6.49-5.69,13.19-12.07,17.32-7.14,5.15-15.88,3.86-23.59,2.73-8.25-1.21-15.37-2.26-19.23,4.26-1.86,3.4-2.06,8.15-2.32,14.17-.1,2.25-.19,4.58-.39,7.1-.51,6.92-1.47,13.15-2.84,18.52-4.44,17.02-16.32,37.39-32.86,44.54-5.53,2.32-11.53,2.48-17.33,2.64l-1.53.04c-3.4.11-7.61.49-10.05,2.42-4.87,3.97-6.22,13.21-7.65,23-.8,5.5-1.63,11.18-3.15,16.34-1.11,4.85-1.6,9.48-2.06,13.96-.95,9.09-1.84,17.68-8.19,25.99Z"/>
    <g>
      <path d="M468.81,893.58c-62.19-15.53-118.48-51.88-158.54-102.41-20.09-25.33-35.73-53.56-46.49-83.9-11.13-31.39-16.78-64.35-16.78-97.96,0-14.12,1.02-28.33,3.04-42.28,4.48,25.8,12.69,37.85,25.71,37.85h0c18.79,0,44.99-25.36,78.16-57.45,51.62-49.95,115.87-112.12,186.59-112.12s134.83,62.25,186.28,112.28c32.92,32.01,58.93,57.29,77.58,57.29,12.95,0,21.13-12.05,25.61-37.85,2.02,13.95,3.04,28.16,3.04,42.28,0,45.9-10.32,89.85-30.66,130.62-19.29,38.66-47.5,73.23-81.6,99.99-8.71-26.88-15.46-50.12-20.06-75.88-3.74-20.17-6.22-40.36-8.79-64.46-5.18-28.58-10.06-55.54-23.73-81.04-14.05-26.2-35.06-46.48-62.44-60.27-21.04-10.59-40.6-14.54-50.39-15.95-6.35-.92-12.73-1.38-18.98-1.38-43.98,0-77.1,22.55-103.7,40.67-32.8,22.34-41.72,40.21-45.57,51.71-11.4,34.02,3.8,73.46,3.95,73.85l.46,1.17.47-1.17c.13-.31,12.74-31.59,25.85-41.96,2.93-2.32,8.36-3.5,16.14-3.5,16.38,0,38.81,5.37,44.37,7.57,22.79,9.01,20.83,88.84,18.69,104.47-4.52,32.98-17.85,86.69-28.2,119.84Z"/>
      <path d="M540.5,435.81c31.32,0,64.16,12.29,100.38,37.57,31.39,21.9,60.16,49.88,85.55,74.57,33,32.09,59.07,57.43,77.93,57.43,6.69,0,12.27-3.31,16.58-9.84,3.83-5.81,6.78-14.14,8.95-25.37,1.73,12.94,2.61,26.08,2.61,39.14,0,45.82-10.3,89.69-30.61,130.4-19.15,38.39-47.11,72.72-80.9,99.38-8.6-26.57-15.27-49.62-19.82-75.14-3.74-20.15-6.22-40.33-8.78-64.42v-.04s-.01-.04-.01-.04c-5.18-28.58-10.07-55.58-23.78-81.16-14.1-26.3-35.18-46.65-62.66-60.48-21.11-10.62-40.73-14.58-50.55-16-6.37-.92-12.78-1.38-19.05-1.38-44.14,0-77.32,22.6-103.99,40.75-15.77,10.74-37.67,27.81-45.77,51.97-11.46,34.2,3.81,73.8,3.96,74.19l.92,2.35.94-2.34c.13-.31,12.69-31.46,25.7-41.76,2.84-2.25,8.17-3.39,15.83-3.39,16.32,0,38.65,5.35,44.18,7.53,9.37,3.7,15.7,20.82,18.31,49.51,2.1,23.05,1.06,47.2.07,54.42-4.5,32.81-17.72,86.15-28.04,119.31-31.09-7.81-60.53-20.65-87.51-38.17-26.79-17.39-50.44-38.9-70.3-63.96-20.05-25.29-35.67-53.47-46.41-83.75-11.11-31.33-16.75-64.24-16.75-97.79,0-13.06.88-26.2,2.61-39.14,2.18,11.23,5.13,19.57,8.98,25.37,4.33,6.53,9.93,9.84,16.66,9.84,18.99,0,45.26-25.42,78.51-57.59,25.49-24.66,54.37-52.61,85.82-74.48,36.28-25.23,69.13-37.5,100.42-37.5M540.5,434.81c-116.3,0-217.11,169.57-264.75,169.57-12.42,0-21.22-11.52-25.74-40.57-2.31,14.83-3.51,30.02-3.51,45.5,0,137.66,94.78,253.17,222.64,284.87,10.82-34.57,23.95-88.25,28.36-120.37,2.04-14.87,4.12-95.86-19-105-5.36-2.12-27.81-7.6-44.55-7.6-7.07,0-13.13.98-16.45,3.6-13.38,10.58-26.01,42.17-26.01,42.17,0,0-15.42-39.26-3.95-73.51,3.38-10.09,11.57-28.44,45.38-51.46,26.58-18.1,59.59-40.58,103.42-40.58,6.09,0,12.39.43,18.91,1.37,16.88,2.43,79.61,14.66,112.47,75.96,13.64,25.44,18.58,52.7,23.68,80.86,2.29,21.52,4.84,43.19,8.79,64.5,4.8,26.88,12.03,51.17,20.29,76.63,68.78-53.71,113.01-137.41,113.01-231.45,0-15.48-1.21-30.67-3.51-45.5-4.52,29.04-13.28,40.57-25.63,40.57-47.37,0-147.55-169.57-263.86-169.57h0Z"/>
    </g>
    <rect x="248.5" y="422.81" width="3" height="172"/>
    <rect x="827.5" y="399.31" width="3" height="186"/>
  </g>
  <path d="M566.71,620.05h-48.26c0-3.65.39-6.95,1.09-9.89.3-1.21.65-2.37,1.06-3.46,2.99-8.14,8.89-12.89,16.07-14.52,1.53-.35,3.12-.56,4.75-.62h0c.38-.01.75-.03,1.14-.03,8.69,0,16.29,3.86,20.54,11.92h0c.66,1.24,1.23,2.57,1.72,4.01,1.2,3.57,1.87,7.76,1.87,12.59Z"/>
</svg>